<?xml version="1.0" encoding="UTF-8" standalone="no"?>
<!-- Created with Inkscape (http://www.inkscape.org/) -->

<svg
   xmlns:dc="http://purl.org/dc/elements/1.1/"
   xmlns:cc="http://creativecommons.org/ns#"
   xmlns:rdf="http://www.w3.org/1999/02/22-rdf-syntax-ns#"
   xmlns:svg="http://www.w3.org/2000/svg"
   xmlns="http://www.w3.org/2000/svg"
   xmlns:sodipodi="http://sodipodi.sourceforge.net/DTD/sodipodi-0.dtd"
   xmlns:inkscape="http://www.inkscape.org/namespaces/inkscape"
   width="65.124794mm"
   height="56.14711mm"
   viewBox="0 0 230.75714 198.94645"
   id="svg8534"
   version="1.1"
   inkscape:version="0.91 r13725"
   sodipodi:docname="arrow.svg">
  <defs
     id="defs8536" />
  <sodipodi:namedview
     id="base"
     pagecolor="#ffffff"
     bordercolor="#666666"
     borderopacity="1.0"
     inkscape:pageopacity="0.0"
     inkscape:pageshadow="2"
     inkscape:zoom="1.4"
     inkscape:cx="111.19142"
     inkscape:cy="231.48232"
     inkscape:document-units="px"
     inkscape:current-layer="layer1"
     showgrid="false"
     inkscape:showpageshadow="false"
     borderlayer="true"
     fit-margin-top="0"
     fit-margin-left="0"
     fit-margin-right="0"
     fit-margin-bottom="0"
     inkscape:window-width="1920"
     inkscape:window-height="1080"
     inkscape:window-x="0"
     inkscape:window-y="0"
     inkscape:window-maximized="1" />
  <metadata
     id="metadata8539">
    <rdf:RDF>
      <cc:Work
         rdf:about="">
        <dc:format>image/svg+xml</dc:format>
        <dc:type
           rdf:resource="http://purl.org/dc/dcmitype/StillImage" />
        <dc:title></dc:title>
      </cc:Work>
    </rdf:RDF>
  </metadata>
  <g
     inkscape:label="Layer 1"
     inkscape:groupmode="layer"
     id="layer1"
     transform="translate(4.8537875e-5,-853.41573)">
    <g
       id="g8506"
       transform="matrix(0,-1,1,0,1903.6384,4260.8825)">
      <path
         style="opacity:1;fill:#f5f2e3;fill-opacity:1;stroke:none;stroke-width:10;stroke-linecap:round;stroke-linejoin:round;stroke-miterlimit:4;stroke-dasharray:none;stroke-dashoffset:0;stroke-opacity:1"
         d="m 3306.2148,-1896.6425 c -8.8587,2.8954 -10.8249,13.5258 -17.5321,19.1397 -25.5578,29.431 -54.3712,56.696 -73.4698,91.0771 11.5497,5.7461 24.737,0.7243 36.8775,-0.06 9.7505,-1.0974 19.7538,-1.4711 29.3725,0.8025 1.1957,14.7017 -3.2424,29.123 -4.1632,43.746 -2.3472,18.8623 -4.7575,37.8812 -3.4644,56.9222 9.9979,2.3797 20.4318,-0.9031 30.6591,0.1295 13.7352,0.4228 27.203,4.7776 40.9201,4.1328 5.5691,-7.6117 0.4529,-20.5502 1.5344,-30.2754 -1.1421,-26.087 -2.781,-52.1554 -3.3669,-78.2644 17.9083,-1.5755 36.3931,3.2358 53.8535,-2.5957 -0.4114,-10.9353 -13.0701,-19.3364 -18.465,-29.2835 -18.5905,-24.2827 -37.5358,-48.6064 -59.8162,-69.6194 -3.823,-2.7905 -8.0754,-5.5449 -12.9395,-5.8511 z"
         id="path8492"
         inkscape:connector-curvature="0" />
      <g
         transform="translate(-15.229554,424.90459)"
         id="g8484">
        <path
           style="fill:none;stroke:#000000;stroke-width:7.89272499;stroke-linecap:round;stroke-linejoin:round;stroke-miterlimit:10;stroke-dasharray:none;stroke-opacity:1"
           d="m 3230.0688,-2216.0052 c 5.5334,-10.0934 12.0709,-19.7659 19.1222,-28.89 13.1893,-13.9783 24.7652,-29.3857 37.944,-43.3496 9.7513,-8.4826 18.67,-17.9551 24.729,-29.4908 3.6123,-12.2276 17.0112,-5.2997 24.0456,-0.6753 9.6525,7.996 17.226,18.1244 25.77,27.236 11.1974,12.6616 22.4005,25.3514 31.6246,39.5738 8.543,10.9499 16.6234,22.2639 25.4458,32.9839 -2.0689,7.4099 -17.9167,6.6597 -26.3021,8.1528 -10.3166,0.3747 -20.5445,-1.9633 -30.8521,-1.6688"
           id="path8486"
           inkscape:connector-curvature="0" />
        <path
           style="fill:none;stroke:#000000;stroke-width:7.89272499;stroke-linecap:round;stroke-linejoin:round;stroke-miterlimit:10;stroke-dasharray:none;stroke-opacity:1"
           d="m 3229.2147,-2217.144 c -7.0672,12.427 11.7694,12.0688 19.6524,11.384 14.4282,-3.9799 29.4965,-3.8885 44.3442,-3.9298 1.3809,0.1622 1.8721,1.9688 2.0516,3.0224"
           id="path8488"
           inkscape:connector-curvature="0" />
        <path
           style="fill:none;stroke:#000000;stroke-width:7.89272499;stroke-linecap:round;stroke-linejoin:round;stroke-miterlimit:10;stroke-dasharray:none;stroke-opacity:1"
           d="m 3360.0775,-2212.1333 c 3.6024,20.7832 1.8225,42.0448 4.506,62.9462 0.6847,13.6948 0.4057,27.4155 0.4161,41.1076 -1.4854,12.1045 -19.3109,3.1681 -27.3638,2.838 -15.209,-3.3722 -30.8939,-3.0177 -46.1446,-0.1901 -9.2874,-2.2352 -4.207,-17.8328 -5.5042,-25.6384 1.6837,-18.2784 3.1088,-36.6221 6.656,-54.6495 -1.3893,-7.8538 4.4063,-17.2554 1.4745,-23.6441 -0.9803,-0.1287 -2.0382,0.1614 -2.7459,0.8745"
           id="path8490"
           inkscape:connector-curvature="0" />
      </g>
      <path
         style="opacity:1;fill:#f1d0a9;fill-opacity:1;stroke:none;stroke-width:10;stroke-linecap:round;stroke-linejoin:round;stroke-miterlimit:4;stroke-dasharray:none;stroke-dashoffset:0;stroke-opacity:1"
         d="m 3305.9668,-1886.1367 -0.7814,-1.137 0.7814,1.137 z m 1.2969,0.9492 c -17.479,24.4984 -40.2572,44.5731 -58.7903,68.2417 -4.6783,6.829 -15.6505,17.7001 -15.3828,22.7107 17.3734,-1.043 35.6958,-6.8833 52.5706,-0.2846 8.2407,4.7124 6.4932,14.9224 5.3616,22.7191 -2.6453,25.7641 -7.5595,51.3652 -7.6126,77.3416 18.2909,-1.5183 36.5902,0.9303 54.6777,3.4512 -1.6309,-13.6022 -0.7344,-27.3914 -2.096,-41.0458 -1.1564,-20.5111 -2.758,-41.0751 -1.5075,-61.6222 6.0563,-9.5361 18.9188,-4.8397 28.2296,-5.7029 6.1181,-0.7068 26.4849,4.409 15.9783,-5.3777 -21.6297,-28.353 -42.5523,-57.9714 -70.0436,-81.0168 l -0.7889,-0.1687 -0.5961,0.7544 0,0 z"
         id="path8494"
         inkscape:connector-curvature="0" />
    </g>
  </g>
</svg>
