<?xml version="1.0" encoding="UTF-8" standalone="no"?>
<!-- Created with Inkscape (http://www.inkscape.org/) -->

<svg
   xmlns:dc="http://purl.org/dc/elements/1.1/"
   xmlns:cc="http://creativecommons.org/ns#"
   xmlns:rdf="http://www.w3.org/1999/02/22-rdf-syntax-ns#"
   xmlns:svg="http://www.w3.org/2000/svg"
   xmlns="http://www.w3.org/2000/svg"
   xmlns:sodipodi="http://sodipodi.sourceforge.net/DTD/sodipodi-0.dtd"
   xmlns:inkscape="http://www.inkscape.org/namespaces/inkscape"
   width="357.40237"
   height="399.55365"
   viewBox="0 0 357.40237 399.55364"
   id="svg12905"
   version="1.1"
   inkscape:version="0.91 r13725"
   sodipodi:docname="audio.svg">
  <defs
     id="defs12907" />
  <sodipodi:namedview
     id="base"
     pagecolor="#ffffff"
     bordercolor="#666666"
     borderopacity="1.0"
     inkscape:pageopacity="0.0"
     inkscape:pageshadow="2"
     inkscape:zoom="1"
     inkscape:cx="244.09419"
     inkscape:cy="295.12769"
     inkscape:document-units="px"
     inkscape:current-layer="layer1"
     showgrid="false"
     inkscape:window-width="1920"
     inkscape:window-height="1080"
     inkscape:window-x="0"
     inkscape:window-y="0"
     inkscape:window-maximized="1"
     fit-margin-top="32"
     fit-margin-left="32"
     fit-margin-right="32"
     fit-margin-bottom="32"
     units="px" />
  <metadata
     id="metadata12910">
    <rdf:RDF>
      <cc:Work
         rdf:about="">
        <dc:format>image/svg+xml</dc:format>
        <dc:type
           rdf:resource="http://purl.org/dc/dcmitype/StillImage" />
        <dc:title></dc:title>
      </cc:Work>
    </rdf:RDF>
  </metadata>
  <g
     inkscape:label="Layer 1"
     inkscape:groupmode="layer"
     id="layer1"
     transform="translate(-3.7988126,-647.30839)">
    <g
       transform="matrix(0.54698438,0,0,0.54698438,-2172.1136,447.4543)"
       id="g13700">
      <path
         style="fill:none;stroke:#202024;stroke-width:10;stroke-linecap:round;stroke-linejoin:round;stroke-miterlimit:10;stroke-dasharray:none;stroke-opacity:1"
         d="m 4435.3802,522.23362 c -4.1397,-2.6815 -9.4559,-1.7896 -13.8534,-0.3652 -4.172,4.0852 -3.7082,11.1682 -1.1763,16.0421 2.3538,3.4489 7.639,5.7769 11.5172,3.6666 4.2335,-2.4152 3.8077,-7.9894 3.7192,-12.1875 0.2301,-4.4843 0.5812,-8.9633 0.5507,-13.4719 0.4754,-9.5929 -1.0977,-19.1496 -1.981,-28.6826 -0.3817,-6.857 -3.7589,-13.026 -4.6871,-19.7865 -2.9782,-5.3851 4.533,-2.2107 7.2301,-4.2949 6.0868,-1.894 23.3256,-1.8041 26.5895,-7.9609 3.1319,-4.7535 6.1944,-9.6561 10.1028,-13.8136 2.4728,0.7888 0.9739,7.1943 2.1177,10.0666 2.3903,13.7474 3.3514,27.6844 3.5262,41.625 0.017,5.0776 0.4916,10.1689 0.6041,15.2183 -2.9989,-2.5156 -7.7637,-0.1946 -10.4877,2.4852 -4.0255,4.8842 -3.5682,12.7604 0.789,17.2311 4.9384,1.8032 8.6362,-4.6247 9.8494,-8.7132 1.0901,-3.2675 2.2044,-9.5746 -0.8229,-11.2511"
         id="path13702"
         inkscape:connector-curvature="0"
         sodipodi:nodetypes="cccccccccccccccccc" />
      <path
         style="opacity:1;fill:#202024;fill-opacity:1;stroke:none;stroke-width:3.80738878;stroke-linecap:round;stroke-linejoin:round;stroke-miterlimit:10;stroke-dasharray:none;stroke-dashoffset:0;stroke-opacity:1"
         d="m 4428.9355,523.79897 c -4.5824,-1.06405 -8.3109,2.94537 -7.1543,7.42187 -0.7446,4.8468 6.2318,11.03144 9.834,6.12305 1.072,-4.14256 1.4263,-8.94573 0.3438,-13.01758 -0.9446,-0.58389 -1.9604,-0.5799 -3.0235,-0.52734 z"
         id="path13704"
         inkscape:connector-curvature="0" />
      <path
         inkscape:connector-curvature="0"
         id="path13706"
         d="m 4476.5279,510.09237 c -4.5824,-1.06405 -8.3109,2.94537 -7.1543,7.42187 -0.7446,4.8468 6.2318,11.03144 9.834,6.12305 1.072,-4.14256 1.4263,-8.94573 0.3438,-13.01758 -0.9446,-0.58389 -1.9604,-0.5799 -3.0235,-0.52734 z"
         style="opacity:1;fill:#202024;fill-opacity:1;stroke:none;stroke-width:3.80738878;stroke-linecap:round;stroke-linejoin:round;stroke-miterlimit:10;stroke-dasharray:none;stroke-dashoffset:0;stroke-opacity:1" />
    </g>
    <g
       transform="matrix(0.55537356,0,0,0.55537356,-2371.0537,537.28054)"
       id="g13654">
      <g
         id="g13656">
        <path
           inkscape:connector-curvature="0"
           id="path13658"
           style="fill:none;stroke:#202024;stroke-width:7.89272499;stroke-linecap:round;stroke-linejoin:round;stroke-miterlimit:10;stroke-dasharray:none;stroke-opacity:1"
           d="m 4427.9913,320.22795 c 0.2531,-0.3037 0.4734,-2.6632 0.661,-7.0786 0.1877,-4.4154 0.4054,-7.1177 0.6532,-8.107 0.2479,-0.9894 0.7785,-2.5112 1.5919,-4.5653 0.8134,-2.0543 1.3461,-4.4425 1.598,-7.1649 0.252,-2.7223 0.7125,-5.2163 1.3816,-7.482 0.6692,-2.2657 1.2807,-3.9337 1.8346,-5.0042 0.5539,-1.0705 1.4692,-2.5868 2.7459,-4.5488 1.2768,-1.9619 3.0383,-4.4133 5.2847,-7.3543 2.2463,-2.941 3.9509,-4.8826 5.1135,-5.8248 1.1626,-0.9422 1.9532,-1.4869 2.3718,-1.6343 0.4187,-0.1474 1.159,-0.066 2.221,0.245 1.0621,0.3107 2.3074,0.8158 3.7361,1.5153 1.4288,0.6995 2.55,1.5618 3.364,2.5871 0.814,1.0253 1.8346,2.1769 3.062,3.4549 1.2274,1.278 2.3568,2.6141 3.3882,4.0082 1.0316,1.3941 2.3976,2.7665 4.0982,4.1172 1.7007,1.3507 2.7741,2.3864 3.2203,3.107 0.4463,0.7208 1.0649,2.3584 1.8558,4.9129 0.791,2.5544 1.3332,4.7937 1.6267,6.7179 0.2936,1.9241 0.4499,4.1221 0.469,6.5938 0.019,2.4717 0.1877,6.4344 0.5056,11.888 0.3181,5.4537 0.4263,8.5815 0.3245,9.3837 -0.1018,0.8021 -0.2338,1.3821 -0.3961,1.7401 -0.1622,0.3579 -0.1428,0.5768 0.058,0.6568" />
        <path
           inkscape:connector-curvature="0"
           id="path13660"
           style="fill:none;stroke:#202024;stroke-width:7.89272499;stroke-linecap:round;stroke-linejoin:round;stroke-miterlimit:10;stroke-dasharray:none;stroke-opacity:1"
           d="m 4428.276,322.50555 c -0.5763,0.6013 -1.4462,1.1423 -2.61,1.6229 -1.1636,0.4807 -2.4491,1.2848 -3.8565,2.4125 -1.4073,1.1277 -2.6774,2.4658 -3.8105,4.0144 -1.1329,1.5486 -2.108,2.7694 -2.925,3.6626 -0.8171,0.8931 -1.2329,1.6425 -1.2474,2.2481 -0.014,0.6055 0.1747,1.0872 0.5676,1.445 0.3929,0.3579 1.1413,0.676 2.245,0.9545 1.1039,0.2785 2.2632,0.707 3.4778,1.2857 1.2146,0.5787 2.2181,0.9918 3.0106,1.2394 0.7924,0.2475 3.2038,0.5983 7.2342,1.0524 4.0305,0.454 6.8508,0.6818 8.4611,0.6833 1.6103,10e-4 6.2381,-0.2561 13.8835,-0.7727 7.6454,-0.5165 12.9867,-0.8249 16.0242,-0.925 3.0374,-0.1001 5.923,-0.3168 8.657,-0.6501 2.734,-0.3333 5.7691,-0.4292 9.105,-0.2877 3.336,0.1415 5.1096,0.1354 5.3208,-0.018 0.2112,-0.1535 0.3769,-0.5663 0.497,-1.2384 0.1201,-0.672 0.3235,-1.0542 0.6099,-1.1466 0.2865,-0.092 0.2179,-0.6476 -0.2057,-1.6656 -0.4235,-1.018 -0.9941,-2.2483 -1.7118,-3.6909 -0.7175,-1.4427 -1.4686,-2.5834 -2.2533,-3.422 -0.7845,-0.8387 -2.0895,-2.0057 -3.915,-3.5011" />
        <path
           inkscape:connector-curvature="0"
           id="path13662"
           style="fill:none;stroke:#202024;stroke-width:7.89272499;stroke-linecap:round;stroke-linejoin:round;stroke-miterlimit:10;stroke-dasharray:none;stroke-opacity:1"
           d="m 4450.1971,345.62325 c -0.9629,2.202 -1.5449,3.9027 -1.746,5.1021 -0.201,1.1993 -0.2862,2.3534 -0.2555,3.4624 0.031,1.109 0.1692,2.2915 0.4154,3.5476 0.2462,1.256 0.5217,2.3004 0.8265,3.1331 0.3047,0.8327 0.6505,1.4405 1.0371,1.8234 0.3867,0.3829 0.8902,0.6333 1.5105,0.7513 0.6203,0.1179 1.2586,0.081 1.915,-0.1097 0.6565,-0.191 1.1499,-0.4479 1.4804,-0.7706 0.3305,-0.3226 0.605,-0.7292 0.8236,-1.2197 0.2187,-0.4905 0.6688,-2.2343 1.3501,-5.2314 0.6815,-2.9971 1.0945,-5.0297 1.239,-6.0979 0.1445,-1.0682 0.2181,-1.9239 0.2208,-2.5671 0,-0.6433 -0.074,-1.2981 -0.2293,-1.9644 -0.1556,-0.6663 -0.4165,-1.325 -0.7828,-1.9761 -0.3664,-0.651 -0.8802,-1.274 -1.5416,-1.8688" />
      </g>
      <path
         style="opacity:1;fill:#ffee8d;fill-opacity:1;stroke:none;stroke-width:0.9518472;stroke-linecap:round;stroke-linejoin:round;stroke-miterlimit:4;stroke-dasharray:none;stroke-dashoffset:0;stroke-opacity:1"
         d="m 4454.5059,344.2267 c -4.5705,2.50294 -4.8055,9.64321 -3.5489,14.26954 3.5506,3.89508 4.875,-2.70386 5.1563,-5.35547 0.2142,-2.5998 2.6681,-8.32209 -1.6074,-8.91407 z"
         id="path13664"
         inkscape:connector-curvature="0" />
      <path
         style="opacity:1;fill:#ffee8d;fill-opacity:1;stroke:none;stroke-width:10.76892185;stroke-linecap:round;stroke-linejoin:round;stroke-miterlimit:4;stroke-dasharray:none;stroke-dashoffset:0;stroke-opacity:1"
         d="m 4452.5527,266.02163 c -7.9165,2.69931 -11.0993,11.95998 -14.1543,19.02734 -5.4788,12.73991 -4.865,27.17259 -10.2539,39.85352 -2.1547,3.85527 -9.1748,6.75691 -6.414,11.93359 7.3021,3.3051 16.0522,1.66821 23.9023,2.33984 14.5624,-0.30492 29.7575,0.16987 43.6934,-4.0039 -0.1883,-5.10581 -7.3877,-6.59426 -10.4981,-10.38868 -4.9904,-7.14958 -2.5943,-16.84197 -3.8423,-25.05288 -0.96,-6.88264 1.7098,-15.52514 -5.4519,-19.79403 -5.5359,-4.21508 -9.6269,-12.79738 -16.9812,-13.9148 z"
         id="path13666"
         inkscape:connector-curvature="0" />
      <path
         style="opacity:1;fill:none;fill-opacity:1;stroke:#f5f2e3;stroke-width:5;stroke-linecap:round;stroke-linejoin:round;stroke-miterlimit:4;stroke-dasharray:none;stroke-dashoffset:0;stroke-opacity:1"
         d="m 4455.2051,271.17773 c -0.7118,-0.36161 -1.6513,-1.03164 -2.4512,-0.84375 -8.8921,6.13984 -7.8739,10.47577 -10.8923,20.16848 m -4.846,14.80727 c -2.6494,10.86576 -0.7129,16.67749 -8.7265,25.60824 -1.2893,1.15075 -4.9037,3.72912 -0.7149,3.51367 3.9762,0.40005 9.746,1.5341 12.6758,-0.19141"
         id="path13668"
         inkscape:connector-curvature="0"
         sodipodi:nodetypes="ccccccc" />
      <path
         style="opacity:1;fill:#ffee8d;fill-opacity:1;stroke:#eda14f;stroke-width:5;stroke-linecap:round;stroke-linejoin:round;stroke-miterlimit:4;stroke-dasharray:none;stroke-dashoffset:0;stroke-opacity:1"
         d="m 4452.2402,333.02148 c 8.4637,-0.18097 17.0001,0.017 25.1934,-1.41015 -9.3916,-6.9394 -7.2987,-12.40285 -7.7448,-22.63919 m 0,-10.23047 c -0.5021,-6.60086 0.8065,-12.23839 -6.0091,-16.30808 -2.2453,-1.80403 -4.7435,-4.14113 -6.1934,-6.30468"
         id="path13670"
         inkscape:connector-curvature="0"
         sodipodi:nodetypes="cccccc" />
    </g>
    <path
       d="m 141.35435,973.14514 c 1.44925,1.70522 2.35645,2.86678 2.72161,3.4848 0.36516,0.61797 0.7061,1.29058 1.02278,2.01773 0.31673,0.72715 0.64345,1.7572 0.98018,3.09021 0.33672,1.33301 0.58458,2.72933 0.74353,4.18896 0.15895,1.45963 0.23842,2.64152 0.23842,3.54578 0,0.9042 -0.0455,1.75537 -0.1359,2.5535 -0.0906,0.79807 -0.31878,1.89515 -0.68461,3.29125 -0.36582,1.39605 -0.67261,2.38672 -0.92031,2.97197 -0.24769,0.5852 -0.5762,1.21499 -0.98545,1.88936 -0.40931,0.6743 -0.74392,1.144 -1.00384,1.4092 -0.25991,0.2651 -0.51194,0.4188 -0.75597,0.4609 -0.24403,0.042 -0.42248,-0.063 -0.53527,-0.3164"
       style="fill:none;stroke:#202024;stroke-width:4.38341093;stroke-linecap:round;stroke-linejoin:round;stroke-miterlimit:10;stroke-dasharray:none;stroke-opacity:1"
       id="path12127"
       inkscape:connector-curvature="0" />
    <path
       d="m 152.68553,966.12483 c 1.12435,0.42164 1.95775,0.84283 2.50012,1.26353 0.54249,0.42064 1.11592,0.98917 1.7205,1.70561 0.60452,0.71648 1.58242,2.00478 2.93376,3.86501 1.35139,1.86022 2.31874,3.26332 2.9021,4.20928 0.58337,0.94597 0.99928,1.68379 1.24765,2.21356 0.24847,0.52977 0.47251,1.08031 0.67217,1.65173 0.19965,0.57132 0.41747,1.45297 0.65339,2.64486 0.23593,1.19189 0.41937,2.60398 0.55032,4.23633 0.13102,1.63236 0.17178,2.86806 0.12219,3.70712 -0.0494,0.83912 -0.16145,1.62997 -0.33578,2.37261 -0.17428,0.7427 -0.5215,1.62491 -1.04155,2.64664 -0.52005,1.02177 -2.36934,3.83619 -5.54774,8.44339"
       style="fill:none;stroke:#202024;stroke-width:4.38341093;stroke-linecap:round;stroke-linejoin:round;stroke-miterlimit:10;stroke-dasharray:none;stroke-opacity:1"
       id="path12129"
       inkscape:connector-curvature="0" />
    <path
       d="m 133.02725,983.70729 c 0.24592,0 0.44141,0.0689 0.58636,0.2066 0.14495,0.13773 0.3059,0.39159 0.4829,0.76147 0.17694,0.36988 0.38698,1.00212 0.63007,1.89666 0.24309,0.89448 0.43808,1.84228 0.58492,2.8434 0.14684,1.00106 0.19655,1.65929 0.14912,1.97468 -0.0472,0.3154 -0.13929,0.60853 -0.27591,0.87927 -0.13657,0.2708 -0.31251,0.51222 -0.52783,0.72438 -0.21532,0.21215 -0.58436,0.45529 -1.10708,0.72948 -0.52277,0.27419 -0.79741,0.43419 -0.82395,0.4799 -0.0267,0.0455 0.0211,0.0678 0.14328,0.0662"
       style="fill:none;stroke:#202024;stroke-width:4.38341093;stroke-linecap:round;stroke-linejoin:round;stroke-miterlimit:10;stroke-dasharray:none;stroke-opacity:1"
       id="path12125"
       inkscape:connector-curvature="0" />
    <g
       id="g12865"
       transform="matrix(0.55537356,0,0,0.55537356,-2371.0537,807.28054)">
      <g
         id="g12782">
        <path
           d="m 4427.9913,320.22795 c 0.2531,-0.3037 0.4734,-2.6632 0.661,-7.0786 0.1877,-4.4154 0.4054,-7.1177 0.6532,-8.107 0.2479,-0.9894 0.7785,-2.5112 1.5919,-4.5653 0.8134,-2.0543 1.3461,-4.4425 1.598,-7.1649 0.252,-2.7223 0.7125,-5.2163 1.3816,-7.482 0.6692,-2.2657 1.2807,-3.9337 1.8346,-5.0042 0.5539,-1.0705 1.4692,-2.5868 2.7459,-4.5488 1.2768,-1.9619 3.0383,-4.4133 5.2847,-7.3543 2.2463,-2.941 3.9509,-4.8826 5.1135,-5.8248 1.1626,-0.9422 1.9532,-1.4869 2.3718,-1.6343 0.4187,-0.1474 1.159,-0.066 2.221,0.245 1.0621,0.3107 2.3074,0.8158 3.7361,1.5153 1.4288,0.6995 2.55,1.5618 3.364,2.5871 0.814,1.0253 1.8346,2.1769 3.062,3.4549 1.2274,1.278 2.3568,2.6141 3.3882,4.0082 1.0316,1.3941 2.3976,2.7665 4.0982,4.1172 1.7007,1.3507 2.7741,2.3864 3.2203,3.107 0.4463,0.7208 1.0649,2.3584 1.8558,4.9129 0.791,2.5544 1.3332,4.7937 1.6267,6.7179 0.2936,1.9241 0.4499,4.1221 0.469,6.5938 0.019,2.4717 0.1877,6.4344 0.5056,11.888 0.3181,5.4537 0.4263,8.5815 0.3245,9.3837 -0.1018,0.8021 -0.2338,1.3821 -0.3961,1.7401 -0.1622,0.3579 -0.1428,0.5768 0.058,0.6568"
           style="fill:none;stroke:#202024;stroke-width:7.89272499;stroke-linecap:round;stroke-linejoin:round;stroke-miterlimit:10;stroke-dasharray:none;stroke-opacity:1"
           id="path12131"
           inkscape:connector-curvature="0" />
        <path
           d="m 4428.276,322.50555 c -0.5763,0.6013 -1.4462,1.1423 -2.61,1.6229 -1.1636,0.4807 -2.4491,1.2848 -3.8565,2.4125 -1.4073,1.1277 -2.6774,2.4658 -3.8105,4.0144 -1.1329,1.5486 -2.108,2.7694 -2.925,3.6626 -0.8171,0.8931 -1.2329,1.6425 -1.2474,2.2481 -0.014,0.6055 0.1747,1.0872 0.5676,1.445 0.3929,0.3579 1.1413,0.676 2.245,0.9545 1.1039,0.2785 2.2632,0.707 3.4778,1.2857 1.2146,0.5787 2.2181,0.9918 3.0106,1.2394 0.7924,0.2475 3.2038,0.5983 7.2342,1.0524 4.0305,0.454 6.8508,0.6818 8.4611,0.6833 1.6103,10e-4 6.2381,-0.2561 13.8835,-0.7727 7.6454,-0.5165 12.9867,-0.8249 16.0242,-0.925 3.0374,-0.1001 5.923,-0.3168 8.657,-0.6501 2.734,-0.3333 5.7691,-0.4292 9.105,-0.2877 3.336,0.1415 5.1096,0.1354 5.3208,-0.018 0.2112,-0.1535 0.3769,-0.5663 0.497,-1.2384 0.1201,-0.672 0.3235,-1.0542 0.6099,-1.1466 0.2865,-0.092 0.2179,-0.6476 -0.2057,-1.6656 -0.4235,-1.018 -0.9941,-2.2483 -1.7118,-3.6909 -0.7175,-1.4427 -1.4686,-2.5834 -2.2533,-3.422 -0.7845,-0.8387 -2.0895,-2.0057 -3.915,-3.5011"
           style="fill:none;stroke:#202024;stroke-width:7.89272499;stroke-linecap:round;stroke-linejoin:round;stroke-miterlimit:10;stroke-dasharray:none;stroke-opacity:1"
           id="path12133"
           inkscape:connector-curvature="0" />
        <path
           d="m 4450.1971,345.62325 c -0.9629,2.202 -1.5449,3.9027 -1.746,5.1021 -0.201,1.1993 -0.2862,2.3534 -0.2555,3.4624 0.031,1.109 0.1692,2.2915 0.4154,3.5476 0.2462,1.256 0.5217,2.3004 0.8265,3.1331 0.3047,0.8327 0.6505,1.4405 1.0371,1.8234 0.3867,0.3829 0.8902,0.6333 1.5105,0.7513 0.6203,0.1179 1.2586,0.081 1.915,-0.1097 0.6565,-0.191 1.1499,-0.4479 1.4804,-0.7706 0.3305,-0.3226 0.605,-0.7292 0.8236,-1.2197 0.2187,-0.4905 0.6688,-2.2343 1.3501,-5.2314 0.6815,-2.9971 1.0945,-5.0297 1.239,-6.0979 0.1445,-1.0682 0.2181,-1.9239 0.2208,-2.5671 0,-0.6433 -0.074,-1.2981 -0.2293,-1.9644 -0.1556,-0.6663 -0.4165,-1.325 -0.7828,-1.9761 -0.3664,-0.651 -0.8802,-1.274 -1.5416,-1.8688"
           style="fill:none;stroke:#202024;stroke-width:7.89272499;stroke-linecap:round;stroke-linejoin:round;stroke-miterlimit:10;stroke-dasharray:none;stroke-opacity:1"
           id="path12135"
           inkscape:connector-curvature="0" />
      </g>
      <path
         inkscape:connector-curvature="0"
         id="path12787"
         d="m 4454.5059,344.2267 c -4.5705,2.50294 -4.8055,9.64321 -3.5489,14.26954 3.5506,3.89508 4.875,-2.70386 5.1563,-5.35547 0.2142,-2.5998 2.6681,-8.32209 -1.6074,-8.91407 z"
         style="opacity:1;fill:#ffee8d;fill-opacity:1;stroke:none;stroke-width:0.9518472;stroke-linecap:round;stroke-linejoin:round;stroke-miterlimit:4;stroke-dasharray:none;stroke-dashoffset:0;stroke-opacity:1" />
      <path
         inkscape:connector-curvature="0"
         id="path12772"
         d="m 4452.5527,266.02163 c -7.9165,2.69931 -11.0993,11.95998 -14.1543,19.02734 -5.4788,12.73991 -4.865,27.17259 -10.2539,39.85352 -2.1547,3.85527 -9.1748,6.75691 -6.414,11.93359 7.3021,3.3051 16.0522,1.66821 23.9023,2.33984 14.5624,-0.30492 29.7575,0.16987 43.6934,-4.0039 -0.1883,-5.10581 -7.3877,-6.59426 -10.4981,-10.38868 -4.9904,-7.14958 -2.5943,-16.84197 -3.8423,-25.05288 -0.96,-6.88264 1.7098,-15.52514 -5.4519,-19.79403 -5.5359,-4.21508 -9.6269,-12.79738 -16.9812,-13.9148 z"
         style="opacity:1;fill:#ffee8d;fill-opacity:1;stroke:none;stroke-width:10.76892185;stroke-linecap:round;stroke-linejoin:round;stroke-miterlimit:4;stroke-dasharray:none;stroke-dashoffset:0;stroke-opacity:1" />
      <path
         sodipodi:nodetypes="ccccccc"
         inkscape:connector-curvature="0"
         id="path12776"
         d="m 4455.2051,271.17773 c -0.7118,-0.36161 -1.6513,-1.03164 -2.4512,-0.84375 -8.8921,6.13984 -7.8739,10.47577 -10.8923,20.16848 m -4.846,14.80727 c -2.6494,10.86576 -0.7129,16.67749 -8.7265,25.60824 -1.2893,1.15075 -4.9037,3.72912 -0.7149,3.51367 3.9762,0.40005 9.746,1.5341 12.6758,-0.19141"
         style="opacity:1;fill:none;fill-opacity:1;stroke:#f5f2e3;stroke-width:5;stroke-linecap:round;stroke-linejoin:round;stroke-miterlimit:4;stroke-dasharray:none;stroke-dashoffset:0;stroke-opacity:1" />
      <path
         sodipodi:nodetypes="cccccc"
         inkscape:connector-curvature="0"
         id="path12837"
         d="m 4452.2402,333.02148 c 8.4637,-0.18097 17.0001,0.017 25.1934,-1.41015 -9.3916,-6.9394 -7.2987,-12.40285 -7.7448,-22.63919 m 0,-10.23047 c -0.5021,-6.60086 0.8065,-12.23839 -6.0091,-16.30808 -2.2453,-1.80403 -4.7435,-4.14113 -6.1934,-6.30468"
         style="opacity:1;fill:#ffee8d;fill-opacity:1;stroke:#eda14f;stroke-width:5;stroke-linecap:round;stroke-linejoin:round;stroke-miterlimit:4;stroke-dasharray:none;stroke-dashoffset:0;stroke-opacity:1" />
    </g>
    <path
       inkscape:connector-curvature="0"
       id="path12875"
       style="fill:none;stroke:#202024;stroke-width:4.38341093;stroke-linecap:round;stroke-linejoin:round;stroke-miterlimit:10;stroke-dasharray:none;stroke-opacity:1"
       d="m 62.645647,1002.7307 c -1.449248,-1.7052 -2.35645,-2.86677 -2.721609,-3.48479 -0.365158,-0.61796 -0.706101,-1.29057 -1.022775,-2.01772 -0.31673,-0.72716 -0.643456,-1.75721 -0.980179,-3.09021 -0.336723,-1.33301 -0.584586,-2.72933 -0.743534,-4.18896 -0.158948,-1.45964 -0.238422,-2.64153 -0.238422,-3.54579 0,-0.9042 0.04554,-1.75537 0.1359,-2.55349 0.09058,-0.79808 0.318784,-1.89516 0.684609,-3.29126 0.365824,-1.39604 0.672613,-2.38672 0.920309,-2.97197 0.247697,-0.5852 0.5762,-1.21499 0.985455,-1.88932 0.40931,-0.67434 0.743923,-1.14407 1.003838,-1.40921 0.259915,-0.26513 0.511943,-0.41881 0.755974,-0.46096 0.244031,-0.0422 0.422473,0.0634 0.535269,0.3164" />
    <path
       inkscape:connector-curvature="0"
       id="path12877"
       style="fill:none;stroke:#202024;stroke-width:4.38341093;stroke-linecap:round;stroke-linejoin:round;stroke-miterlimit:10;stroke-dasharray:none;stroke-opacity:1"
       d="m 51.314471,1009.751 c -1.124354,-0.4216 -1.957747,-0.8428 -2.500125,-1.2635 -0.542489,-0.4206 -1.115912,-0.9892 -1.720492,-1.7056 -0.604524,-0.7165 -1.582426,-2.0048 -2.933761,-3.865 -1.35139,-1.8602 -2.31874,-3.26334 -2.902104,-4.20931 -0.583365,-0.94597 -0.999284,-1.68378 -1.247647,-2.21355 -0.248474,-0.52977 -0.472512,-1.08032 -0.672169,-1.65174 -0.199656,-0.57131 -0.417474,-1.45297 -0.653397,-2.64486 -0.235922,-1.19188 -0.419362,-2.60398 -0.550319,-4.23633 -0.131013,-1.63235 -0.171777,-2.86806 -0.122182,-3.70712 0.04943,-0.83911 0.161447,-1.62996 0.335778,-2.37261 0.174277,-0.7427 0.521496,-1.62491 1.041548,-2.64663 0.520052,-1.02178 2.369335,-3.83624 5.547738,-8.44335" />
    <path
       inkscape:connector-curvature="0"
       id="path12879"
       style="fill:none;stroke:#202024;stroke-width:4.38341093;stroke-linecap:round;stroke-linejoin:round;stroke-miterlimit:10;stroke-dasharray:none;stroke-opacity:1"
       d="m 70.972751,992.16857 c -0.245919,0 -0.441411,-0.0689 -0.586363,-0.2066 -0.144953,-0.13774 -0.3059,-0.3916 -0.482898,-0.76148 -0.176942,-0.36987 -0.386984,-1.00211 -0.630071,-1.89665 -0.243087,-0.89449 -0.438079,-1.84229 -0.584919,-2.8434 -0.146841,-1.00106 -0.196547,-1.65929 -0.149118,-1.97469 0.04721,-0.3154 0.139288,-0.60852 0.275909,-0.87927 0.136567,-0.2708 0.312509,-0.51222 0.527827,-0.72437 0.215319,-0.21215 0.584365,-0.4553 1.107082,-0.72948 0.522773,-0.27419 0.797405,-0.4342 0.823952,-0.4799 0.02666,-0.0455 -0.0211,-0.0678 -0.143286,-0.0663" />
    <g
       id="g12887"
       transform="matrix(0.54698438,0,0,0.54698438,-2172.1136,715.4543)">
      <path
         sodipodi:nodetypes="cccccccccccccccccc"
         inkscape:connector-curvature="0"
         id="path12137"
         d="m 4435.3802,522.23362 c -4.1397,-2.6815 -9.4559,-1.7896 -13.8534,-0.3652 -4.172,4.0852 -3.7082,11.1682 -1.1763,16.0421 2.3538,3.4489 7.639,5.7769 11.5172,3.6666 4.2335,-2.4152 3.8077,-7.9894 3.7192,-12.1875 0.2301,-4.4843 0.5812,-8.9633 0.5507,-13.4719 0.4754,-9.5929 -1.0977,-19.1496 -1.981,-28.6826 -0.3817,-6.857 -3.7589,-13.026 -4.6871,-19.7865 -2.9782,-5.3851 4.533,-2.2107 7.2301,-4.2949 6.0868,-1.894 23.3256,-1.8041 26.5895,-7.9609 3.1319,-4.7535 6.1944,-9.6561 10.1028,-13.8136 2.4728,0.7888 0.9739,7.1943 2.1177,10.0666 2.3903,13.7474 3.3514,27.6844 3.5262,41.625 0.017,5.0776 0.4916,10.1689 0.6041,15.2183 -2.9989,-2.5156 -7.7637,-0.1946 -10.4877,2.4852 -4.0255,4.8842 -3.5682,12.7604 0.789,17.2311 4.9384,1.8032 8.6362,-4.6247 9.8494,-8.7132 1.0901,-3.2675 2.2044,-9.5746 -0.8229,-11.2511"
         style="fill:none;stroke:#202024;stroke-width:10;stroke-linecap:round;stroke-linejoin:round;stroke-miterlimit:10;stroke-dasharray:none;stroke-opacity:1" />
      <path
         inkscape:connector-curvature="0"
         id="path12881"
         d="m 4428.9355,523.79897 c -4.5824,-1.06405 -8.3109,2.94537 -7.1543,7.42187 -0.7446,4.8468 6.2318,11.03144 9.834,6.12305 1.072,-4.14256 1.4263,-8.94573 0.3438,-13.01758 -0.9446,-0.58389 -1.9604,-0.5799 -3.0235,-0.52734 z"
         style="opacity:1;fill:#202024;fill-opacity:1;stroke:none;stroke-width:3.80738878;stroke-linecap:round;stroke-linejoin:round;stroke-miterlimit:10;stroke-dasharray:none;stroke-dashoffset:0;stroke-opacity:1" />
      <path
         style="opacity:1;fill:#202024;fill-opacity:1;stroke:none;stroke-width:3.80738878;stroke-linecap:round;stroke-linejoin:round;stroke-miterlimit:10;stroke-dasharray:none;stroke-dashoffset:0;stroke-opacity:1"
         d="m 4476.5279,510.09237 c -4.5824,-1.06405 -8.3109,2.94537 -7.1543,7.42187 -0.7446,4.8468 6.2318,11.03144 9.834,6.12305 1.072,-4.14256 1.4263,-8.94573 0.3438,-13.01758 -0.9446,-0.58389 -1.9604,-0.5799 -3.0235,-0.52734 z"
         id="path12885"
         inkscape:connector-curvature="0" />
    </g>
    <path
       inkscape:connector-curvature="0"
       id="path12892"
       style="fill:none;stroke:#202024;stroke-width:4.31719732;stroke-linecap:round;stroke-linejoin:round;stroke-miterlimit:10;stroke-dasharray:none;stroke-opacity:1"
       d="m 302.75989,969.19749 c 1.42735,1.67947 2.32085,2.82348 2.68049,3.43217 0.35965,0.60863 0.69544,1.27108 1.00733,1.98725 0.31195,0.71616 0.63374,1.73066 0.96537,3.04353 0.33164,1.31287 0.57576,2.6881 0.73231,4.12568 0.15654,1.43759 0.23482,2.60162 0.23482,3.49222 0,0.89055 -0.0449,1.72886 -0.13385,2.51493 -0.0892,0.78601 -0.31397,1.86653 -0.67427,3.24154 -0.3603,1.37495 -0.66245,2.35066 -0.90641,2.92707 -0.24395,0.57636 -0.56749,1.19664 -0.97056,1.86079 -0.40313,0.66415 -0.73269,1.12679 -0.98868,1.38792 -0.25599,0.26113 -0.50421,0.41248 -0.74455,0.454 -0.24035,0.0416 -0.4161,-0.0624 -0.52719,-0.31162" />
    <path
       inkscape:connector-curvature="0"
       id="path12895"
       style="fill:none;stroke:#202024;stroke-width:4.31719732;stroke-linecap:round;stroke-linejoin:round;stroke-miterlimit:10;stroke-dasharray:none;stroke-opacity:1"
       d="m 313.9199,962.28323 c 1.10737,0.41527 1.92817,0.8301 2.46236,1.24444 0.53429,0.41429 1.09906,0.97424 1.6945,1.67985 0.5954,0.70566 1.55853,1.9745 2.88945,3.80663 1.33097,1.83212 2.28371,3.21402 2.85826,4.1457 0.57456,0.93168 0.98419,1.65835 1.22881,2.18012 0.24472,0.52176 0.46537,1.06399 0.66201,1.62678 0.19664,0.56268 0.41117,1.43102 0.64353,2.60491 0.23236,1.17388 0.41303,2.56464 0.542,4.17234 0.12904,1.60769 0.16919,2.82473 0.12034,3.65112 -0.0487,0.82644 -0.15901,1.60534 -0.33071,2.33677 -0.17164,0.73148 -0.51361,1.60037 -1.02581,2.60665 -0.5122,1.00635 -2.33355,3.7783 -5.46394,8.31586" />
    <path
       inkscape:connector-curvature="0"
       id="path12897"
       style="fill:none;stroke:#202024;stroke-width:4.31719732;stroke-linecap:round;stroke-linejoin:round;stroke-miterlimit:10;stroke-dasharray:none;stroke-opacity:1"
       d="m 294.55857,979.6001 c 0.2422,0 0.43474,0.0678 0.5775,0.20348 0.14277,0.13565 0.30128,0.38568 0.47561,0.74997 0.17427,0.36429 0.38114,0.98698 0.62055,1.868 0.23942,0.88098 0.43146,1.81446 0.57608,2.80045 0.14463,0.98594 0.19358,1.63423 0.14687,1.94486 -0.0465,0.31063 -0.13718,0.59933 -0.27174,0.86599 -0.13451,0.26671 -0.30779,0.50448 -0.51986,0.71343 -0.21206,0.20895 -0.57553,0.44842 -1.09035,0.71846 -0.51488,0.27005 -0.78536,0.42764 -0.81151,0.47265 -0.0263,0.0448 0.0208,0.0668 0.14112,0.0653" />
    <path
       d="m 225.24011,998.33617 c -1.42735,-1.67946 -2.32085,-2.82348 -2.68049,-3.43217 -0.35965,-0.60862 -0.69544,-1.27108 -1.00733,-1.98724 -0.31195,-0.71617 -0.63374,-1.73066 -0.96537,-3.04353 -0.33164,-1.31288 -0.57576,-2.6881 -0.73231,-4.12569 -0.15654,-1.43758 -0.23482,-2.60162 -0.23482,-3.49222 0,-0.89055 0.0449,-1.72885 0.13385,-2.51493 0.0892,-0.78601 0.31397,-1.86653 0.67427,-3.24153 0.3603,-1.37496 0.66245,-2.35067 0.90641,-2.92708 0.24395,-0.57636 0.56749,-1.19664 0.97056,-1.86079 0.40313,-0.66415 0.73269,-1.12679 0.98868,-1.38792 0.25599,-0.26113 0.50421,-0.41248 0.74455,-0.45399 0.24035,-0.0416 0.4161,0.0624 0.52719,0.31161"
       style="fill:none;stroke:#202024;stroke-width:4.31719732;stroke-linecap:round;stroke-linejoin:round;stroke-miterlimit:10;stroke-dasharray:none;stroke-opacity:1"
       id="path12899"
       inkscape:connector-curvature="0" />
    <path
       d="m 214.0801,1005.2504 c -1.10737,-0.4152 -1.92817,-0.8301 -2.46236,-1.2444 -0.53429,-0.4143 -1.09906,-0.9742 -1.6945,-1.6799 -0.5954,-0.7056 -1.55853,-1.9745 -2.88945,-3.80658 -1.33097,-1.83213 -2.28371,-3.21403 -2.85826,-4.14571 -0.57456,-0.93168 -0.98419,-1.65834 -1.22881,-2.18011 -0.24472,-0.52177 -0.46537,-1.064 -0.66201,-1.62679 -0.19664,-0.56268 -0.41117,-1.43102 -0.64353,-2.6049 -0.23236,-1.17389 -0.41303,-2.56465 -0.542,-4.17234 -0.12904,-1.6077 -0.16919,-2.82474 -0.12034,-3.65113 0.0487,-0.82643 0.15901,-1.60534 0.33071,-2.33677 0.17164,-0.73148 0.51361,-1.60036 1.02581,-2.60665 0.5122,-1.00634 2.33355,-3.7783 5.46394,-8.31581"
       style="fill:none;stroke:#202024;stroke-width:4.31719732;stroke-linecap:round;stroke-linejoin:round;stroke-miterlimit:10;stroke-dasharray:none;stroke-opacity:1"
       id="path12901"
       inkscape:connector-curvature="0" />
    <path
       d="m 233.44143,987.93356 c -0.2422,0 -0.43474,-0.0678 -0.5775,-0.20347 -0.14277,-0.13566 -0.30128,-0.38568 -0.47561,-0.74997 -0.17427,-0.3643 -0.38114,-0.98698 -0.62055,-1.86801 -0.23942,-0.88097 -0.43146,-1.81446 -0.57608,-2.80045 -0.14463,-0.98594 -0.19358,-1.63423 -0.14687,-1.94486 0.0465,-0.31063 0.13718,-0.59933 0.27174,-0.86598 0.13451,-0.26671 0.30779,-0.50449 0.51986,-0.71344 0.21206,-0.20894 0.57553,-0.44841 1.09035,-0.71846 0.51488,-0.27005 0.78536,-0.42763 0.81151,-0.47265 0.0263,-0.0448 -0.0208,-0.0668 -0.14112,-0.0652"
       style="fill:none;stroke:#202024;stroke-width:4.31719732;stroke-linecap:round;stroke-linejoin:round;stroke-miterlimit:10;stroke-dasharray:none;stroke-opacity:1"
       id="path12903"
       inkscape:connector-curvature="0" />
    <g
       id="g12761"
       transform="matrix(0.76674732,0,0,0.76674732,-3898.4153,2355.9434)"
       style="fill:none;fill-opacity:1;stroke:#cc3a3a;stroke-opacity:1">
      <path
         inkscape:connector-curvature="0"
         id="path12071"
         style="fill:none;fill-opacity:1;stroke:#cc3a3a;stroke-width:7.89272499;stroke-linecap:round;stroke-linejoin:round;stroke-miterlimit:10;stroke-dasharray:none;stroke-opacity:1"
         d="m 5177.6232,-2106.3025 c -0.6006,2.6106 -0.9266,4.2972 -0.978,5.0597 -0.051,0.7624 0.2192,0.9771 0.8119,0.6439 0.5927,-0.3333 1.5877,-1.1701 2.985,-2.5106 1.3972,-1.3406 5.9072,-6.3827 13.5297,-15.1261 7.6226,-8.7435 19.036,-21.2307 34.2403,-37.4617 15.2043,-16.231 22.9608,-24.6317 23.2696,-25.2023 0.3087,-0.5706 -0.2702,-1.1761 -1.7368,-1.8165" />
      <path
         inkscape:connector-curvature="0"
         id="path12073"
         style="fill:none;fill-opacity:1;stroke:#cc3a3a;stroke-width:7.89272499;stroke-linecap:round;stroke-linejoin:round;stroke-miterlimit:10;stroke-dasharray:none;stroke-opacity:1"
         d="m 5175.5355,-2178.5025 c 0.7719,1.5143 1.377,2.5215 1.8154,3.0215 0.4385,0.4998 2.0878,2.0211 4.948,4.5636 2.8601,2.5425 6.8273,6.2467 11.9014,11.1123 5.0742,4.8657 10.3703,10.1085 15.8885,15.7284 5.5182,5.6198 13.2371,12.9982 23.1567,22.1351 9.9197,9.1369 15.485,14.4195 16.696,15.8479 1.211,1.4285 1.8527,2.3123 1.925,2.6516 0.072,0.3394 0,0.6964 -0.2229,1.0711 -0.221,0.3746 -0.2845,0.7723 -0.1906,1.1932" />
    </g>
    <g
       style="fill:none;fill-opacity:1;stroke:#cc3a3a;stroke-opacity:1"
       transform="matrix(0.76674732,0,0,0.76674732,-3732.4153,2356.9434)"
       id="g13573">
      <path
         d="m 5177.6232,-2106.3025 c -0.6006,2.6106 -0.9266,4.2972 -0.978,5.0597 -0.051,0.7624 0.2192,0.9771 0.8119,0.6439 0.5927,-0.3333 1.5877,-1.1701 2.985,-2.5106 1.3972,-1.3406 5.9072,-6.3827 13.5297,-15.1261 7.6226,-8.7435 19.036,-21.2307 34.2403,-37.4617 15.2043,-16.231 22.9608,-24.6317 23.2696,-25.2023 0.3087,-0.5706 -0.2702,-1.1761 -1.7368,-1.8165"
         style="fill:none;fill-opacity:1;stroke:#cc3a3a;stroke-width:7.89272499;stroke-linecap:round;stroke-linejoin:round;stroke-miterlimit:10;stroke-dasharray:none;stroke-opacity:1"
         id="path13575"
         inkscape:connector-curvature="0" />
      <path
         d="m 5175.5355,-2178.5025 c 0.7719,1.5143 1.377,2.5215 1.8154,3.0215 0.4385,0.4998 2.0878,2.0211 4.948,4.5636 2.8601,2.5425 6.8273,6.2467 11.9014,11.1123 5.0742,4.8657 10.3703,10.1085 15.8885,15.7284 5.5182,5.6198 13.2371,12.9982 23.1567,22.1351 9.9197,9.1369 15.485,14.4195 16.696,15.8479 1.211,1.4285 1.8527,2.3123 1.925,2.6516 0.072,0.3394 0,0.6964 -0.2229,1.0711 -0.221,0.3746 -0.2845,0.7723 -0.1906,1.1932"
         style="fill:none;fill-opacity:1;stroke:#cc3a3a;stroke-width:7.89272499;stroke-linecap:round;stroke-linejoin:round;stroke-miterlimit:10;stroke-dasharray:none;stroke-opacity:1"
         id="path13577"
         inkscape:connector-curvature="0" />
    </g>
    <path
       inkscape:connector-curvature="0"
       id="path13579"
       style="fill:none;stroke:#202024;stroke-width:4.38341093;stroke-linecap:round;stroke-linejoin:round;stroke-miterlimit:10;stroke-dasharray:none;stroke-opacity:1"
       d="m 141.35435,883.14514 c 1.44925,1.70522 2.35645,2.86678 2.72161,3.4848 0.36516,0.61797 0.7061,1.29058 1.02278,2.01773 0.31673,0.72715 0.64345,1.7572 0.98018,3.09021 0.33672,1.33301 0.58458,2.72933 0.74353,4.18896 0.15895,1.45963 0.23842,2.64152 0.23842,3.54578 0,0.9042 -0.0455,1.75537 -0.1359,2.5535 -0.0906,0.79807 -0.31878,1.89515 -0.68461,3.29125 -0.36582,1.39605 -0.67261,2.38672 -0.92031,2.97197 -0.24769,0.5852 -0.5762,1.21499 -0.98545,1.88936 -0.40931,0.6743 -0.74392,1.144 -1.00384,1.4092 -0.25991,0.2651 -0.51194,0.4188 -0.75597,0.4609 -0.24403,0.042 -0.42248,-0.063 -0.53527,-0.3164" />
    <path
       inkscape:connector-curvature="0"
       id="path13583"
       style="fill:none;stroke:#202024;stroke-width:4.38341093;stroke-linecap:round;stroke-linejoin:round;stroke-miterlimit:10;stroke-dasharray:none;stroke-opacity:1"
       d="m 133.02725,893.70729 c 0.24592,0 0.44141,0.0689 0.58636,0.2066 0.14495,0.13773 0.3059,0.39159 0.4829,0.76147 0.17694,0.36988 0.38698,1.00212 0.63007,1.89666 0.24309,0.89448 0.43808,1.84228 0.58492,2.8434 0.14684,1.00106 0.19655,1.65929 0.14912,1.97468 -0.0472,0.3154 -0.13929,0.60853 -0.27591,0.87927 -0.13657,0.2708 -0.31251,0.51222 -0.52783,0.72438 -0.21532,0.21215 -0.58436,0.45529 -1.10708,0.72948 -0.52277,0.27419 -0.79741,0.43419 -0.82395,0.4799 -0.0267,0.0455 0.0211,0.0678 0.14328,0.0662" />
    <g
       transform="matrix(0.55537356,0,0,0.55537356,-2371.0537,717.28054)"
       id="g13585">
      <g
         id="g13587">
        <path
           inkscape:connector-curvature="0"
           id="path13589"
           style="fill:none;stroke:#202024;stroke-width:7.89272499;stroke-linecap:round;stroke-linejoin:round;stroke-miterlimit:10;stroke-dasharray:none;stroke-opacity:1"
           d="m 4427.9913,320.22795 c 0.2531,-0.3037 0.4734,-2.6632 0.661,-7.0786 0.1877,-4.4154 0.4054,-7.1177 0.6532,-8.107 0.2479,-0.9894 0.7785,-2.5112 1.5919,-4.5653 0.8134,-2.0543 1.3461,-4.4425 1.598,-7.1649 0.252,-2.7223 0.7125,-5.2163 1.3816,-7.482 0.6692,-2.2657 1.2807,-3.9337 1.8346,-5.0042 0.5539,-1.0705 1.4692,-2.5868 2.7459,-4.5488 1.2768,-1.9619 3.0383,-4.4133 5.2847,-7.3543 2.2463,-2.941 3.9509,-4.8826 5.1135,-5.8248 1.1626,-0.9422 1.9532,-1.4869 2.3718,-1.6343 0.4187,-0.1474 1.159,-0.066 2.221,0.245 1.0621,0.3107 2.3074,0.8158 3.7361,1.5153 1.4288,0.6995 2.55,1.5618 3.364,2.5871 0.814,1.0253 1.8346,2.1769 3.062,3.4549 1.2274,1.278 2.3568,2.6141 3.3882,4.0082 1.0316,1.3941 2.3976,2.7665 4.0982,4.1172 1.7007,1.3507 2.7741,2.3864 3.2203,3.107 0.4463,0.7208 1.0649,2.3584 1.8558,4.9129 0.791,2.5544 1.3332,4.7937 1.6267,6.7179 0.2936,1.9241 0.4499,4.1221 0.469,6.5938 0.019,2.4717 0.1877,6.4344 0.5056,11.888 0.3181,5.4537 0.4263,8.5815 0.3245,9.3837 -0.1018,0.8021 -0.2338,1.3821 -0.3961,1.7401 -0.1622,0.3579 -0.1428,0.5768 0.058,0.6568" />
        <path
           inkscape:connector-curvature="0"
           id="path13591"
           style="fill:none;stroke:#202024;stroke-width:7.89272499;stroke-linecap:round;stroke-linejoin:round;stroke-miterlimit:10;stroke-dasharray:none;stroke-opacity:1"
           d="m 4428.276,322.50555 c -0.5763,0.6013 -1.4462,1.1423 -2.61,1.6229 -1.1636,0.4807 -2.4491,1.2848 -3.8565,2.4125 -1.4073,1.1277 -2.6774,2.4658 -3.8105,4.0144 -1.1329,1.5486 -2.108,2.7694 -2.925,3.6626 -0.8171,0.8931 -1.2329,1.6425 -1.2474,2.2481 -0.014,0.6055 0.1747,1.0872 0.5676,1.445 0.3929,0.3579 1.1413,0.676 2.245,0.9545 1.1039,0.2785 2.2632,0.707 3.4778,1.2857 1.2146,0.5787 2.2181,0.9918 3.0106,1.2394 0.7924,0.2475 3.2038,0.5983 7.2342,1.0524 4.0305,0.454 6.8508,0.6818 8.4611,0.6833 1.6103,10e-4 6.2381,-0.2561 13.8835,-0.7727 7.6454,-0.5165 12.9867,-0.8249 16.0242,-0.925 3.0374,-0.1001 5.923,-0.3168 8.657,-0.6501 2.734,-0.3333 5.7691,-0.4292 9.105,-0.2877 3.336,0.1415 5.1096,0.1354 5.3208,-0.018 0.2112,-0.1535 0.3769,-0.5663 0.497,-1.2384 0.1201,-0.672 0.3235,-1.0542 0.6099,-1.1466 0.2865,-0.092 0.2179,-0.6476 -0.2057,-1.6656 -0.4235,-1.018 -0.9941,-2.2483 -1.7118,-3.6909 -0.7175,-1.4427 -1.4686,-2.5834 -2.2533,-3.422 -0.7845,-0.8387 -2.0895,-2.0057 -3.915,-3.5011" />
        <path
           inkscape:connector-curvature="0"
           id="path13593"
           style="fill:none;stroke:#202024;stroke-width:7.89272499;stroke-linecap:round;stroke-linejoin:round;stroke-miterlimit:10;stroke-dasharray:none;stroke-opacity:1"
           d="m 4450.1971,345.62325 c -0.9629,2.202 -1.5449,3.9027 -1.746,5.1021 -0.201,1.1993 -0.2862,2.3534 -0.2555,3.4624 0.031,1.109 0.1692,2.2915 0.4154,3.5476 0.2462,1.256 0.5217,2.3004 0.8265,3.1331 0.3047,0.8327 0.6505,1.4405 1.0371,1.8234 0.3867,0.3829 0.8902,0.6333 1.5105,0.7513 0.6203,0.1179 1.2586,0.081 1.915,-0.1097 0.6565,-0.191 1.1499,-0.4479 1.4804,-0.7706 0.3305,-0.3226 0.605,-0.7292 0.8236,-1.2197 0.2187,-0.4905 0.6688,-2.2343 1.3501,-5.2314 0.6815,-2.9971 1.0945,-5.0297 1.239,-6.0979 0.1445,-1.0682 0.2181,-1.9239 0.2208,-2.5671 0,-0.6433 -0.074,-1.2981 -0.2293,-1.9644 -0.1556,-0.6663 -0.4165,-1.325 -0.7828,-1.9761 -0.3664,-0.651 -0.8802,-1.274 -1.5416,-1.8688" />
      </g>
      <path
         style="opacity:1;fill:#ffee8d;fill-opacity:1;stroke:none;stroke-width:0.9518472;stroke-linecap:round;stroke-linejoin:round;stroke-miterlimit:4;stroke-dasharray:none;stroke-dashoffset:0;stroke-opacity:1"
         d="m 4454.5059,344.2267 c -4.5705,2.50294 -4.8055,9.64321 -3.5489,14.26954 3.5506,3.89508 4.875,-2.70386 5.1563,-5.35547 0.2142,-2.5998 2.6681,-8.32209 -1.6074,-8.91407 z"
         id="path13595"
         inkscape:connector-curvature="0" />
      <path
         style="opacity:1;fill:#ffee8d;fill-opacity:1;stroke:none;stroke-width:10.76892185;stroke-linecap:round;stroke-linejoin:round;stroke-miterlimit:4;stroke-dasharray:none;stroke-dashoffset:0;stroke-opacity:1"
         d="m 4452.5527,266.02163 c -7.9165,2.69931 -11.0993,11.95998 -14.1543,19.02734 -5.4788,12.73991 -4.865,27.17259 -10.2539,39.85352 -2.1547,3.85527 -9.1748,6.75691 -6.414,11.93359 7.3021,3.3051 16.0522,1.66821 23.9023,2.33984 14.5624,-0.30492 29.7575,0.16987 43.6934,-4.0039 -0.1883,-5.10581 -7.3877,-6.59426 -10.4981,-10.38868 -4.9904,-7.14958 -2.5943,-16.84197 -3.8423,-25.05288 -0.96,-6.88264 1.7098,-15.52514 -5.4519,-19.79403 -5.5359,-4.21508 -9.6269,-12.79738 -16.9812,-13.9148 z"
         id="path13597"
         inkscape:connector-curvature="0" />
      <path
         style="opacity:1;fill:none;fill-opacity:1;stroke:#f5f2e3;stroke-width:5;stroke-linecap:round;stroke-linejoin:round;stroke-miterlimit:4;stroke-dasharray:none;stroke-dashoffset:0;stroke-opacity:1"
         d="m 4455.2051,271.17773 c -0.7118,-0.36161 -1.6513,-1.03164 -2.4512,-0.84375 -8.8921,6.13984 -7.8739,10.47577 -10.8923,20.16848 m -4.846,14.80727 c -2.6494,10.86576 -0.7129,16.67749 -8.7265,25.60824 -1.2893,1.15075 -4.9037,3.72912 -0.7149,3.51367 3.9762,0.40005 9.746,1.5341 12.6758,-0.19141"
         id="path13599"
         inkscape:connector-curvature="0"
         sodipodi:nodetypes="ccccccc" />
      <path
         style="opacity:1;fill:#ffee8d;fill-opacity:1;stroke:#eda14f;stroke-width:5;stroke-linecap:round;stroke-linejoin:round;stroke-miterlimit:4;stroke-dasharray:none;stroke-dashoffset:0;stroke-opacity:1"
         d="m 4452.2402,333.02148 c 8.4637,-0.18097 17.0001,0.017 25.1934,-1.41015 -9.3916,-6.9394 -7.2987,-12.40285 -7.7448,-22.63919 m 0,-10.23047 c -0.5021,-6.60086 0.8065,-12.23839 -6.0091,-16.30808 -2.2453,-1.80403 -4.7435,-4.14113 -6.1934,-6.30468"
         id="path13601"
         inkscape:connector-curvature="0"
         sodipodi:nodetypes="cccccc" />
    </g>
    <path
       d="m 62.645647,912.7307 c -1.449248,-1.7052 -2.35645,-2.86677 -2.721609,-3.48479 -0.365158,-0.61796 -0.706101,-1.29057 -1.022775,-2.01772 -0.31673,-0.72716 -0.643456,-1.75721 -0.980179,-3.09021 -0.336723,-1.33301 -0.584586,-2.72933 -0.743534,-4.18896 -0.158948,-1.45964 -0.238422,-2.64153 -0.238422,-3.54579 0,-0.9042 0.04554,-1.75537 0.1359,-2.55349 0.09058,-0.79808 0.318784,-1.89516 0.684609,-3.29126 0.365824,-1.39604 0.672613,-2.38672 0.920309,-2.97197 0.247697,-0.5852 0.5762,-1.21499 0.985455,-1.88932 0.40931,-0.67434 0.743923,-1.14407 1.003838,-1.40921 0.259915,-0.26513 0.511943,-0.41881 0.755974,-0.46096 0.244031,-0.0422 0.422473,0.0634 0.535269,0.3164"
       style="fill:none;stroke:#202024;stroke-width:4.38341093;stroke-linecap:round;stroke-linejoin:round;stroke-miterlimit:10;stroke-dasharray:none;stroke-opacity:1"
       id="path13603"
       inkscape:connector-curvature="0" />
    <path
       d="m 70.972751,902.16857 c -0.245919,0 -0.441411,-0.0689 -0.586363,-0.2066 -0.144953,-0.13774 -0.3059,-0.3916 -0.482898,-0.76148 -0.176942,-0.36987 -0.386984,-1.00211 -0.630071,-1.89665 -0.243087,-0.89449 -0.438079,-1.84229 -0.584919,-2.8434 -0.146841,-1.00106 -0.196547,-1.65929 -0.149118,-1.97469 0.04721,-0.3154 0.139288,-0.60852 0.275909,-0.87927 0.136567,-0.2708 0.312509,-0.51222 0.527827,-0.72437 0.215319,-0.21215 0.584365,-0.4553 1.107082,-0.72948 0.522773,-0.27419 0.797405,-0.4342 0.823952,-0.4799 0.02666,-0.0455 -0.0211,-0.0678 -0.143286,-0.0663"
       style="fill:none;stroke:#202024;stroke-width:4.38341093;stroke-linecap:round;stroke-linejoin:round;stroke-miterlimit:10;stroke-dasharray:none;stroke-opacity:1"
       id="path13607"
       inkscape:connector-curvature="0" />
    <path
       d="m 133.02725,807.70729 c 0.24592,0 0.44141,0.0689 0.58636,0.2066 0.14495,0.13773 0.3059,0.39159 0.4829,0.76147 0.17694,0.36988 0.38698,1.00212 0.63007,1.89666 0.24309,0.89448 0.43808,1.84228 0.58492,2.8434 0.14684,1.00106 0.19655,1.65929 0.14912,1.97468 -0.0472,0.3154 -0.13929,0.60853 -0.27591,0.87927 -0.13657,0.2708 -0.31251,0.51222 -0.52783,0.72438 -0.21532,0.21215 -0.58436,0.45529 -1.10708,0.72948 -0.52277,0.27419 -0.79741,0.43419 -0.82395,0.4799 -0.0267,0.0455 0.0211,0.0678 0.14328,0.0662"
       style="fill:none;stroke:#202024;stroke-width:4.38341093;stroke-linecap:round;stroke-linejoin:round;stroke-miterlimit:10;stroke-dasharray:none;stroke-opacity:1"
       id="path13630"
       inkscape:connector-curvature="0" />
    <g
       id="g13632"
       transform="matrix(0.55537356,0,0,0.55537356,-2371.0537,631.28054)">
      <g
         id="g13634">
        <path
           d="m 4427.9913,320.22795 c 0.2531,-0.3037 0.4734,-2.6632 0.661,-7.0786 0.1877,-4.4154 0.4054,-7.1177 0.6532,-8.107 0.2479,-0.9894 0.7785,-2.5112 1.5919,-4.5653 0.8134,-2.0543 1.3461,-4.4425 1.598,-7.1649 0.252,-2.7223 0.7125,-5.2163 1.3816,-7.482 0.6692,-2.2657 1.2807,-3.9337 1.8346,-5.0042 0.5539,-1.0705 1.4692,-2.5868 2.7459,-4.5488 1.2768,-1.9619 3.0383,-4.4133 5.2847,-7.3543 2.2463,-2.941 3.9509,-4.8826 5.1135,-5.8248 1.1626,-0.9422 1.9532,-1.4869 2.3718,-1.6343 0.4187,-0.1474 1.159,-0.066 2.221,0.245 1.0621,0.3107 2.3074,0.8158 3.7361,1.5153 1.4288,0.6995 2.55,1.5618 3.364,2.5871 0.814,1.0253 1.8346,2.1769 3.062,3.4549 1.2274,1.278 2.3568,2.6141 3.3882,4.0082 1.0316,1.3941 2.3976,2.7665 4.0982,4.1172 1.7007,1.3507 2.7741,2.3864 3.2203,3.107 0.4463,0.7208 1.0649,2.3584 1.8558,4.9129 0.791,2.5544 1.3332,4.7937 1.6267,6.7179 0.2936,1.9241 0.4499,4.1221 0.469,6.5938 0.019,2.4717 0.1877,6.4344 0.5056,11.888 0.3181,5.4537 0.4263,8.5815 0.3245,9.3837 -0.1018,0.8021 -0.2338,1.3821 -0.3961,1.7401 -0.1622,0.3579 -0.1428,0.5768 0.058,0.6568"
           style="fill:none;stroke:#202024;stroke-width:7.89272499;stroke-linecap:round;stroke-linejoin:round;stroke-miterlimit:10;stroke-dasharray:none;stroke-opacity:1"
           id="path13636"
           inkscape:connector-curvature="0" />
        <path
           d="m 4428.276,322.50555 c -0.5763,0.6013 -1.4462,1.1423 -2.61,1.6229 -1.1636,0.4807 -2.4491,1.2848 -3.8565,2.4125 -1.4073,1.1277 -2.6774,2.4658 -3.8105,4.0144 -1.1329,1.5486 -2.108,2.7694 -2.925,3.6626 -0.8171,0.8931 -1.2329,1.6425 -1.2474,2.2481 -0.014,0.6055 0.1747,1.0872 0.5676,1.445 0.3929,0.3579 1.1413,0.676 2.245,0.9545 1.1039,0.2785 2.2632,0.707 3.4778,1.2857 1.2146,0.5787 2.2181,0.9918 3.0106,1.2394 0.7924,0.2475 3.2038,0.5983 7.2342,1.0524 4.0305,0.454 6.8508,0.6818 8.4611,0.6833 1.6103,10e-4 6.2381,-0.2561 13.8835,-0.7727 7.6454,-0.5165 12.9867,-0.8249 16.0242,-0.925 3.0374,-0.1001 5.923,-0.3168 8.657,-0.6501 2.734,-0.3333 5.7691,-0.4292 9.105,-0.2877 3.336,0.1415 5.1096,0.1354 5.3208,-0.018 0.2112,-0.1535 0.3769,-0.5663 0.497,-1.2384 0.1201,-0.672 0.3235,-1.0542 0.6099,-1.1466 0.2865,-0.092 0.2179,-0.6476 -0.2057,-1.6656 -0.4235,-1.018 -0.9941,-2.2483 -1.7118,-3.6909 -0.7175,-1.4427 -1.4686,-2.5834 -2.2533,-3.422 -0.7845,-0.8387 -2.0895,-2.0057 -3.915,-3.5011"
           style="fill:none;stroke:#202024;stroke-width:7.89272499;stroke-linecap:round;stroke-linejoin:round;stroke-miterlimit:10;stroke-dasharray:none;stroke-opacity:1"
           id="path13638"
           inkscape:connector-curvature="0" />
        <path
           d="m 4450.1971,345.62325 c -0.9629,2.202 -1.5449,3.9027 -1.746,5.1021 -0.201,1.1993 -0.2862,2.3534 -0.2555,3.4624 0.031,1.109 0.1692,2.2915 0.4154,3.5476 0.2462,1.256 0.5217,2.3004 0.8265,3.1331 0.3047,0.8327 0.6505,1.4405 1.0371,1.8234 0.3867,0.3829 0.8902,0.6333 1.5105,0.7513 0.6203,0.1179 1.2586,0.081 1.915,-0.1097 0.6565,-0.191 1.1499,-0.4479 1.4804,-0.7706 0.3305,-0.3226 0.605,-0.7292 0.8236,-1.2197 0.2187,-0.4905 0.6688,-2.2343 1.3501,-5.2314 0.6815,-2.9971 1.0945,-5.0297 1.239,-6.0979 0.1445,-1.0682 0.2181,-1.9239 0.2208,-2.5671 0,-0.6433 -0.074,-1.2981 -0.2293,-1.9644 -0.1556,-0.6663 -0.4165,-1.325 -0.7828,-1.9761 -0.3664,-0.651 -0.8802,-1.274 -1.5416,-1.8688"
           style="fill:none;stroke:#202024;stroke-width:7.89272499;stroke-linecap:round;stroke-linejoin:round;stroke-miterlimit:10;stroke-dasharray:none;stroke-opacity:1"
           id="path13640"
           inkscape:connector-curvature="0" />
      </g>
      <path
         inkscape:connector-curvature="0"
         id="path13642"
         d="m 4454.5059,344.2267 c -4.5705,2.50294 -4.8055,9.64321 -3.5489,14.26954 3.5506,3.89508 4.875,-2.70386 5.1563,-5.35547 0.2142,-2.5998 2.6681,-8.32209 -1.6074,-8.91407 z"
         style="opacity:1;fill:#ffee8d;fill-opacity:1;stroke:none;stroke-width:0.9518472;stroke-linecap:round;stroke-linejoin:round;stroke-miterlimit:4;stroke-dasharray:none;stroke-dashoffset:0;stroke-opacity:1" />
      <path
         inkscape:connector-curvature="0"
         id="path13644"
         d="m 4452.5527,266.02163 c -7.9165,2.69931 -11.0993,11.95998 -14.1543,19.02734 -5.4788,12.73991 -4.865,27.17259 -10.2539,39.85352 -2.1547,3.85527 -9.1748,6.75691 -6.414,11.93359 7.3021,3.3051 16.0522,1.66821 23.9023,2.33984 14.5624,-0.30492 29.7575,0.16987 43.6934,-4.0039 -0.1883,-5.10581 -7.3877,-6.59426 -10.4981,-10.38868 -4.9904,-7.14958 -2.5943,-16.84197 -3.8423,-25.05288 -0.96,-6.88264 1.7098,-15.52514 -5.4519,-19.79403 -5.5359,-4.21508 -9.6269,-12.79738 -16.9812,-13.9148 z"
         style="opacity:1;fill:#ffee8d;fill-opacity:1;stroke:none;stroke-width:10.76892185;stroke-linecap:round;stroke-linejoin:round;stroke-miterlimit:4;stroke-dasharray:none;stroke-dashoffset:0;stroke-opacity:1" />
      <path
         sodipodi:nodetypes="ccccccc"
         inkscape:connector-curvature="0"
         id="path13646"
         d="m 4455.2051,271.17773 c -0.7118,-0.36161 -1.6513,-1.03164 -2.4512,-0.84375 -8.8921,6.13984 -7.8739,10.47577 -10.8923,20.16848 m -4.846,14.80727 c -2.6494,10.86576 -0.7129,16.67749 -8.7265,25.60824 -1.2893,1.15075 -4.9037,3.72912 -0.7149,3.51367 3.9762,0.40005 9.746,1.5341 12.6758,-0.19141"
         style="opacity:1;fill:none;fill-opacity:1;stroke:#f5f2e3;stroke-width:5;stroke-linecap:round;stroke-linejoin:round;stroke-miterlimit:4;stroke-dasharray:none;stroke-dashoffset:0;stroke-opacity:1" />
      <path
         sodipodi:nodetypes="cccccc"
         inkscape:connector-curvature="0"
         id="path13648"
         d="m 4452.2402,333.02148 c 8.4637,-0.18097 17.0001,0.017 25.1934,-1.41015 -9.3916,-6.9394 -7.2987,-12.40285 -7.7448,-22.63919 m 0,-10.23047 c -0.5021,-6.60086 0.8065,-12.23839 -6.0091,-16.30808 -2.2453,-1.80403 -4.7435,-4.14113 -6.1934,-6.30468"
         style="opacity:1;fill:#ffee8d;fill-opacity:1;stroke:#eda14f;stroke-width:5;stroke-linecap:round;stroke-linejoin:round;stroke-miterlimit:4;stroke-dasharray:none;stroke-dashoffset:0;stroke-opacity:1" />
    </g>
    <path
       inkscape:connector-curvature="0"
       id="path13652"
       style="fill:none;stroke:#202024;stroke-width:4.38341093;stroke-linecap:round;stroke-linejoin:round;stroke-miterlimit:10;stroke-dasharray:none;stroke-opacity:1"
       d="m 70.972751,816.16857 c -0.245919,0 -0.441411,-0.0689 -0.586363,-0.2066 -0.144953,-0.13774 -0.3059,-0.3916 -0.482898,-0.76148 -0.176942,-0.36987 -0.386984,-1.00211 -0.630071,-1.89665 -0.243087,-0.89449 -0.438079,-1.84229 -0.584919,-2.8434 -0.146841,-1.00106 -0.196547,-1.65929 -0.149118,-1.97469 0.04721,-0.3154 0.139288,-0.60852 0.275909,-0.87927 0.136567,-0.2708 0.312509,-0.51222 0.527827,-0.72437 0.215319,-0.21215 0.584365,-0.4553 1.107082,-0.72948 0.522773,-0.27419 0.797405,-0.4342 0.823952,-0.4799 0.02666,-0.0455 -0.0211,-0.0678 -0.143286,-0.0663" />
    <g
       transform="matrix(0.54698438,0,0,0.54698438,-2172.1136,627.4543)"
       id="g13672">
      <path
         style="fill:none;stroke:#202024;stroke-width:10;stroke-linecap:round;stroke-linejoin:round;stroke-miterlimit:10;stroke-dasharray:none;stroke-opacity:1"
         d="m 4435.3802,522.23362 c -4.1397,-2.6815 -9.4559,-1.7896 -13.8534,-0.3652 -4.172,4.0852 -3.7082,11.1682 -1.1763,16.0421 2.3538,3.4489 7.639,5.7769 11.5172,3.6666 4.2335,-2.4152 3.8077,-7.9894 3.7192,-12.1875 0.2301,-4.4843 0.5812,-8.9633 0.5507,-13.4719 0.4754,-9.5929 -1.0977,-19.1496 -1.981,-28.6826 -0.3817,-6.857 -3.7589,-13.026 -4.6871,-19.7865 -2.9782,-5.3851 4.533,-2.2107 7.2301,-4.2949 6.0868,-1.894 23.3256,-1.8041 26.5895,-7.9609 3.1319,-4.7535 6.1944,-9.6561 10.1028,-13.8136 2.4728,0.7888 0.9739,7.1943 2.1177,10.0666 2.3903,13.7474 3.3514,27.6844 3.5262,41.625 0.017,5.0776 0.4916,10.1689 0.6041,15.2183 -2.9989,-2.5156 -7.7637,-0.1946 -10.4877,2.4852 -4.0255,4.8842 -3.5682,12.7604 0.789,17.2311 4.9384,1.8032 8.6362,-4.6247 9.8494,-8.7132 1.0901,-3.2675 2.2044,-9.5746 -0.8229,-11.2511"
         id="path13674"
         inkscape:connector-curvature="0"
         sodipodi:nodetypes="cccccccccccccccccc" />
      <path
         style="opacity:1;fill:#202024;fill-opacity:1;stroke:none;stroke-width:3.80738878;stroke-linecap:round;stroke-linejoin:round;stroke-miterlimit:10;stroke-dasharray:none;stroke-dashoffset:0;stroke-opacity:1"
         d="m 4428.9355,523.79897 c -4.5824,-1.06405 -8.3109,2.94537 -7.1543,7.42187 -0.7446,4.8468 6.2318,11.03144 9.834,6.12305 1.072,-4.14256 1.4263,-8.94573 0.3438,-13.01758 -0.9446,-0.58389 -1.9604,-0.5799 -3.0235,-0.52734 z"
         id="path13676"
         inkscape:connector-curvature="0" />
      <path
         inkscape:connector-curvature="0"
         id="path13678"
         d="m 4476.5279,510.09237 c -4.5824,-1.06405 -8.3109,2.94537 -7.1543,7.42187 -0.7446,4.8468 6.2318,11.03144 9.834,6.12305 1.072,-4.14256 1.4263,-8.94573 0.3438,-13.01758 -0.9446,-0.58389 -1.9604,-0.5799 -3.0235,-0.52734 z"
         style="opacity:1;fill:#202024;fill-opacity:1;stroke:none;stroke-width:3.80738878;stroke-linecap:round;stroke-linejoin:round;stroke-miterlimit:10;stroke-dasharray:none;stroke-dashoffset:0;stroke-opacity:1" />
    </g>
    <path
       d="m 302.75989,881.19749 c 1.42735,1.67947 2.32085,2.82348 2.68049,3.43217 0.35965,0.60863 0.69544,1.27108 1.00733,1.98725 0.31195,0.71616 0.63374,1.73066 0.96537,3.04353 0.33164,1.31287 0.57576,2.6881 0.73231,4.12568 0.15654,1.43759 0.23482,2.60162 0.23482,3.49222 0,0.89055 -0.0449,1.72886 -0.13385,2.51493 -0.0892,0.78601 -0.31397,1.86653 -0.67427,3.24154 -0.3603,1.37495 -0.66245,2.35066 -0.90641,2.92707 -0.24395,0.57636 -0.56749,1.19664 -0.97056,1.86079 -0.40313,0.66415 -0.73269,1.12679 -0.98868,1.38792 -0.25599,0.26113 -0.50421,0.41248 -0.74455,0.454 -0.24035,0.0416 -0.4161,-0.0624 -0.52719,-0.31162"
       style="fill:none;stroke:#202024;stroke-width:4.31719732;stroke-linecap:round;stroke-linejoin:round;stroke-miterlimit:10;stroke-dasharray:none;stroke-opacity:1"
       id="path13680"
       inkscape:connector-curvature="0" />
    <path
       d="m 294.55857,891.6001 c 0.2422,0 0.43474,0.0678 0.5775,0.20348 0.14277,0.13565 0.30128,0.38568 0.47561,0.74997 0.17427,0.36429 0.38114,0.98698 0.62055,1.868 0.23942,0.88098 0.43146,1.81446 0.57608,2.80045 0.14463,0.98594 0.19358,1.63423 0.14687,1.94486 -0.0465,0.31063 -0.13718,0.59933 -0.27174,0.86599 -0.13451,0.26671 -0.30779,0.50448 -0.51986,0.71343 -0.21206,0.20895 -0.57553,0.44842 -1.09035,0.71846 -0.51488,0.27005 -0.78536,0.42764 -0.81151,0.47265 -0.0263,0.0448 0.0208,0.0668 0.14112,0.0653"
       style="fill:none;stroke:#202024;stroke-width:4.31719732;stroke-linecap:round;stroke-linejoin:round;stroke-miterlimit:10;stroke-dasharray:none;stroke-opacity:1"
       id="path13682"
       inkscape:connector-curvature="0" />
    <path
       inkscape:connector-curvature="0"
       id="path13684"
       style="fill:none;stroke:#202024;stroke-width:4.31719732;stroke-linecap:round;stroke-linejoin:round;stroke-miterlimit:10;stroke-dasharray:none;stroke-opacity:1"
       d="m 225.24011,910.33617 c -1.42735,-1.67946 -2.32085,-2.82348 -2.68049,-3.43217 -0.35965,-0.60862 -0.69544,-1.27108 -1.00733,-1.98724 -0.31195,-0.71617 -0.63374,-1.73066 -0.96537,-3.04353 -0.33164,-1.31288 -0.57576,-2.6881 -0.73231,-4.12569 -0.15654,-1.43758 -0.23482,-2.60162 -0.23482,-3.49222 0,-0.89055 0.0449,-1.72885 0.13385,-2.51493 0.0892,-0.78601 0.31397,-1.86653 0.67427,-3.24153 0.3603,-1.37496 0.66245,-2.35067 0.90641,-2.92708 0.24395,-0.57636 0.56749,-1.19664 0.97056,-1.86079 0.40313,-0.66415 0.73269,-1.12679 0.98868,-1.38792 0.25599,-0.26113 0.50421,-0.41248 0.74455,-0.45399 0.24035,-0.0416 0.4161,0.0624 0.52719,0.31161" />
    <path
       inkscape:connector-curvature="0"
       id="path13686"
       style="fill:none;stroke:#202024;stroke-width:4.31719732;stroke-linecap:round;stroke-linejoin:round;stroke-miterlimit:10;stroke-dasharray:none;stroke-opacity:1"
       d="m 233.44143,899.93356 c -0.2422,0 -0.43474,-0.0678 -0.5775,-0.20347 -0.14277,-0.13566 -0.30128,-0.38568 -0.47561,-0.74997 -0.17427,-0.3643 -0.38114,-0.98698 -0.62055,-1.86801 -0.23942,-0.88097 -0.43146,-1.81446 -0.57608,-2.80045 -0.14463,-0.98594 -0.19358,-1.63423 -0.14687,-1.94486 0.0465,-0.31063 0.13718,-0.59933 0.27174,-0.86598 0.13451,-0.26671 0.30779,-0.50449 0.51986,-0.71344 0.21206,-0.20894 0.57553,-0.44841 1.09035,-0.71846 0.51488,-0.27005 0.78536,-0.42763 0.81151,-0.47265 0.0263,-0.0448 -0.0208,-0.0668 -0.14112,-0.0652" />
    <g
       id="g13688"
       transform="matrix(0.54698438,0,0,0.54698438,-2172.1136,537.4543)">
      <path
         sodipodi:nodetypes="cccccccccccccccccc"
         inkscape:connector-curvature="0"
         id="path13690"
         d="m 4435.3802,522.23362 c -4.1397,-2.6815 -9.4559,-1.7896 -13.8534,-0.3652 -4.172,4.0852 -3.7082,11.1682 -1.1763,16.0421 2.3538,3.4489 7.639,5.7769 11.5172,3.6666 4.2335,-2.4152 3.8077,-7.9894 3.7192,-12.1875 0.2301,-4.4843 0.5812,-8.9633 0.5507,-13.4719 0.4754,-9.5929 -1.0977,-19.1496 -1.981,-28.6826 -0.3817,-6.857 -3.7589,-13.026 -4.6871,-19.7865 -2.9782,-5.3851 4.533,-2.2107 7.2301,-4.2949 6.0868,-1.894 23.3256,-1.8041 26.5895,-7.9609 3.1319,-4.7535 6.1944,-9.6561 10.1028,-13.8136 2.4728,0.7888 0.9739,7.1943 2.1177,10.0666 2.3903,13.7474 3.3514,27.6844 3.5262,41.625 0.017,5.0776 0.4916,10.1689 0.6041,15.2183 -2.9989,-2.5156 -7.7637,-0.1946 -10.4877,2.4852 -4.0255,4.8842 -3.5682,12.7604 0.789,17.2311 4.9384,1.8032 8.6362,-4.6247 9.8494,-8.7132 1.0901,-3.2675 2.2044,-9.5746 -0.8229,-11.2511"
         style="fill:none;stroke:#202024;stroke-width:10;stroke-linecap:round;stroke-linejoin:round;stroke-miterlimit:10;stroke-dasharray:none;stroke-opacity:1" />
      <path
         inkscape:connector-curvature="0"
         id="path13692"
         d="m 4428.9355,523.79897 c -4.5824,-1.06405 -8.3109,2.94537 -7.1543,7.42187 -0.7446,4.8468 6.2318,11.03144 9.834,6.12305 1.072,-4.14256 1.4263,-8.94573 0.3438,-13.01758 -0.9446,-0.58389 -1.9604,-0.5799 -3.0235,-0.52734 z"
         style="opacity:1;fill:#202024;fill-opacity:1;stroke:none;stroke-width:3.80738878;stroke-linecap:round;stroke-linejoin:round;stroke-miterlimit:10;stroke-dasharray:none;stroke-dashoffset:0;stroke-opacity:1" />
      <path
         style="opacity:1;fill:#202024;fill-opacity:1;stroke:none;stroke-width:3.80738878;stroke-linecap:round;stroke-linejoin:round;stroke-miterlimit:10;stroke-dasharray:none;stroke-dashoffset:0;stroke-opacity:1"
         d="m 4476.5279,510.09237 c -4.5824,-1.06405 -8.3109,2.94537 -7.1543,7.42187 -0.7446,4.8468 6.2318,11.03144 9.834,6.12305 1.072,-4.14256 1.4263,-8.94573 0.3438,-13.01758 -0.9446,-0.58389 -1.9604,-0.5799 -3.0235,-0.52734 z"
         id="path13694"
         inkscape:connector-curvature="0" />
    </g>
    <path
       inkscape:connector-curvature="0"
       id="path13696"
       style="fill:none;stroke:#202024;stroke-width:4.31719732;stroke-linecap:round;stroke-linejoin:round;stroke-miterlimit:10;stroke-dasharray:none;stroke-opacity:1"
       d="m 294.55857,801.6001 c 0.2422,0 0.43474,0.0678 0.5775,0.20348 0.14277,0.13565 0.30128,0.38568 0.47561,0.74997 0.17427,0.36429 0.38114,0.98698 0.62055,1.868 0.23942,0.88098 0.43146,1.81446 0.57608,2.80045 0.14463,0.98594 0.19358,1.63423 0.14687,1.94486 -0.0465,0.31063 -0.13718,0.59933 -0.27174,0.86599 -0.13451,0.26671 -0.30779,0.50448 -0.51986,0.71343 -0.21206,0.20895 -0.57553,0.44842 -1.09035,0.71846 -0.51488,0.27005 -0.78536,0.42764 -0.81151,0.47265 -0.0263,0.0448 0.0208,0.0668 0.14112,0.0653" />
    <path
       d="m 233.44143,809.93356 c -0.2422,0 -0.43474,-0.0678 -0.5775,-0.20347 -0.14277,-0.13566 -0.30128,-0.38568 -0.47561,-0.74997 -0.17427,-0.3643 -0.38114,-0.98698 -0.62055,-1.86801 -0.23942,-0.88097 -0.43146,-1.81446 -0.57608,-2.80045 -0.14463,-0.98594 -0.19358,-1.63423 -0.14687,-1.94486 0.0465,-0.31063 0.13718,-0.59933 0.27174,-0.86598 0.13451,-0.26671 0.30779,-0.50449 0.51986,-0.71344 0.21206,-0.20894 0.57553,-0.44841 1.09035,-0.71846 0.51488,-0.27005 0.78536,-0.42763 0.81151,-0.47265 0.0263,-0.0448 -0.0208,-0.0668 -0.14112,-0.0652"
       style="fill:none;stroke:#202024;stroke-width:4.31719732;stroke-linecap:round;stroke-linejoin:round;stroke-miterlimit:10;stroke-dasharray:none;stroke-opacity:1"
       id="path13698"
       inkscape:connector-curvature="0" />
  </g>
</svg>
