<?xml version="1.0" encoding="UTF-8" standalone="no"?>
<!-- Created with Inkscape (http://www.inkscape.org/) -->

<svg
   xmlns:dc="http://purl.org/dc/elements/1.1/"
   xmlns:cc="http://creativecommons.org/ns#"
   xmlns:rdf="http://www.w3.org/1999/02/22-rdf-syntax-ns#"
   xmlns:svg="http://www.w3.org/2000/svg"
   xmlns="http://www.w3.org/2000/svg"
   xmlns:sodipodi="http://sodipodi.sourceforge.net/DTD/sodipodi-0.dtd"
   xmlns:inkscape="http://www.inkscape.org/namespaces/inkscape"
   width="281.10815"
   height="355.84335"
   viewBox="0 0 281.10816 355.84335"
   id="svg7569"
   version="1.1"
   inkscape:version="0.91 r13725"
   sodipodi:docname="card.svg">
  <defs
     id="defs7571" />
  <sodipodi:namedview
     id="base"
     pagecolor="#ffffff"
     bordercolor="#666666"
     borderopacity="1.0"
     inkscape:pageopacity="0.0"
     inkscape:pageshadow="2"
     inkscape:zoom="1"
     inkscape:cx="167.54754"
     inkscape:cy="185.33014"
     inkscape:document-units="px"
     inkscape:current-layer="layer1"
     showgrid="false"
     borderlayer="true"
     inkscape:showpageshadow="false"
     fit-margin-top="0"
     fit-margin-left="0"
     fit-margin-right="0"
     fit-margin-bottom="0"
     inkscape:window-width="1920"
     inkscape:window-height="1080"
     inkscape:window-x="0"
     inkscape:window-y="0"
     inkscape:window-maximized="1"
     units="px" />
  <metadata
     id="metadata7574">
    <rdf:RDF>
      <cc:Work
         rdf:about="">
        <dc:format>image/svg+xml</dc:format>
        <dc:type
           rdf:resource="http://purl.org/dc/dcmitype/StillImage" />
        <dc:title></dc:title>
      </cc:Work>
    </rdf:RDF>
  </metadata>
  <g
     inkscape:label="Layer 1"
     inkscape:groupmode="layer"
     id="layer1"
     transform="translate(1.5974561e-6,-696.51883)">
    <g
       id="g8834"
       transform="matrix(-1.3894016,0,0,-1.3861374,4568.1,674.19475)">
      <path
         style="opacity:1;fill:#cc3a3a;fill-opacity:1;stroke:none;stroke-width:5.85699987;stroke-linecap:round;stroke-linejoin:round;stroke-miterlimit:4;stroke-dasharray:none;stroke-dashoffset:0;stroke-opacity:1"
         d="m 3093.2383,-93.042969 c -7.6145,0.290707 -6.2564,9.49831 -6.586,14.710938 0.9073,19.064573 -0.7129,38.630458 3.3189,57.317208 5.6313,5.069924 14.1391,1.663309 20.9428,2.859679 14.1855,-0.323045 28.8568,0.944465 42.6915,-2.313606 8.97,-5.268223 5.1752,-18.745322 -1.8854,-23.873826 -6.7251,-7.165999 -10.8579,-16.53529 -19.3032,-22.358094 -12.4493,-9.568453 -21.3632,-26.72199 -39.1786,-26.342299 z"
         id="path8671"
         inkscape:connector-curvature="0" />
      <path
         style="opacity:1;fill:#f5f2e3;fill-opacity:1;stroke:none;stroke-width:5.85699987;stroke-linecap:round;stroke-linejoin:round;stroke-miterlimit:4;stroke-dasharray:none;stroke-dashoffset:0;stroke-opacity:1"
         d="m 3173.6088,-249.12721 c -26.3439,1.2539 -52.7085,1.5287 -79.0996,1.5488 -4.3942,3.6016 -0.9627,11.6322 -2.1581,16.9776 -0.608,44.7844 -0.9242,89.5867 0.5643,134.358296 3.8033,4.8511 12.6553,0.5235 17.3086,5.2578 9.3284,10.4836 19.4572,20.1938 29.8223,29.6446 5.8261,6.4592 10.1371,14.1491 16.5976,20.1152 4.697,4.6396 2.7393,11.9125 5.3848,17.2559 38.9559,1.4048 78.1308,1.0847 117.1758,1.1035 4.4037,-3.5965 0.9001,-11.6412 2.0658,-16.9901 0.2416,-51.8262 0.4816,-103.652396 0.7213,-155.478696 -2.9265,-4.2061 -10.0868,-1.8081 -14.8185,-2.9957 -8.552,-1.409 -18.273,1.6666 -26.0604,-2.8715 -5.8733,-7.0837 -9.191,-16.0908 -14.5085,-23.6471 -5.114,-6.8726 -8.0066,-15.9908 -15.0072,-21.1947 -12.1297,-3.8375 -25.4035,-2.8983 -37.9882,-3.0839 z"
         id="path8673"
         inkscape:connector-curvature="0" />
      <path
         style="opacity:1;fill:#cc3a3a;fill-opacity:1;stroke:none;stroke-width:5.85699987;stroke-linecap:round;stroke-linejoin:round;stroke-miterlimit:4;stroke-dasharray:none;stroke-dashoffset:0;stroke-opacity:1"
         d="m 3106.8301,-270.92969 c -5.2359,0.95946 -12.4918,-1.61568 -16.3184,2.78125 -2.1915,4.97651 -4.0093,11.81812 -0.7851,16.68164 5.9871,5.40386 14.8563,1.3299 22.0117,2.41211 32.747,-0.42369 65.6632,-2.11153 98.3066,-0.0566 8.4397,5.0027 11.4187,15.19477 17.2832,22.58789 5.6344,8.82358 9.2576,19.79887 17.6719,26.34961 12.0059,0.57941 24.5573,2.68169 36.3131,0.22649 6.1235,-8.19547 2.689,-19.47195 4.1426,-29.02702 -0.021,-12.26607 2.2335,-25.35293 -1.6217,-37.26197 -7.9939,-6.9694 -19.2498,-2.9386 -28.785,-4.37143 -49.4052,-0.59361 -98.8159,-0.007 -148.2189,-0.32193 z"
         id="path8675"
         inkscape:connector-curvature="0" />
      <path
         style="fill:none;stroke:#202024;stroke-width:5.6873498;stroke-linecap:round;stroke-linejoin:round;stroke-miterlimit:10;stroke-dasharray:none;stroke-opacity:1"
         d="m 3089.8176,-32.878414 c -2.8046,-24.033291 -0.7535,-48.343292 -0.6818,-72.485896 -0.1084,-15.456 0.6755,-30.89844 -0.3052,-46.34348 -0.2861,-13.38659 0.8612,-26.73338 0.6376,-40.12402 -0.6805,-14.59597 1.2348,-29.20034 -0.4612,-43.77494 -0.1191,-9.85483 0.3841,-19.75957 0.7739,-29.57136 4.9457,-9.32371 17.3188,-1.61282 25.5796,-4.65875 10.5975,-0.32461 21.2257,0.9773 31.8205,-0.05 13.5171,2.06775 27.3011,0.47377 40.9357,1.60492 l 1.6408,0.006 1.2524,-0.06"
         id="path8679"
         inkscape:connector-curvature="0" />
      <path
         style="fill:none;stroke:#202024;stroke-width:5.6873498;stroke-linecap:round;stroke-linejoin:round;stroke-miterlimit:10;stroke-dasharray:none;stroke-opacity:1"
         d="m 3088.8412,-39.597414 c 0.08,3.916146 0.1535,7.913154 0.143,11.8649 -0.8495,4.294025 2.9718,8.220841 7.251,7.750677 6.3311,0.325097 12.6521,-0.566019 18.9958,-0.284433 9.7485,-0.139411 19.5118,0.839732 29.245,0.232156 4.6243,-0.160879 9.2903,0.436092 13.8939,-0.437995 10.2532,-1.371804 20.5972,-0.183908 30.8742,0.0403 4.08,-0.162565 8.1664,-0.1039 12.2489,-0.1203"
         id="path8681"
         inkscape:connector-curvature="0" />
      <path
         style="fill:none;stroke:#202024;stroke-width:5.6873498;stroke-linecap:round;stroke-linejoin:round;stroke-miterlimit:10;stroke-dasharray:none;stroke-opacity:1"
         d="m 3090.8849,-250.71116 c 9.9543,-0.009 25.3966,-0.29471 35.3685,0.0507 7.106,0.0891 14.2974,0.89877 21.3998,0.0123 11.0347,-0.36267 22.0361,-1.71909 33.0661,-1.6462 7.4978,-0.2715 15.035,1.13879 22.5525,1.63642 8.9212,-2.48771 13.6393,4.51977 17.7194,11.07927 5.4016,8.10389 9.2585,17.13255 15.0309,25.0114 3.3213,5.26946 5.3856,14.70724 13.5027,13.33955 6.3849,1.43016 12.6918,-1.10455 19.1414,0.0878 4.9969,-0.0576 10.259,2.54016 15.0257,0.062"
         id="path8683"
         inkscape:connector-curvature="0"
         sodipodi:nodetypes="cccccccccc" />
      <path
         style="fill:none;stroke:#202024;stroke-width:5.6873498;stroke-linecap:round;stroke-linejoin:round;stroke-miterlimit:10;stroke-dasharray:none;stroke-opacity:1"
         d="m 3094.2778,-91.982314 c 3.2563,0.876501 7.1752,0.94786 10.5831,0.838548 4.2103,-1.855785 4.835,4.318909 7.5167,6.279721 14.4115,11.753108 26.1338,26.796966 38.1124,38.797828 2.4196,3.007241 5.7915,4.705094 7.2849,8.656587 2.1933,5.157538 0.1112,10.841478 0.2621,16.279116 0.1474,0.76246 0.5087,1.462313 0.8621,2.1456"
         id="path8685"
         inkscape:connector-curvature="0"
         sodipodi:nodetypes="ccccccc" />
      <path
         style="fill:none;stroke:#202024;stroke-width:5.6873498;stroke-linecap:round;stroke-linejoin:round;stroke-miterlimit:10;stroke-dasharray:none;stroke-opacity:1"
         d="m 3284.4825,-39.597414 c -0.1939,4.878438 -0.01,9.866696 -0.301,14.765459 -1.3493,5.664011 -8.1048,5.003349 -12.6,4.935607 -13.0182,-1.022836 -26.0676,0.209627 -39.0948,0.143448 -14.472,-0.444258 -28.9536,-2.249059 -43.4316,-0.798023 -10.5691,0.320257 -21.2059,-0.527867 -31.7453,0.556609"
         id="path8687"
         inkscape:connector-curvature="0"
         sodipodi:nodetypes="cccccc" />
      <path
         style="fill:none;stroke:#202024;stroke-width:5.6873498;stroke-linecap:round;stroke-linejoin:round;stroke-miterlimit:10;stroke-dasharray:none;stroke-opacity:1"
         d="m 3283.4948,-32.878414 c 2.6267,-22.921112 1.0179,-46.117067 0.6575,-69.146306 0.2922,-16.14682 -0.7516,-32.28275 0.3009,-48.41667 0.4871,-13.06298 -0.8657,-26.08182 -0.582,-39.14526 0.7207,-14.91667 -1.3029,-29.8399 0.3788,-44.73298 0.2933,-10.28263 -0.354,-20.61822 -0.7185,-30.85848 -4.9457,-9.32371 -17.3188,-1.61282 -25.5796,-4.65875 -10.5976,-0.32461 -21.2258,0.9773 -31.8206,-0.05 -3.2769,-0.10255 -32.7,1.26992 -35.9542,1.09966"
         id="path8689"
         inkscape:connector-curvature="0"
         sodipodi:nodetypes="ccccccccc" />
    </g>
  </g>
</svg>
