<?xml version="1.0" encoding="UTF-8" standalone="no"?>
<!-- Created with Inkscape (http://www.inkscape.org/) -->

<svg
   xmlns:dc="http://purl.org/dc/elements/1.1/"
   xmlns:cc="http://creativecommons.org/ns#"
   xmlns:rdf="http://www.w3.org/1999/02/22-rdf-syntax-ns#"
   xmlns:svg="http://www.w3.org/2000/svg"
   xmlns="http://www.w3.org/2000/svg"
   xmlns:sodipodi="http://sodipodi.sourceforge.net/DTD/sodipodi-0.dtd"
   xmlns:inkscape="http://www.inkscape.org/namespaces/inkscape"
   width="512"
   height="512"
   viewBox="0 0 512.00001 512.00001"
   id="svg8839"
   version="1.1"
   inkscape:version="0.91 r13725"
   sodipodi:docname="hud.svg">
  <defs
     id="defs8841" />
  <sodipodi:namedview
     id="base"
     pagecolor="#ffffff"
     bordercolor="#666666"
     borderopacity="1.0"
     inkscape:pageopacity="0.0"
     inkscape:pageshadow="2"
     inkscape:zoom="0.7"
     inkscape:cx="-43.53287"
     inkscape:cy="368.67763"
     inkscape:document-units="px"
     inkscape:current-layer="layer1"
     showgrid="true"
     borderlayer="true"
     inkscape:showpageshadow="false"
     units="px"
     inkscape:window-width="1920"
     inkscape:window-height="1080"
     inkscape:window-x="0"
     inkscape:window-y="0"
     inkscape:window-maximized="1">
    <inkscape:grid
       type="xygrid"
       id="grid9387"
       empspacing="128" />
  </sodipodi:namedview>
  <metadata
     id="metadata8844">
    <rdf:RDF>
      <cc:Work
         rdf:about="">
        <dc:format>image/svg+xml</dc:format>
        <dc:type
           rdf:resource="http://purl.org/dc/dcmitype/StillImage" />
        <dc:title></dc:title>
      </cc:Work>
    </rdf:RDF>
  </metadata>
  <g
     inkscape:label="Layer 1"
     inkscape:groupmode="layer"
     id="layer1"
     transform="translate(0,-540.36216)">
    <g
       id="g8218"
       transform="matrix(0.71649924,0,0,0.71685236,-1450.9656,697.83528)">
      <path
         inkscape:connector-curvature="0"
         id="path8197"
         d="m 2062.8398,-197.83775 c -9.2268,-0.21846 -19.0373,4.47797 -21.7207,13.91016 -7.2334,22.02595 1.8646,45.35165 12.6485,64.54297 12.1973,19.19791 29.3578,34.54424 43.5114,52.23466 3.557,2.98712 6.5417,8.93943 11.6976,8.78877 12.2107,-6.53389 21.8252,-17.05117 33.7817,-24.09498 16.7975,-9.88408 32.3652,-23.70858 38.6064,-42.74886 4.7956,-15.5939 12.0092,-31.59557 10.1099,-48.25186 -2.0895,-10.64313 -11.1512,-21.2055 -22.8476,-20.11914 -11.1953,-1.01222 -22.1858,3.0886 -30.4397,10.6215 -8.9693,6.97778 -17.2545,15.69884 -26.8201,21.45077 0.4993,-2.76442 0.3919,-5.52469 -2.1504,-7.53711 -11.8344,-13.77996 -26.8772,-28.8796 -46.377,-28.79688 z"
         style="opacity:1;fill:#cc3a3a;fill-opacity:1;stroke:none;stroke-width:1;stroke-linecap:round;stroke-linejoin:round;stroke-miterlimit:4;stroke-dasharray:3, 3;stroke-dashoffset:0;stroke-opacity:1" />
      <path
         sodipodi:nodetypes="cccccccc"
         inkscape:connector-curvature="0"
         id="path8205"
         d="m 2146.2309,-168.84412 c 23.2209,-7.35245 16.1858,-2.24517 33.6988,-11.26721 -7.4542,-8.80066 -21.3046,-6.44855 -30.2266,-1.28515 -13.8245,7.69418 -22.709,22.9901 -38.3281,27.55273 m -8.832,-11.03125 c -10.7821,-11.51373 -23.3616,-25.23302 -40.4707,-25.06445 -10.7543,-0.7649 -16.4799,10.97384 -15.3321,20.3125 22.7927,27.94748 -5.9699,2.04347 17.2511,-5.30899"
         style="opacity:1;fill:#f7c1bb;fill-opacity:1;stroke:none;stroke-width:1;stroke-linecap:round;stroke-linejoin:round;stroke-miterlimit:4;stroke-dasharray:3, 3;stroke-dashoffset:0;stroke-opacity:1" />
      <path
         sodipodi:nodetypes="ccccccc"
         inkscape:connector-curvature="0"
         id="path8215"
         d="m 2078.4334,-84.380235 c 3.8044,3.078421 23.7758,32.594356 29.5515,29.382296 12.4787,-7.294905 25.1715,-22.436058 37.9065,-29.357984 15.7797,-9.747145 30.0823,-23.620917 35.8162,-41.692417 3.4978,-8.51992 16.1989,-38.02923 8.946,-59.22522 -6.7601,57.6202 -31.7316,80.4562 -54.8582,97.290515 -11.8748,8.554966 -22.1191,27.517936 -57.362,3.60281 z"
         style="opacity:1;fill:#923f28;fill-opacity:1;stroke:none;stroke-width:1;stroke-linecap:round;stroke-linejoin:round;stroke-miterlimit:4;stroke-dasharray:3, 3;stroke-dashoffset:0;stroke-opacity:1" />
      <g
         transform="matrix(1.4882909,0,0,1.4919439,-8548.7434,-3085.6154)"
         style="stroke:#202024;stroke-width:0.60207808;stroke-opacity:1"
         id="g7950">
        <path
           sodipodi:nodetypes="ccccccccccccc"
           inkscape:connector-curvature="0"
           id="path7932"
           d="m 7165.2741,1954.6277 c -8.1464,-5.3022 -12.9272,-15.0914 -22.5067,-18.4943 -7.6274,-3.0391 -17.0677,-3.8997 -24.3757,0.3218 -4.944,4.9566 -6.9475,12.4068 -7.4778,19.2287 0.3018,10.8274 4.8487,21.0648 9.3534,30.7281 8.2797,14.9628 22.0577,25.6078 32.3079,39.0473 5.7217,11.7755 15.5431,2.2793 21.5636,-3.6255 11.6942,-9.051 26.8795,-14.9268 34.4004,-28.3731 4.8532,-12.0303 9.4186,-25.2027 10.615,-38.0312 0.1955,-6.2862 -4.3819,-13.4655 -9.1452,-17.9566 -6.17,-2.0796 -12.7889,-0.3956 -19.125,-0.4281 -8.0353,1.9836 -13.1889,9.1731 -19.8566,13.5774 -2.7029,2.2494 -5.2756,4.6935 -7.3666,7.534"
           style="fill:none;stroke:#202024;stroke-width:4.75203657;stroke-linecap:round;stroke-linejoin:round;stroke-miterlimit:10;stroke-dasharray:none;stroke-opacity:1" />
      </g>
    </g>
    <g
       transform="matrix(0.56636617,0,0,0.56675739,-4593.666,-70.346185)"
       id="g8121">
      <path
         style="opacity:1;fill:#923f28;fill-opacity:1;stroke:none;stroke-width:1;stroke-linecap:round;stroke-linejoin:round;stroke-miterlimit:4;stroke-dasharray:3, 3;stroke-dashoffset:0;stroke-opacity:1"
         d="m 8221.2188,1601.7189 c -3.906,-0.01 -1.5091,6.8144 -5.9571,5.0254 -2.8193,-1.0083 -7.6144,-5.4871 -9.2812,-0.5996 -0.048,4.469 0.877,11.1854 -5.2989,12.0097 -3.3236,1.1769 -11.1231,-1.8373 -9.7578,3.6387 12.6518,11.6957 18.2557,28.2601 25.2532,43.5687 7.0974,16.8916 6.6695,37.1991 19.4653,51.5188 7.5945,8.7758 14.1437,20.8693 26.3011,23.6625 11.2581,2.8497 21.786,-3.8558 29.4511,-11.4649 8.2176,-7.4506 17.6109,-15.6079 18.5176,-27.498 2.7183,-19.2234 0.3765,-41.8685 -15.2988,-55.2637 -13.9783,-12.6878 -32.3061,-18.1845 -47.5899,-28.955 -8.6167,-4.9846 -16.5352,-12.1725 -25.8046,-15.6426 z"
         id="path8123"
         inkscape:connector-curvature="0" />
      <path
         style="opacity:1;fill:#ffee8d;fill-opacity:1;stroke:none;stroke-width:1;stroke-linecap:round;stroke-linejoin:round;stroke-miterlimit:4;stroke-dasharray:3, 3;stroke-dashoffset:0;stroke-opacity:1"
         d="m 8187.041,1543.84 c -8.4682,0.293 -20.9512,2.1829 -22.8359,12.1914 -1.1383,5.3988 5.0087,8.9233 4.75,13.8808 -3.5714,2.9136 -6.9378,-0.7045 -9.834,-2.5254 -7.8946,-2.2048 -15.8349,3.8253 -20.3828,9.7559 -3.0194,6.5135 4.3663,15.6099 11.5058,12.5469 9.8326,-1.2878 19.2694,3.2201 26.4574,9.6302 4.6575,3.3414 10.3627,6.1423 12.4801,11.6842 2.273,2.6995 9.4754,3.5293 8.3789,-1.6504 -1.4524,-3.1483 -4.6475,-9.2908 -0.098,-11.2695 3.4662,0.8055 6.7032,-2.8525 3.543,-5.6191 -6.7154,-9.2597 -16.5032,-20.3099 -11.5723,-32.5977 0.9492,-4.7178 6.4423,-11.481 1.5684,-15.4668 -1.2235,-0.6022 -2.6296,-0.5944 -3.961,-0.5605 z"
         id="path8125"
         inkscape:connector-curvature="0" />
      <g
         transform="translate(180.91788,1934.0983)"
         id="g8127"
         style="stroke:#202024;stroke-width:1.13487601;stroke-opacity:1">
        <path
           style="fill:none;stroke:#202024;stroke-width:8.9572649;stroke-linecap:round;stroke-linejoin:round;stroke-miterlimit:10;stroke-dasharray:none;stroke-opacity:1"
           d="m 8030.6155,-342.51985 c 13.3206,9.09207 28.0813,16.22698 40.9479,26.12698 7.5688,6.987 17.4157,9.6005 26.3834,14.09325 12.6813,6.06912 23.3539,15.86944 29.7649,28.44922 4.425,9.48387 4.3436,20.37576 5.5913,30.61263 -1.1606,9.55719 -1.8756,20.22384 -8.05,28.06789 -8.3787,8.02705 -16.0832,17.49192 -26.6227,22.73017 -12.087,4.80329 -27.7582,2.18847 -35.2103,-9.20998 -8.5931,-11.98083 -20.9049,-22.58976 -22.9674,-37.97282 -2.3934,-14.26762 -5.8033,-28.64523 -13.885,-40.88207 -2.6834,-9.63355 -6.934,-18.68766 -14.5532,-25.49586 -6.7572,-4.00632 -13.2243,-19.20986 -0.036,-12.37671 6.9858,3.18552 16.5603,-3.02265 6.9042,-8.37368 -2.9029,-3.96271 -4.2182,-10.86598 2.1072,-4.84904 5.7597,4.30333 -2.6001,-8.72213 6.0933,-3.4809 3.0192,1.18818 5.4403,3.44118 7.7792,5.61872"
           id="path8129"
           inkscape:connector-curvature="0" />
        <path
           style="fill:none;stroke:#202024;stroke-width:8.9572649;stroke-linecap:round;stroke-linejoin:round;stroke-miterlimit:10;stroke-dasharray:none;stroke-opacity:1"
           d="m 8029.3002,-336.59 c -7.9473,-9.80192 -20.8149,-18.72466 -19.7636,-32.87253 1.365,-8.22778 12.8248,-19.46921 -0.8692,-23.49271 -9.464,-2.38558 -22.2392,2.49982 -27.5511,11.16027 -4.4998,5.00613 3.8596,17.50278 3.3711,16.64478"
           id="path8131"
           inkscape:connector-curvature="0" />
        <path
           style="fill:none;stroke:#202024;stroke-width:8.9572649;stroke-linecap:round;stroke-linejoin:round;stroke-miterlimit:10;stroke-dasharray:none;stroke-opacity:1"
           d="m 7983.9462,-365.29967 c 0.5396,-0.3089 1.0791,-0.61781 1.6187,-0.92671"
           id="path8133"
           inkscape:connector-curvature="0" />
        <path
           style="fill:none;stroke:#202024;stroke-width:8.9572649;stroke-linecap:round;stroke-linejoin:round;stroke-miterlimit:10;stroke-dasharray:none;stroke-opacity:1"
           d="m 7985.7676,-365.04465 c -7.3365,-7.93611 -18.9939,-5.29321 -25.907,1.67094 -9.9356,6.04939 -5.5309,20.29562 5.0659,22.18916 8.479,-1.49037 18.7679,-1.41205 25.0551,5.40476 4.5318,2.71081 8.4243,9.2727 13.7699,9.27968"
           id="path8135"
           inkscape:connector-curvature="0" />
      </g>
      <path
         inkscape:connector-curvature="0"
         id="path8137"
         d="m 8221.2188,1601.7189 c -3.906,-0.01 -1.5091,6.8144 -5.9571,5.0254 -2.8193,-1.0083 -7.6144,-5.4871 -9.2812,-0.5996 42.6495,32.4241 97.0918,27.5723 85.414,122.9335 8.2176,-7.4506 17.6109,-15.6079 18.5176,-27.498 2.7183,-19.2234 0.3765,-41.8685 -15.2988,-55.2637 -13.9783,-12.6878 -32.3061,-18.1845 -47.5899,-28.955 -8.6167,-4.9846 -16.5352,-12.1725 -25.8046,-15.6426 z"
         style="opacity:1;fill:#cc3a3a;fill-opacity:1;stroke:none;stroke-width:1;stroke-linecap:round;stroke-linejoin:round;stroke-miterlimit:4;stroke-dasharray:3, 3;stroke-dashoffset:0;stroke-opacity:1"
         sodipodi:nodetypes="cccccccc" />
    </g>
    <g
       transform="matrix(0.64297735,0,0,0.64297735,-1463.5554,1209.5787)"
       id="g8366">
      <path
         inkscape:connector-curvature="0"
         id="path8225"
         d="m 2368.151,-227.17578 c -16.4307,0.67643 -28.9798,13.2753 -37.7554,25.16039 -15.1386,21.71063 -20.3277,48.37217 -18.2199,73.94836 0.6035,13.17502 -0.3964,26.95616 4.0177,39.594374 6.3966,10.556769 18.2556,17.860238 30.4033,21.289062 6.5078,1.328917 8.2718,-5.853459 8.5856,-10.431708 1.8322,-11.388783 3.4202,-23.224128 2.3482,-34.605398 -8.7732,-9.20036 -19.8696,-16.51409 -30.2582,-23.5625 -0.5438,-7.91698 0.876,-16.89456 4.5325,-24.19532 2.9284,-2.66608 6.8856,1.71265 10.1476,1.97165 13.1169,4.78378 25.2643,13.1586 39.3665,14.90726 5.582,-1.16522 6.6109,-7.85843 12.1222,-9.38477 5.4042,-3.07648 11.4182,-8.33398 18.0882,-7.0664 10.4217,5.59432 11.4325,18.89473 20.4487,25.43164 7.3388,-1.53357 4.0862,-9.80822 3.1674,-14.49414 -3.9673,-22.78008 -11.0259,-45.82542 -24.5226,-65.33984 -10.0613,-12.393 -27.1814,-13.82362 -42.4718,-13.22266 z"
         style="opacity:1;fill:#87808a;fill-opacity:1;stroke:none;stroke-width:1;stroke-linecap:round;stroke-linejoin:round;stroke-miterlimit:4;stroke-dasharray:3, 3;stroke-dashoffset:0;stroke-opacity:1" />
      <path
         sodipodi:nodetypes="ccccc"
         style="opacity:1;fill:#646266;fill-opacity:1;stroke:none;stroke-width:1;stroke-linecap:round;stroke-linejoin:round;stroke-miterlimit:4;stroke-dasharray:3, 3;stroke-dashoffset:0;stroke-opacity:1"
         d="m 2316.1934,-88.472656 c 6.3966,10.556769 25.5341,22.809843 37.6819,26.238667 6.5077,1.328917 0.9932,-10.803064 1.307,-15.381313 1.8322,-11.388783 3.4202,-23.224128 2.3482,-34.605398 -11.8259,25.720103 -4.2411,41.836307 -41.3371,23.748044 z"
         id="path8240"
         inkscape:connector-curvature="0" />
      <path
         inkscape:connector-curvature="0"
         id="path8227"
         d="m 2433.3512,-136.61914 c -11.0495,5.48267 -19.2858,15.4725 -30.3847,21.25976 -4.8792,3.27178 -13.4691,5.88909 -11.6266,13.14258 2.5809,12.921163 0.7808,26.933233 6.3577,39.136722 5.5955,4.842224 12.2603,-1.699853 16.5653,-4.982374 18.7869,-12.606246 26.2712,-35.446708 24.4762,-56.406258 -0.3297,-3.77118 0.6697,-12.32674 -5.3879,-12.15043 z"
         style="opacity:1;fill:#87808a;fill-opacity:1;stroke:none;stroke-width:1;stroke-linecap:round;stroke-linejoin:round;stroke-miterlimit:4;stroke-dasharray:3, 3;stroke-dashoffset:0;stroke-opacity:1" />
      <path
         sodipodi:nodetypes="ccc"
         style="opacity:1;fill:#646266;fill-opacity:1;stroke:none;stroke-width:1;stroke-linecap:round;stroke-linejoin:round;stroke-miterlimit:4;stroke-dasharray:3, 3;stroke-dashoffset:0;stroke-opacity:1"
         d="m 2397.6976,-63.080078 c 10.0435,5.984441 39.7571,-19.975319 41.6359,-38.106652 3.4174,-48.91188 -9.6463,23.279467 -41.6359,38.106652 z"
         id="path8242"
         inkscape:connector-curvature="0" />
      <g
         transform="matrix(1.0620535,0,0,1,-5539.2392,-2086.4491)"
         style="stroke:#202024;stroke-width:0.97034639;stroke-opacity:1"
         id="g7946">
        <path
           inkscape:connector-curvature="0"
           id="path7928"
           style="fill:none;stroke:#202024;stroke-width:7.6586771;stroke-linecap:round;stroke-linejoin:round;stroke-miterlimit:10;stroke-dasharray:none;stroke-opacity:1"
           d="m 7392.5223,1988.3605 c -0.3103,-3.3207 -0.4508,-9.143 -0.4215,-17.4669 0.029,-8.3239 -0.026,-16.2624 -0.1669,-23.8157 -0.1407,-7.5533 -0.094,-13.2263 0.1397,-17.019 0.2338,-3.7929 0.696,-7.2475 1.3868,-10.3639 0.6908,-3.1166 1.9714,-7.3009 3.842,-12.553 1.8706,-5.2523 3.4328,-9.2953 4.6867,-12.129 1.2538,-2.8339 2.6135,-5.5205 4.0789,-8.0599 1.4656,-2.5394 3.1448,-4.9958 5.0378,-7.3691 1.893,-2.3733 4.0239,-4.6991 6.3926,-6.9774 2.3687,-2.2783 5.2392,-4.6557 8.6114,-7.1322 3.3722,-2.4765 5.554,-3.971 6.5455,-4.4836 0.9916,-0.5126 2.053,-0.9587 3.1843,-1.3383 1.1313,-0.3797 2.299,-0.6951 3.503,-0.9465 1.204,-0.2514 2.7294,-0.4486 4.5761,-0.5919 1.8468,-0.1432 4.7974,-0.1457 8.8519,-0.01 4.0544,0.1381 7.4874,0.457 10.2987,0.9568 2.8114,0.4998 5.3731,1.0907 7.685,1.7727 2.312,0.6821 4.1871,1.3079 5.6253,1.8775 1.4382,0.5696 2.6083,1.1171 3.5105,1.6425 0.9021,0.5254 1.8891,1.3135 2.9607,2.3643 1.0717,1.0507 2.508,3.1688 4.3091,6.3542 1.8011,3.1853 3.5284,5.9378 5.1819,8.2575 1.6536,2.3196 2.7622,3.9684 3.3259,4.9463 0.5636,0.9779 1.1169,2.2707 1.6597,3.8785 0.5429,1.6076 1.3998,4.6191 2.5705,9.0343 1.1708,4.4152 2.7413,9.7027 4.7115,15.8625 1.9702,6.1597 3.2188,10.4393 3.7459,12.8389 0.5271,2.3994 1.2522,7.1065 2.1754,14.1212 0.9233,7.0146 1.5157,13.0503 1.7775,18.1072 0.2617,5.0568 0.3279,8.5609 0.1986,10.5122 -0.1292,1.9512 -0.1006,4.4649 0.086,7.5412 0.1867,3.0763 0.2405,4.8499 0.1617,5.3208 -0.079,0.471 -0.364,1.0822 -0.8554,1.8338 -0.4914,0.7516 -0.9742,1.7168 -1.4482,2.8957 -0.4741,1.1789 -1.2755,3.624 -2.4045,7.3354 -1.129,3.7114 -1.935,6.0809 -2.4183,7.1086 -0.4831,1.0275 -1.0314,1.9891 -1.6449,2.8847 -0.6135,0.8955 -1.5407,1.9863 -2.7818,3.2724 -1.241,1.286 -3.0465,2.8924 -5.4165,4.8192 -2.37,1.9267 -4.0726,3.5347 -5.108,4.824 -1.0353,1.2892 -1.8575,2.2244 -2.4667,2.8057 -0.6092,0.5812 -1.7891,1.4124 -3.5397,2.4938 -1.7506,1.0813 -3.3222,1.9723 -4.7147,2.673 -1.3925,0.7006 -2.6156,1.4118 -3.6694,2.1335 -1.0536,0.7217 -1.7475,1.156 -2.0816,1.3029 -0.3341,0.1468 -0.769,0.2011 -1.3049,0.1628" />
        <path
           sodipodi:nodetypes="ccccccccccccccccccccccc"
           inkscape:connector-curvature="0"
           id="path7930"
           d="m 7391.3835,1991.0936 c 1.2537,6.0334 4.8239,11.0749 9.3599,15.1239 4.6833,5.1305 10.5053,8.9879 17.0436,11.3221 5.4734,2.4814 10.6446,5.5989 15.9091,8.4316 3.869,-0.7436 -0.3973,-8.1502 0.5656,-11.6995 -0.4681,-12.2984 1.4163,-24.4831 3.4583,-36.5643 2.0564,-5.8688 -6.6085,-6.4922 -8.971,-11.233 -5.9262,-5.8413 -12.2167,-11.761 -20.0737,-14.8388 -3.2217,-1.4414 0.2271,-8.975 -0.3826,-12.7223 1.2382,-4.3231 1.2507,-10.6347 4.0098,-13.4776 5.0817,2.7324 10.155,5.8833 15.989,6.746 5.2668,2.3193 9.3298,6.9127 15.2125,8.051 5.3439,1.5593 10.7151,5.1243 15.6624,5.9168 3.2485,-4.8546 7.3681,-9.2169 11.8281,-12.9587 5.032,-1.5261 9.0405,-5.9697 14.3124,-6.3986 4.8695,3.255 7.6499,6.8093 9.9334,12.7803 2.0252,4.6828 6.8583,9.4804 4.1285,14.6418 -7.6984,5.1967 -11.2687,8.6002 -18.4258,14.5429 -3.8109,3.6722 -9.2549,4.3842 -13.2117,7.6195 -5.4506,0.6852 0.7211,8.7806 -0.4576,12.763 0.2499,10.2002 1.1523,20.3546 2.708,30.4385 -0.066,4.7121 0.513,12.8941 7.0423,8.179 1.6285,-1.1144 3.5698,-1.1148 4.9858,0.3469"
           style="fill:none;stroke:#202024;stroke-width:7.6586771;stroke-linecap:round;stroke-linejoin:round;stroke-miterlimit:10;stroke-dasharray:none;stroke-opacity:1" />
      </g>
      <path
         inkscape:connector-curvature="0"
         id="path8233"
         d="m 2371.7789,-217.81347 c -16.6667,-0.48931 -30.6968,12.05384 -38.8028,25.48047 -0.6316,6.1658 8.0944,5.56243 10.9375,2.02539 10.5027,-7.07275 21.1188,-15.87783 34.209,-16.6621 4.3298,0.0871 13.8334,-1.90444 9.1113,-7.67579 -4.1087,-3.37456 -10.4526,-2.75776 -15.455,-3.16797 z"
         style="opacity:1;fill:#b8b4ba;fill-opacity:1;stroke:none;stroke-width:1;stroke-linecap:round;stroke-linejoin:round;stroke-miterlimit:4;stroke-dasharray:3, 3;stroke-dashoffset:0;stroke-opacity:1" />
      <path
         inkscape:connector-curvature="0"
         id="path8246"
         d="m 2408.9156,-156.73814 c -10.3307,3.15758 -18.3815,10.57135 -25.0391,18.27148 -8.0592,-0.0148 -14.9376,-4.92748 -22.6973,-6.94726 -8.0474,-4.80181 -16.8442,-8.40417 -25.8668,-11.10742 -4.727,1.4685 -2.7386,8.21217 -4.2727,11.8256 -1.1097,3.97204 -1.4594,8.72873 3.8647,9.95597 10.0238,6.01297 19.0916,14.0457 27.3887,22.03874 -0.047,11.98681 -3.6616,23.86378 -3.8533,35.92687 0.7655,6.29715 11.0547,1.90429 15.8408,3.20985 5.0335,-1.14413 13.2324,2.47128 16.1611,-2.14453 -0.7773,-10.75599 -1.2736,-21.63694 -3.2691,-32.23047 2.4416,-6.31455 11.3215,-6.83255 16.0447,-11.25182 7.1701,-5.07037 14.6852,-10.17869 21.0856,-15.89271 -3.6899,-7.3051 -6.6135,-16.18474 -13.6511,-21.36914 -0.5402,-0.22903 -1.1435,-0.34553 -1.7362,-0.28516 z"
         style="opacity:1;fill:#2a242c;fill-opacity:1;stroke:none;stroke-width:10;stroke-linecap:round;stroke-linejoin:round;stroke-miterlimit:4;stroke-dasharray:30, 30;stroke-dashoffset:0;stroke-opacity:1" />
    </g>
    <g
       id="g8415"
       transform="matrix(0.69231827,0,0,0.69213373,-1759.9782,830.50744)">
      <path
         inkscape:connector-curvature="0"
         id="path8261"
         d="m 2631.9844,-218.05273 c -17.2662,6.49556 -37.037,10.84529 -54.6295,2.94012 -5.6465,-3.16424 -13.7438,0.0536 -13.6752,7.08136 2.4889,35.7224 3.9795,72.8614 18.2441,106.38086 7.3897,14.313437 22.6081,22.271332 36.6114,28.763671 4.9081,0.870642 9.0553,3.364558 12.1347,7.197266 6.8085,4.448945 13.3705,-2.261278 18.6485,-5.855469 13.2081,-7.956319 27.2804,-16.606253 33.9093,-31.237918 15.734,-29.71358 18.9826,-64.00372 21.3244,-96.96077 -0.6281,-5.48226 2.2475,-14.36324 -4.5248,-16.80912 -7.0826,-0.86456 -12.4573,5.73374 -19.082,6.96289 -10.0019,3.81674 -20.9403,1.78057 -30.1504,-3.13086 -5.9412,-2.60944 -12.1491,-5.7415 -18.8105,-5.33203 z"
         style="opacity:1;fill:#eda14f;fill-opacity:1;stroke:none;stroke-width:10;stroke-linecap:round;stroke-linejoin:round;stroke-miterlimit:4;stroke-dasharray:30, 30;stroke-dashoffset:0;stroke-opacity:1" />
      <path
         sodipodi:nodetypes="ccccccc"
         style="opacity:1;fill:#ba7848;fill-opacity:1;stroke:none;stroke-width:10;stroke-linecap:round;stroke-linejoin:round;stroke-miterlimit:4;stroke-dasharray:30, 30;stroke-dashoffset:0;stroke-opacity:1"
         d="m 2581.9238,-101.65039 c 7.3897,14.313437 22.6081,22.271332 36.6114,28.763671 4.9081,0.870642 9.0553,3.364558 12.1347,7.197266 6.8085,4.448945 13.3705,-2.261278 18.6485,-5.855469 13.2081,-7.956319 27.2804,-16.606253 33.9093,-31.237918 15.734,-29.71358 18.9826,-64.00372 21.3244,-96.96077 -29.7561,96.52133 -53.5737,117.7987 -122.6283,98.09322 z"
         id="path8269"
         inkscape:connector-curvature="0" />
      <path
         sodipodi:nodetypes="ccccssscccc"
         style="opacity:1;fill:#ffee8d;fill-opacity:1;stroke:none;stroke-width:10;stroke-linecap:round;stroke-linejoin:round;stroke-miterlimit:4;stroke-dasharray:30, 30;stroke-dashoffset:0;stroke-opacity:1"
         d="m 2631.9844,-218.05273 c -17.2662,6.49556 -37.037,10.84529 -54.6295,2.94012 -5.6465,-3.16424 -13.7438,0.0536 -13.6752,7.08136 2.4889,35.7224 3.9795,72.8614 18.2441,106.38086 -0.6648,-24.76227 -17.2706,-107.51604 -0.5319,-96.61474 23.8774,15.55042 41.7855,-19.57386 73.0508,-0.64904 16.1689,9.78697 34.9036,-2.47449 44.2409,-6.31892 9.3373,-3.84444 11.7045,-6.99672 1.3437,-11.31964 -7.0826,-0.86456 -12.4573,5.73374 -19.082,6.96289 -10.0019,3.81674 -20.9403,1.78057 -30.1504,-3.13086 -5.9412,-2.60944 -12.1491,-5.7415 -18.8105,-5.33203 z"
         id="path8306"
         inkscape:connector-curvature="0" />
      <g
         transform="matrix(1.1269855,0,0,1.1260873,-6025.9661,-2341.4094)"
         style="stroke:#202024;stroke-width:0.82452267;stroke-opacity:1"
         id="g7940">
        <path
           inkscape:connector-curvature="0"
           id="path7934"
           d="m 7625.1617,1884.3616 c 6.411,5.1106 14.6084,7.3958 22.5243,8.9558 8.853,0.4541 17.8512,-0.2688 26.1883,-3.4774 4.5827,-0.031 7.8664,-7.1389 12.2899,-3.9904 4.5026,2.7108 9.288,4.8258 14.3546,6.2528 6.8221,3.168 14.729,6.3555 22.2447,3.5795 7.0767,-2.6028 14.4959,-5.1756 19.8226,-10.7957 0.4302,-0.5369 1.2464,-0.9468 1.3864,-1.668"
           style="fill:none;stroke:#202024;stroke-width:6.50773048;stroke-linecap:round;stroke-linejoin:round;stroke-miterlimit:10;stroke-dasharray:none;stroke-opacity:1" />
        <path
           inkscape:connector-curvature="0"
           id="path7936"
           d="m 7623.9281,1884.5894 c -0.7199,4.7877 -0.3178,10.1841 -0.5466,15.2065 0.818,16.0074 2.1594,32.0124 4.246,47.9054 2.3315,14.4226 6.5659,28.4945 11.4306,42.2434 2.5983,5.1458 7.4515,8.8752 11.9447,12.3379 6.6137,3.6507 12.0245,9.435 19.5396,11.3571 2.3932,1.9413 8.4147,-0.2906 8.4256,3.734"
           style="fill:none;stroke:#202024;stroke-width:6.50773048;stroke-linecap:round;stroke-linejoin:round;stroke-miterlimit:10;stroke-dasharray:none;stroke-opacity:1" />
        <path
           inkscape:connector-curvature="0"
           id="path7938"
           d="m 7744.9215,1884.2477 c 2.4775,10.9042 0.2018,22.1497 -0.4824,33.1442 -1.4439,12.0696 -2.4173,24.2225 -4.6629,36.1773 -4.2051,11.6742 -6.9364,24.0404 -13.1678,34.8845 -4.7203,5.6332 -7.1385,13.6382 -14.2848,16.8232 -9.5328,4.2447 -17.0202,11.8281 -26.1505,16.6977 -4.583,-0.3728 -10.4272,-4.1989 -13.5629,-7.5618"
           style="fill:none;stroke:#202024;stroke-width:6.50773048;stroke-linecap:round;stroke-linejoin:round;stroke-miterlimit:10;stroke-dasharray:none;stroke-opacity:1" />
      </g>
      <g
         id="g8344"
         transform="matrix(0.78607015,0,0,0.7923438,2664.6191,-1514.7729)"
         style="fill:#000000;fill-opacity:0;stroke:#434252;stroke-width:1.17695618;stroke-opacity:1">
        <path
           inkscape:connector-curvature="0"
           id="path8346"
           style="fill:#000000;fill-opacity:0;stroke:#434252;stroke-width:9.28939056;stroke-linecap:round;stroke-linejoin:round;stroke-miterlimit:10;stroke-dasharray:none;stroke-opacity:1"
           d="m -54.769734,1716.6232 c -2.9874,-1.3952 -5.0509,-2.6202 -6.1904,-3.6749 -1.1395,-1.0546 -2.075,-2.1986 -2.8065,-3.4318 -0.7314,-1.2333 -1.2513,-2.2448 -1.5597,-3.0344 -0.3083,-0.7897 -0.6654,-2.1011 -1.071,-3.934 -0.4057,-1.833 -0.6205,-3.7181 -0.6445,-5.6553 -0.024,-1.9372 0.1617,-3.7815 0.5568,-5.5331 0.3951,-1.7515 0.9919,-3.3374 1.7903,-4.7576 0.7984,-1.4202 1.7533,-2.682 2.8647,-3.7854 1.1114,-1.1034 2.3813,-2.0387 3.8098,-2.8057 1.4286,-0.7671 3.0325,-1.3425 4.8119,-1.7263 1.7794,-0.3838 3.7751,-0.5697 5.9872,-0.5577 2.2122,0.013 3.9375,0.095 5.1758,0.2488 1.2382,0.1538 3.1168,0.5079 5.6357,1.0622 2.5189,0.5543 5.4402,1.4057 8.7639,2.5543 3.3236,1.1484 6.137,2.3209 8.4402,3.5174 2.30332,1.1963 3.91953,2.2461 4.84863,3.1492 0.92926,0.903 1.53443,1.613 1.81534,2.13 0.281,0.5169 0.55306,1.349 0.8162,2.4964 0.26321,1.1473 0.35812,2.3505 0.28472,3.6096 -0.0734,1.259 -0.31142,2.5095 -0.71441,3.7515 -0.40284,1.2419 -1.11794,2.7282 -2.14539,4.4591 -1.02752,1.7309 -1.89842,3.06 -2.61276,3.9874 -0.71441,0.9274 -1.49123,1.818 -2.33063,2.672 -0.8392,0.854 -1.5724,1.4218 -2.1996,1.7036 -0.6269,0.2817 -1.4395,0.4246 -2.4374,0.4286 -0.998,0 -1.8083,0.2183 -2.431,0.643 -0.6227,0.4247 -0.9052,1.2541 -0.8473,2.4881 0.058,1.234 0.037,2.4541 -0.062,3.6604 -0.099,1.2063 -0.3734,2.5633 -0.8224,4.0711 -0.4489,1.5078 -0.9149,2.5521 -1.398,3.133 -0.4831,0.5809 -0.9575,0.9579 -1.4231,1.1309 -0.4657,0.1731 -0.8033,0.2264 -1.0128,0.16 -0.2095,-0.067 -0.5755,-0.4108 -1.0982,-1.0328 -0.5226,-0.622 -1.1748,-1.253 -1.9567,-1.8929 -0.782,-0.64 -1.3051,-1.2244 -1.5696,-1.7533 -0.2645,-0.5289 -0.4054,-1.3507 -0.423,-2.4655 -0.017,-1.1148 -0.3238,-0.7593 -0.9186,1.0667 -0.5948,1.826 -1.1419,3.128 -1.6417,3.9061 -0.4995,0.778 -0.8609,1.1429 -1.084,1.0947 -0.2232,-0.048 -0.4529,-0.881 -0.6893,-2.4983 -0.2364,-1.6173 -0.4159,-2.6174 -0.5385,-3.0005 -0.1225,-0.383 -0.272,-0.6324 -0.4486,-0.7483 -0.1766,-0.1158 -0.5114,0.01 -1.0045,0.373 -0.493,0.3645 -1.4916,1.4573 -2.9958,3.2782 -1.504,1.821 -2.3749,2.8017 -2.6123,2.9424 -0.2374,0.1405 -0.5517,-0.1846 -0.9431,-0.9753 -0.3913,-0.7908 -0.7087,-1.7905 -0.9525,-2.9992 -0.2437,-1.2086 -0.4805,-1.9726 -0.7103,-2.2918 -0.2298,-0.3193 -0.4436,-1.2292 -0.6412,-2.7297 -0.1976,-1.5006 -0.5796,-2.236 -1.1459,-2.2062" />
        <path
           inkscape:connector-curvature="0"
           id="path8348"
           style="fill:#000000;fill-opacity:0;stroke:#434252;stroke-width:9.28939056;stroke-linecap:round;stroke-linejoin:round;stroke-miterlimit:10;stroke-dasharray:none;stroke-opacity:1"
           d="m -48.981034,1699.3134 c 0.949,0.7592 1.5676,1.4103 1.8559,1.9532 0.2884,0.5429 0.3415,0.9833 0.1591,1.3212 -0.1823,0.3378 -0.5043,0.6207 -0.9658,0.8486 -0.4616,0.2277 -0.8416,0.3387 -1.1399,0.3328 -0.2983,-0.01 -0.55,-0.09 -0.755,-0.2515 -0.2049,-0.1618 -0.4082,-0.6894 -0.6099,-1.5829 -0.2016,-0.8935 -0.2393,-1.5753 -0.113,-2.0453 0.1264,-0.4701 0.4572,-0.8639 0.9925,-1.1815 0.5354,-0.3176 0.7936,-0.3215 0.7746,-0.013 -0.019,0.3096 -0.2517,0.9041 -0.6987,1.7835 -0.4467,0.8793 -0.7598,1.4317 -0.9391,1.6573 -0.1795,0.2255 -0.3392,0.2492 -0.4794,0.071 -0.1401,-0.1781 -0.2189,-0.4503 -0.236,-0.8164 -0.017,-0.3661 0.053,-0.7218 0.2095,-1.0671 0.1569,-0.3453 0.3408,-0.6636 0.5519,-0.955 0.2111,-0.2914 0.5175,-0.5 0.9189,-0.6255" />
        <path
           inkscape:connector-curvature="0"
           id="path8350"
           style="fill:#000000;fill-opacity:0;stroke:#434252;stroke-width:9.28939056;stroke-linecap:round;stroke-linejoin:round;stroke-miterlimit:10;stroke-dasharray:none;stroke-opacity:1"
           d="m -27.344534,1699.8828 c -1.9857,0.7807 -3.2682,1.1909 -3.8475,1.2303 -0.5793,0.039 -0.9925,-0.1343 -1.2397,-0.521 -0.247,-0.3867 -0.2219,-0.7625 0.075,-1.1275 0.2973,-0.3651 0.7819,-0.5925 1.4539,-0.6824 0.6719,-0.09 1.205,-0.051 1.5993,0.118 0.3944,0.1686 0.6892,0.4037 0.8845,0.7051 0.1952,0.3015 0.3129,0.6378 0.3529,1.009 0.04,0.3712 -0.048,0.7954 -0.2642,1.2728 -0.2162,0.4772 -0.3945,0.6997 -0.535,0.6674 -0.1404,-0.032 -0.2677,-0.2762 -0.3821,-0.7311 -0.1142,-0.4549 -0.1539,-1.0237 -0.1187,-1.7065 0.035,-0.6827 0.1309,-1.1611 0.2868,-1.4352 0.156,-0.2742 0.1888,0.082 0.098,1.0667 -0.09,0.9852 -0.3175,1.6135 -0.6812,1.885 -0.3636,0.2714 -0.7639,0.4023 -1.2009,0.3928 -0.437,-0.01 -0.6028,-0.1163 -0.4975,-0.32 0.1053,-0.2038 0.3684,-0.3181 0.7893,-0.343" />
        <path
           inkscape:connector-curvature="0"
           id="path8352"
           style="fill:#000000;fill-opacity:0;stroke:#434252;stroke-width:9.28939056;stroke-linecap:round;stroke-linejoin:round;stroke-miterlimit:10;stroke-dasharray:none;stroke-opacity:1"
           d="m -63.974734,1757.3923 c 2.6748,-0.7334 5.8094,-2.0521 9.4037,-3.9563 3.5944,-1.9042 7.1212,-3.5519 10.5803,-4.9433 3.4594,-1.3914 7.404,-2.7322 11.834,-4.0223 4.4302,-1.2902 8.9346,-2.3107 13.5132,-3.0614 4.57853,-0.7507 7.00262,-1.2149 7.27217,-1.3924 0.26962,-0.1775 0.53444,-0.4366 0.79452,-0.7772 0.26002,-0.3405 0.30137,-0.515 0.12388,-0.5234" />
        <path
           inkscape:connector-curvature="0"
           id="path8354"
           style="fill:#000000;fill-opacity:0;stroke:#434252;stroke-width:9.28939056;stroke-linecap:round;stroke-linejoin:round;stroke-miterlimit:10;stroke-dasharray:none;stroke-opacity:1"
           d="m -9.3141735,1736.8939 c 0.18982,-10e-5 0.37056,0.2419 0.54215,0.7257 0.17166,0.4839 0.215,0.8918 0.13015,1.2238 -0.0849,0.3319 -0.24643,0.6149 -0.48447,0.8489 -0.23803,0.2339 -0.45058,0.156 -0.63766,-0.2338 -0.18707,-0.3897 -0.3447705,-1.0981 -0.4731705,-2.1249 -0.12833,-1.0268 -0.16717,-2.0332 -0.11638,-3.019 0.0509,-0.9858 0.14991,-1.5656 0.29739,-1.7394 0.1474005,-0.1738 0.3108205,-0.083 0.4902705,0.2713 0.17944,0.3546 0.33142,0.9431 0.45593,1.7654 0.12462,0.8223 0.1667,1.9934 0.1262,3.5133 -0.0406,1.5199 -0.22119,2.8639 -0.54185,4.0321 -0.32059,1.1682 -0.5630505,1.7626 -0.7273905,1.7833 -0.16417,0.021 -0.31929,-0.124 -0.46539,-0.4343 -0.14602,-0.3103 -0.26252,-0.8274 -0.34942,-1.5515 -0.0868,-0.7241 -0.0374,-1.3113 0.14816,-1.7614 0.1857,-0.4502 0.55541,-0.549 1.1093105,-0.2964 0.55382,0.2527 1.32019,0.77 2.2992,1.5521" />
        <path
           inkscape:connector-curvature="0"
           id="path8356"
           style="fill:#000000;fill-opacity:0;stroke:#434252;stroke-width:9.28939056;stroke-linecap:round;stroke-linejoin:round;stroke-miterlimit:10;stroke-dasharray:none;stroke-opacity:1"
           d="m -64.639034,1755.9119 c 1.4752,0.7468 2.0059,1.2118 1.5921,1.3952 -0.4137,0.1833 -0.9862,0.2732 -1.7175,0.2694 -0.7313,0 -1.3402,-0.077 -1.8268,-0.2211 -0.4866,-0.1437 -0.9383,-0.3557 -1.3553,-0.636 -0.4169,-0.2803 -0.7603,-0.6299 -1.0299,-1.0487 -0.2697,-0.4188 -0.4311,-0.8628 -0.4843,-1.3321 -0.053,-0.4692 0.015,-0.8843 0.2031,-1.2452 0.1886,-0.3609 0.4919,-0.5906 0.9099,-0.6891 0.4181,-0.099 1.0118,0.046 1.7812,0.4323 0.7694,0.3867 1.3361,0.8056 1.7001,1.2569 0.364,0.4513 0.6057,1.0069 0.7249,1.6668 0.1192,0.6599 0.01,1.1889 -0.3387,1.5868 -0.3449,0.3979 -0.7114,0.6197 -1.0995,0.6652 -0.388,0.045 -1.0666,-0.059 -2.0356,-0.3129 -0.969,-0.2543 -2.0165,-0.6223 -3.1427,-1.1042 -1.1261,-0.4819 -1.9074,-0.8876 -2.3437,-1.2173 -0.4363,-0.3296 -0.2829,-0.4085 0.4604,-0.2366 0.7432,0.1718 1.7938,0.5529 3.1518,1.1433 1.3579,0.5903 2.574,1.2152 3.6481,1.8745 1.0742,0.6593 1.8751,1.2534 2.4028,1.7825 0.5277,0.5289 0.7605,0.9596 0.6985,1.2921 -0.062,0.3325 -0.2749,0.5545 -0.6389,0.666 -0.364,0.1115 -0.9859,0.1266 -1.8658,0.045 -0.8798,-0.082 -1.8089,-0.2679 -2.7874,-0.5594 -0.9785,-0.2916 -0.8687,0.069 0.3293,1.0814 1.1981,1.0125 1.8104,1.6677 1.837,1.9655 0.027,0.2977 -0.1186,0.5521 -0.4357,0.7631 -0.317,0.2109 -0.9786,0.2681 -1.9849,0.1715 -1.0061,-0.097 -1.7891,-0.3143 -2.3487,-0.6533 -0.5596,-0.3389 -0.8601,-0.5683 -0.9017,-0.6879 -0.042,-0.1197 0.17,-0.319 0.6347,-0.5978" />
        <path
           inkscape:connector-curvature="0"
           id="path8358"
           style="fill:#000000;fill-opacity:0;stroke:#434252;stroke-width:9.28939056;stroke-linecap:round;stroke-linejoin:round;stroke-miterlimit:10;stroke-dasharray:none;stroke-opacity:1"
           d="m -62.361434,1737.4632 c 0.8857,0 1.5148,0.08 1.8874,0.2392 0.3727,0.1595 2.2876,1.3066 5.7445,3.4414 3.457,2.1347 6.5085,3.798 9.1545,4.9896 2.6461,1.1917 5.8141,2.7161 9.5038,4.5734 3.6898,1.8572 6.2231,3.0758 7.5999,3.6559 1.3768,0.5801 2.9633,1.1348 4.7597,1.664 1.7963,0.5292 3.1792,1.2881 4.1486,2.2766" />
        <path
           inkscape:connector-curvature="0"
           id="path8360"
           style="fill:#000000;fill-opacity:0;stroke:#434252;stroke-width:9.28939056;stroke-linecap:round;stroke-linejoin:round;stroke-miterlimit:10;stroke-dasharray:none;stroke-opacity:1"
           d="m -15.956944,1761.9475 c -0.18981,-0.8351 -0.1773,-1.458 0.0374,-1.8686 0.21477,-0.4107 0.4541,-0.7368 0.71808,-0.9784 0.26399,-0.2416 0.62966,-0.3762 1.09696,-0.4039 0.46738,-0.028 0.95734,0.038 1.47003,0.1977 0.51285,0.1595 0.98633,0.409 1.4206,0.7485 0.43418,0.3397 0.70785,0.6749 0.82092,1.0057 0.11325,0.3308 0.0634,0.7317 -0.1497,1.2025 -0.21301,0.4709 -0.49002,0.7481 -0.83114,0.832 -0.34103,0.084 -0.71418,0 -1.11938,-0.2626 -0.40513,-0.2589 -0.78285,-0.6518 -1.13312,-1.1787 -0.3502,-0.5269 -0.61096,-1.0821 -0.78232,-1.6658 -0.17135,-0.5836 -0.25055,-0.996 -0.23758,-1.2372 0.013,-0.2412 0.1326,-0.5098 0.35858,-0.8057 0.22606,-0.2959 0.52674,-0.4757 0.9021,-0.5392 0.37529,-0.064 0.74737,-0.031 1.11619,0.098 0.36887,0.1287 0.6829,0.3474 0.94207,0.656 0.25909,0.3085 0.44471,0.6861 0.55679,1.1327 0.11225,0.4465 0.14756,0.9149 0.106,1.405 -0.0414,0.4902 -0.15389,0.943 -0.33753,1.3588 -0.18371,0.4156 -0.43625,0.7568 -0.7576,1.0234 -0.32142,0.2666 -0.70015,0.4536 -1.13616,0.561 -0.43595,0.1074 -1.35414,0.099 -2.75451,-0.026 -1.40046,-0.1245 -2.26609,-0.1554 -2.59687,-0.093 -0.3309,0.063 -0.01,0.2111 0.96601,0.4453 0.97496,0.2341 1.59972,0.4494 1.87423,0.646 0.2745,0.1965 0.46807,0.5769 0.58075,1.141 0.11263,0.5641 0.0159,1.2208 -0.29037,1.9699 -0.3064,0.7491 -0.51255,1.1507 -0.61844,1.2046 -0.10587,0.054 -0.2781,-0.1353 -0.51666,-0.5678 -0.23865,-0.4325 -0.4567,-1.2562 -0.6543,-2.4711" />
        <path
           inkscape:connector-curvature="0"
           id="path8362"
           style="fill:#000000;fill-opacity:0;stroke:#434252;stroke-width:9.28939056;stroke-linecap:round;stroke-linejoin:round;stroke-miterlimit:10;stroke-dasharray:none;stroke-opacity:1"
           d="m -65.587934,1733.7052 c 0.01,-1.1162 0.1659,-1.5825 0.483,-1.3989 0.3172,0.1835 0.6664,0.498 1.0475,0.9434 0.3813,0.4454 0.7921,1.1101 1.2325,1.9943 0.4403,0.884 0.6655,1.6098 0.6753,2.1772 0.01,0.5674 -0.1609,0.7301 -0.5121,0.4882 -0.3512,-0.242 -0.7539,-0.8014 -1.2083,-1.6781 -0.4542,-0.8767 -0.9137,-2.0695 -1.3785,-3.5786 -0.4647,-1.5091 -0.6846,-2.5193 -0.6595,-3.0309 0.025,-0.5115 0.1756,-0.7029 0.4516,-0.5742 0.2761,0.1287 0.5921,0.4004 0.9482,0.8153 0.356,0.4149 0.6777,0.8398 0.9652,1.2746 0.2875,0.4348 0.4868,0.8464 0.598,1.2348 0.1112,0.3883 0.1686,1.3356 0.1721,2.8418 0,1.5062 -0.1481,2.8236 -0.455,3.9523 -0.3069,1.1287 -0.598,1.7198 -0.8735,1.773 -0.2755,0.053 -0.8662,-0.1686 -1.7721,-0.6657 -0.9059,-0.4972 -1.4985,-0.3681 -1.7779,0.3871 -0.2794,0.7552 -1.1893,1.0383 -2.7299,0.8494 -1.5404,-0.1889 -2.3994,-0.372 -2.5769,-0.5493 -0.1775,-0.1774 -0.1209,-0.4623 0.17,-0.855 0.2908,-0.3927 0.6378,-0.7259 1.041,-0.9995 0.4031,-0.2735 0.8292,-0.4813 1.2783,-0.6232 0.4491,-0.1419 0.8424,-0.1403 1.18,0" />
        <path
           inkscape:connector-curvature="0"
           id="path8364"
           style="fill:#000000;fill-opacity:0;stroke:#434252;stroke-width:9.28939056;stroke-linecap:round;stroke-linejoin:round;stroke-miterlimit:10;stroke-dasharray:none;stroke-opacity:1"
           d="m -10.358024,1759.7838 c 0.35515,-0.4704 0.7347105,-0.5463 1.1387605,-0.2278" />
      </g>
    </g>
    <g
       transform="matrix(0.44237652,0,0,0.44141832,-743.18675,660.31027)"
       id="g8435">
      <path
         style="opacity:1;fill:#cc3a3a;fill-opacity:1;stroke:none;stroke-width:1;stroke-linecap:round;stroke-linejoin:round;stroke-miterlimit:4;stroke-dasharray:3, 3;stroke-dashoffset:0;stroke-opacity:1"
         d="m 2062.8398,-197.83775 c -9.2268,-0.21846 -19.0373,4.47797 -21.7207,13.91016 -7.2334,22.02595 1.8646,45.35165 12.6485,64.54297 12.1973,19.19791 29.3578,34.54424 43.5114,52.23466 3.557,2.98712 6.5417,8.93943 11.6976,8.78877 12.2107,-6.53389 21.8252,-17.05117 33.7817,-24.09498 16.7975,-9.88408 32.3652,-23.70858 38.6064,-42.74886 4.7956,-15.5939 12.0092,-31.59557 10.1099,-48.25186 -2.0895,-10.64313 -11.1512,-21.2055 -22.8476,-20.11914 -11.1953,-1.01222 -22.1858,3.0886 -30.4397,10.6215 -8.9693,6.97778 -17.2545,15.69884 -26.8201,21.45077 0.4993,-2.76442 0.3919,-5.52469 -2.1504,-7.53711 -11.8344,-13.77996 -26.8772,-28.8796 -46.377,-28.79688 z"
         id="path8437"
         inkscape:connector-curvature="0" />
      <path
         style="opacity:1;fill:#f7c1bb;fill-opacity:1;stroke:none;stroke-width:1;stroke-linecap:round;stroke-linejoin:round;stroke-miterlimit:4;stroke-dasharray:3, 3;stroke-dashoffset:0;stroke-opacity:1"
         d="m 2146.2309,-168.84412 c 23.2209,-7.35245 16.1858,-2.24517 33.6988,-11.26721 -7.4542,-8.80066 -21.3046,-6.44855 -30.2266,-1.28515 -13.8245,7.69418 -22.709,22.9901 -38.3281,27.55273 m -8.832,-11.03125 c -10.7821,-11.51373 -23.3616,-25.23302 -40.4707,-25.06445 -10.7543,-0.7649 -16.4799,10.97384 -15.3321,20.3125 22.7927,27.94748 -5.9699,2.04347 17.2511,-5.30899"
         id="path8439"
         inkscape:connector-curvature="0"
         sodipodi:nodetypes="cccccccc" />
      <path
         style="opacity:1;fill:#923f28;fill-opacity:1;stroke:none;stroke-width:1;stroke-linecap:round;stroke-linejoin:round;stroke-miterlimit:4;stroke-dasharray:3, 3;stroke-dashoffset:0;stroke-opacity:1"
         d="m 2078.4334,-84.380235 c 3.8044,3.078421 23.7758,32.594356 29.5515,29.382296 12.4787,-7.294905 25.1715,-22.436058 37.9065,-29.357984 15.7797,-9.747145 30.0823,-23.620917 35.8162,-41.692417 3.4978,-8.51992 16.1989,-38.02923 8.946,-59.22522 -6.7601,57.6202 -31.7316,80.4562 -54.8582,97.290515 -11.8748,8.554966 -22.1191,27.517936 -57.362,3.60281 z"
         id="path8441"
         inkscape:connector-curvature="0"
         sodipodi:nodetypes="ccccccc" />
      <g
         id="g8443"
         style="stroke:#202024;stroke-width:0.97645968;stroke-opacity:1"
         transform="matrix(1.4882909,0,0,1.4919439,-8548.7434,-3085.6154)">
        <path
           style="fill:none;stroke:#202024;stroke-width:7.70692778;stroke-linecap:round;stroke-linejoin:round;stroke-miterlimit:10;stroke-dasharray:none;stroke-opacity:1"
           d="m 7165.2741,1954.6277 c -8.1464,-5.3022 -12.9272,-15.0914 -22.5067,-18.4943 -7.6274,-3.0391 -17.0677,-3.8997 -24.3757,0.3218 -4.944,4.9566 -6.9475,12.4068 -7.4778,19.2287 0.3018,10.8274 4.8487,21.0648 9.3534,30.7281 8.2797,14.9628 22.0577,25.6078 32.3079,39.0473 5.7217,11.7755 15.5431,2.2793 21.5636,-3.6255 11.6942,-9.051 26.8795,-14.9268 34.4004,-28.3731 4.8532,-12.0303 9.4186,-25.2027 10.615,-38.0312 0.1955,-6.2862 -4.3819,-13.4655 -9.1452,-17.9566 -6.17,-2.0796 -12.7889,-0.3956 -19.125,-0.4281 -8.0353,1.9836 -13.1889,9.1731 -19.8566,13.5774 -2.7029,2.2494 -5.2756,4.6935 -7.3666,7.534"
           id="path8445"
           inkscape:connector-curvature="0"
           sodipodi:nodetypes="ccccccccccccc" />
      </g>
    </g>
    <g
       id="g8447"
       transform="matrix(0.4059156,0,0,0.40928373,-774.75194,1180.1827)">
      <path
         style="opacity:1;fill:#87808a;fill-opacity:1;stroke:none;stroke-width:1;stroke-linecap:round;stroke-linejoin:round;stroke-miterlimit:4;stroke-dasharray:3, 3;stroke-dashoffset:0;stroke-opacity:1"
         d="m 2368.151,-227.17578 c -16.4307,0.67643 -28.9798,13.2753 -37.7554,25.16039 -15.1386,21.71063 -20.3277,48.37217 -18.2199,73.94836 0.6035,13.17502 -0.3964,26.95616 4.0177,39.594374 6.3966,10.556769 18.2556,17.860238 30.4033,21.289062 6.5078,1.328917 8.2718,-5.853459 8.5856,-10.431708 1.8322,-11.388783 3.4202,-23.224128 2.3482,-34.605398 -8.7732,-9.20036 -19.8696,-16.51409 -30.2582,-23.5625 -0.5438,-7.91698 0.876,-16.89456 4.5325,-24.19532 2.9284,-2.66608 6.8856,1.71265 10.1476,1.97165 13.1169,4.78378 25.2643,13.1586 39.3665,14.90726 5.582,-1.16522 6.6109,-7.85843 12.1222,-9.38477 5.4042,-3.07648 11.4182,-8.33398 18.0882,-7.0664 10.4217,5.59432 11.4325,18.89473 20.4487,25.43164 7.3388,-1.53357 4.0862,-9.80822 3.1674,-14.49414 -3.9673,-22.78008 -11.0259,-45.82542 -24.5226,-65.33984 -10.0613,-12.393 -27.1814,-13.82362 -42.4718,-13.22266 z"
         id="path8449"
         inkscape:connector-curvature="0" />
      <path
         inkscape:connector-curvature="0"
         id="path8451"
         d="m 2316.1934,-88.472656 c 6.3966,10.556769 25.5341,22.809843 37.6819,26.238667 6.5077,1.328917 0.9932,-10.803064 1.307,-15.381313 1.8322,-11.388783 3.4202,-23.224128 2.3482,-34.605398 -11.8259,25.720103 -4.2411,41.836307 -41.3371,23.748044 z"
         style="opacity:1;fill:#646266;fill-opacity:1;stroke:none;stroke-width:1;stroke-linecap:round;stroke-linejoin:round;stroke-miterlimit:4;stroke-dasharray:3, 3;stroke-dashoffset:0;stroke-opacity:1"
         sodipodi:nodetypes="ccccc" />
      <path
         style="opacity:1;fill:#87808a;fill-opacity:1;stroke:none;stroke-width:1;stroke-linecap:round;stroke-linejoin:round;stroke-miterlimit:4;stroke-dasharray:3, 3;stroke-dashoffset:0;stroke-opacity:1"
         d="m 2433.3512,-136.61914 c -11.0495,5.48267 -19.2858,15.4725 -30.3847,21.25976 -4.8792,3.27178 -13.4691,5.88909 -11.6266,13.14258 2.5809,12.921163 0.7808,26.933233 6.3577,39.136722 5.5955,4.842224 12.2603,-1.699853 16.5653,-4.982374 18.7869,-12.606246 26.2712,-35.446708 24.4762,-56.406258 -0.3297,-3.77118 0.6697,-12.32674 -5.3879,-12.15043 z"
         id="path8453"
         inkscape:connector-curvature="0" />
      <path
         inkscape:connector-curvature="0"
         id="path8455"
         d="m 2397.6976,-63.080078 c 10.0435,5.984441 39.7571,-19.975319 41.6359,-38.106652 3.4174,-48.91188 -9.6463,23.279467 -41.6359,38.106652 z"
         style="opacity:1;fill:#646266;fill-opacity:1;stroke:none;stroke-width:1;stroke-linecap:round;stroke-linejoin:round;stroke-miterlimit:4;stroke-dasharray:3, 3;stroke-dashoffset:0;stroke-opacity:1"
         sodipodi:nodetypes="ccc" />
      <g
         id="g8457"
         style="stroke:#202024;stroke-width:1.53070807;stroke-opacity:1"
         transform="matrix(1.0620535,0,0,1,-5539.2392,-2086.4491)">
        <path
           d="m 7392.5223,1988.3605 c -0.3103,-3.3207 -0.4508,-9.143 -0.4215,-17.4669 0.029,-8.3239 -0.026,-16.2624 -0.1669,-23.8157 -0.1407,-7.5533 -0.094,-13.2263 0.1397,-17.019 0.2338,-3.7929 0.696,-7.2475 1.3868,-10.3639 0.6908,-3.1166 1.9714,-7.3009 3.842,-12.553 1.8706,-5.2523 3.4328,-9.2953 4.6867,-12.129 1.2538,-2.8339 2.6135,-5.5205 4.0789,-8.0599 1.4656,-2.5394 3.1448,-4.9958 5.0378,-7.3691 1.893,-2.3733 4.0239,-4.6991 6.3926,-6.9774 2.3687,-2.2783 5.2392,-4.6557 8.6114,-7.1322 3.3722,-2.4765 5.554,-3.971 6.5455,-4.4836 0.9916,-0.5126 2.053,-0.9587 3.1843,-1.3383 1.1313,-0.3797 2.299,-0.6951 3.503,-0.9465 1.204,-0.2514 2.7294,-0.4486 4.5761,-0.5919 1.8468,-0.1432 4.7974,-0.1457 8.8519,-0.01 4.0544,0.1381 7.4874,0.457 10.2987,0.9568 2.8114,0.4998 5.3731,1.0907 7.685,1.7727 2.312,0.6821 4.1871,1.3079 5.6253,1.8775 1.4382,0.5696 2.6083,1.1171 3.5105,1.6425 0.9021,0.5254 1.8891,1.3135 2.9607,2.3643 1.0717,1.0507 2.508,3.1688 4.3091,6.3542 1.8011,3.1853 3.5284,5.9378 5.1819,8.2575 1.6536,2.3196 2.7622,3.9684 3.3259,4.9463 0.5636,0.9779 1.1169,2.2707 1.6597,3.8785 0.5429,1.6076 1.3998,4.6191 2.5705,9.0343 1.1708,4.4152 2.7413,9.7027 4.7115,15.8625 1.9702,6.1597 3.2188,10.4393 3.7459,12.8389 0.5271,2.3994 1.2522,7.1065 2.1754,14.1212 0.9233,7.0146 1.5157,13.0503 1.7775,18.1072 0.2617,5.0568 0.3279,8.5609 0.1986,10.5122 -0.1292,1.9512 -0.1006,4.4649 0.086,7.5412 0.1867,3.0763 0.2405,4.8499 0.1617,5.3208 -0.079,0.471 -0.364,1.0822 -0.8554,1.8338 -0.4914,0.7516 -0.9742,1.7168 -1.4482,2.8957 -0.4741,1.1789 -1.2755,3.624 -2.4045,7.3354 -1.129,3.7114 -1.935,6.0809 -2.4183,7.1086 -0.4831,1.0275 -1.0314,1.9891 -1.6449,2.8847 -0.6135,0.8955 -1.5407,1.9863 -2.7818,3.2724 -1.241,1.286 -3.0465,2.8924 -5.4165,4.8192 -2.37,1.9267 -4.0726,3.5347 -5.108,4.824 -1.0353,1.2892 -1.8575,2.2244 -2.4667,2.8057 -0.6092,0.5812 -1.7891,1.4124 -3.5397,2.4938 -1.7506,1.0813 -3.3222,1.9723 -4.7147,2.673 -1.3925,0.7006 -2.6156,1.4118 -3.6694,2.1335 -1.0536,0.7217 -1.7475,1.156 -2.0816,1.3029 -0.3341,0.1468 -0.769,0.2011 -1.3049,0.1628"
           style="fill:none;stroke:#202024;stroke-width:12.08145714;stroke-linecap:round;stroke-linejoin:round;stroke-miterlimit:10;stroke-dasharray:none;stroke-opacity:1"
           id="path8459"
           inkscape:connector-curvature="0" />
        <path
           style="fill:none;stroke:#202024;stroke-width:12.08145714;stroke-linecap:round;stroke-linejoin:round;stroke-miterlimit:10;stroke-dasharray:none;stroke-opacity:1"
           d="m 7391.3835,1991.0936 c 1.2537,6.0334 4.8239,11.0749 9.3599,15.1239 4.6833,5.1305 10.5053,8.9879 17.0436,11.3221 5.4734,2.4814 10.6446,5.5989 15.9091,8.4316 3.869,-0.7436 -0.3973,-8.1502 0.5656,-11.6995 -0.4681,-12.2984 1.4163,-24.4831 3.4583,-36.5643 2.0564,-5.8688 -6.6085,-6.4922 -8.971,-11.233 -5.9262,-5.8413 -12.2167,-11.761 -20.0737,-14.8388 -3.2217,-1.4414 0.2271,-8.975 -0.3826,-12.7223 1.2382,-4.3231 1.2507,-10.6347 4.0098,-13.4776 5.0817,2.7324 10.155,5.8833 15.989,6.746 5.2668,2.3193 9.3298,6.9127 15.2125,8.051 5.3439,1.5593 10.7151,5.1243 15.6624,5.9168 3.2485,-4.8546 7.3681,-9.2169 11.8281,-12.9587 5.032,-1.5261 9.0405,-5.9697 14.3124,-6.3986 4.8695,3.255 7.6499,6.8093 9.9334,12.7803 2.0252,4.6828 6.8583,9.4804 4.1285,14.6418 -7.6984,5.1967 -11.2687,8.6002 -18.4258,14.5429 -3.8109,3.6722 -9.2549,4.3842 -13.2117,7.6195 -5.4506,0.6852 0.7211,8.7806 -0.4576,12.763 0.2499,10.2002 1.1523,20.3546 2.708,30.4385 -0.066,4.7121 0.513,12.8941 7.0423,8.179 1.6285,-1.1144 3.5698,-1.1148 4.9858,0.3469"
           id="path8461"
           inkscape:connector-curvature="0"
           sodipodi:nodetypes="ccccccccccccccccccccccc" />
      </g>
      <path
         style="opacity:1;fill:#b8b4ba;fill-opacity:1;stroke:none;stroke-width:1;stroke-linecap:round;stroke-linejoin:round;stroke-miterlimit:4;stroke-dasharray:3, 3;stroke-dashoffset:0;stroke-opacity:1"
         d="m 2371.7789,-217.81347 c -16.6667,-0.48931 -30.6968,12.05384 -38.8028,25.48047 -0.6316,6.1658 8.0944,5.56243 10.9375,2.02539 10.5027,-7.07275 21.1188,-15.87783 34.209,-16.6621 4.3298,0.0871 13.8334,-1.90444 9.1113,-7.67579 -4.1087,-3.37456 -10.4526,-2.75776 -15.455,-3.16797 z"
         id="path8463"
         inkscape:connector-curvature="0" />
      <path
         style="opacity:1;fill:#2a242c;fill-opacity:1;stroke:none;stroke-width:10;stroke-linecap:round;stroke-linejoin:round;stroke-miterlimit:4;stroke-dasharray:30, 30;stroke-dashoffset:0;stroke-opacity:1"
         d="m 2408.9156,-156.73814 c -10.3307,3.15758 -18.3815,10.57135 -25.0391,18.27148 -8.0592,-0.0148 -14.9376,-4.92748 -22.6973,-6.94726 -8.0474,-4.80181 -16.8442,-8.40417 -25.8668,-11.10742 -4.727,1.4685 -2.7386,8.21217 -4.2727,11.8256 -1.1097,3.97204 -1.4594,8.72873 3.8647,9.95597 10.0238,6.01297 19.0916,14.0457 27.3887,22.03874 -0.047,11.98681 -3.6616,23.86378 -3.8533,35.92687 0.7655,6.29715 11.0547,1.90429 15.8408,3.20985 5.0335,-1.14413 13.2324,2.47128 16.1611,-2.14453 -0.7773,-10.75599 -1.2736,-21.63694 -3.2691,-32.23047 2.4416,-6.31455 11.3215,-6.83255 16.0447,-11.25182 7.1701,-5.07037 14.6852,-10.17869 21.0856,-15.89271 -3.6899,-7.3051 -6.6135,-16.18474 -13.6511,-21.36914 -0.5402,-0.22903 -1.1435,-0.34553 -1.7362,-0.28516 z"
         id="path8465"
         inkscape:connector-curvature="0" />
    </g>
    <g
       transform="matrix(0.43953596,0,0,0.4402405,-968.90765,794.8928)"
       id="g8467">
      <path
         style="opacity:1;fill:#eda14f;fill-opacity:1;stroke:none;stroke-width:10;stroke-linecap:round;stroke-linejoin:round;stroke-miterlimit:4;stroke-dasharray:30, 30;stroke-dashoffset:0;stroke-opacity:1"
         d="m 2631.9844,-218.05273 c -17.2662,6.49556 -37.037,10.84529 -54.6295,2.94012 -5.6465,-3.16424 -13.7438,0.0536 -13.6752,7.08136 2.4889,35.7224 3.9795,72.8614 18.2441,106.38086 7.3897,14.313437 22.6081,22.271332 36.6114,28.763671 4.9081,0.870642 9.0553,3.364558 12.1347,7.197266 6.8085,4.448945 13.3705,-2.261278 18.6485,-5.855469 13.2081,-7.956319 27.2804,-16.606253 33.9093,-31.237918 15.734,-29.71358 18.9826,-64.00372 21.3244,-96.96077 -0.6281,-5.48226 2.2475,-14.36324 -4.5248,-16.80912 -7.0826,-0.86456 -12.4573,5.73374 -19.082,6.96289 -10.0019,3.81674 -20.9403,1.78057 -30.1504,-3.13086 -5.9412,-2.60944 -12.1491,-5.7415 -18.8105,-5.33203 z"
         id="path8469"
         inkscape:connector-curvature="0" />
      <path
         inkscape:connector-curvature="0"
         id="path8471"
         d="m 2581.9238,-101.65039 c 7.3897,14.313437 22.6081,22.271332 36.6114,28.763671 4.9081,0.870642 9.0553,3.364558 12.1347,7.197266 6.8085,4.448945 13.3705,-2.261278 18.6485,-5.855469 13.2081,-7.956319 27.2804,-16.606253 33.9093,-31.237918 15.734,-29.71358 18.9826,-64.00372 21.3244,-96.96077 -29.7561,96.52133 -53.5737,117.7987 -122.6283,98.09322 z"
         style="opacity:1;fill:#ba7848;fill-opacity:1;stroke:none;stroke-width:10;stroke-linecap:round;stroke-linejoin:round;stroke-miterlimit:4;stroke-dasharray:30, 30;stroke-dashoffset:0;stroke-opacity:1"
         sodipodi:nodetypes="ccccccc" />
      <path
         inkscape:connector-curvature="0"
         id="path8473"
         d="m 2631.9844,-218.05273 c -17.2662,6.49556 -37.037,10.84529 -54.6295,2.94012 -5.6465,-3.16424 -13.7438,0.0536 -13.6752,7.08136 2.4889,35.7224 3.9795,72.8614 18.2441,106.38086 -0.6648,-24.76227 -17.2706,-107.51604 -0.5319,-96.61474 23.8774,15.55042 41.7855,-19.57386 73.0508,-0.64904 16.1689,9.78697 34.9036,-2.47449 44.2409,-6.31892 9.3373,-3.84444 11.7045,-6.99672 1.3437,-11.31964 -7.0826,-0.86456 -12.4573,5.73374 -19.082,6.96289 -10.0019,3.81674 -20.9403,1.78057 -30.1504,-3.13086 -5.9412,-2.60944 -12.1491,-5.7415 -18.8105,-5.33203 z"
         style="opacity:1;fill:#ffee8d;fill-opacity:1;stroke:none;stroke-width:10;stroke-linecap:round;stroke-linejoin:round;stroke-miterlimit:4;stroke-dasharray:30, 30;stroke-dashoffset:0;stroke-opacity:1"
         sodipodi:nodetypes="ccccssscccc" />
      <g
         id="g8475"
         style="stroke:#202024;stroke-width:1.29750288;stroke-opacity:1"
         transform="matrix(1.1269855,0,0,1.1260873,-6025.9661,-2341.4094)">
        <path
           style="fill:none;stroke:#202024;stroke-width:10.24083233;stroke-linecap:round;stroke-linejoin:round;stroke-miterlimit:10;stroke-dasharray:none;stroke-opacity:1"
           d="m 7625.1617,1884.3616 c 6.411,5.1106 14.6084,7.3958 22.5243,8.9558 8.853,0.4541 17.8512,-0.2688 26.1883,-3.4774 4.5827,-0.031 7.8664,-7.1389 12.2899,-3.9904 4.5026,2.7108 9.288,4.8258 14.3546,6.2528 6.8221,3.168 14.729,6.3555 22.2447,3.5795 7.0767,-2.6028 14.4959,-5.1756 19.8226,-10.7957 0.4302,-0.5369 1.2464,-0.9468 1.3864,-1.668"
           id="path8477"
           inkscape:connector-curvature="0" />
        <path
           style="fill:none;stroke:#202024;stroke-width:10.24083233;stroke-linecap:round;stroke-linejoin:round;stroke-miterlimit:10;stroke-dasharray:none;stroke-opacity:1"
           d="m 7623.9281,1884.5894 c -0.7199,4.7877 -0.3178,10.1841 -0.5466,15.2065 0.818,16.0074 2.1594,32.0124 4.246,47.9054 2.3315,14.4226 6.5659,28.4945 11.4306,42.2434 2.5983,5.1458 7.4515,8.8752 11.9447,12.3379 6.6137,3.6507 12.0245,9.435 19.5396,11.3571 2.3932,1.9413 8.4147,-0.2906 8.4256,3.734"
           id="path8479"
           inkscape:connector-curvature="0" />
        <path
           style="fill:none;stroke:#202024;stroke-width:10.24083233;stroke-linecap:round;stroke-linejoin:round;stroke-miterlimit:10;stroke-dasharray:none;stroke-opacity:1"
           d="m 7744.9215,1884.2477 c 2.4775,10.9042 0.2018,22.1497 -0.4824,33.1442 -1.4439,12.0696 -2.4173,24.2225 -4.6629,36.1773 -4.2051,11.6742 -6.9364,24.0404 -13.1678,34.8845 -4.7203,5.6332 -7.1385,13.6382 -14.2848,16.8232 -9.5328,4.2447 -17.0202,11.8281 -26.1505,16.6977 -4.583,-0.3728 -10.4272,-4.1989 -13.5629,-7.5618"
           id="path8481"
           inkscape:connector-curvature="0" />
      </g>
      <g
         style="fill:#000000;fill-opacity:0;stroke:#434252;stroke-width:1.85210669;stroke-opacity:1"
         transform="matrix(0.78607015,0,0,0.7923438,2664.6191,-1514.7729)"
         id="g8483">
        <path
           d="m -54.769734,1716.6232 c -2.9874,-1.3952 -5.0509,-2.6202 -6.1904,-3.6749 -1.1395,-1.0546 -2.075,-2.1986 -2.8065,-3.4318 -0.7314,-1.2333 -1.2513,-2.2448 -1.5597,-3.0344 -0.3083,-0.7897 -0.6654,-2.1011 -1.071,-3.934 -0.4057,-1.833 -0.6205,-3.7181 -0.6445,-5.6553 -0.024,-1.9372 0.1617,-3.7815 0.5568,-5.5331 0.3951,-1.7515 0.9919,-3.3374 1.7903,-4.7576 0.7984,-1.4202 1.7533,-2.682 2.8647,-3.7854 1.1114,-1.1034 2.3813,-2.0387 3.8098,-2.8057 1.4286,-0.7671 3.0325,-1.3425 4.8119,-1.7263 1.7794,-0.3838 3.7751,-0.5697 5.9872,-0.5577 2.2122,0.013 3.9375,0.095 5.1758,0.2488 1.2382,0.1538 3.1168,0.5079 5.6357,1.0622 2.5189,0.5543 5.4402,1.4057 8.7639,2.5543 3.3236,1.1484 6.137,2.3209 8.4402,3.5174 2.30332,1.1963 3.91953,2.2461 4.84863,3.1492 0.92926,0.903 1.53443,1.613 1.81534,2.13 0.281,0.5169 0.55306,1.349 0.8162,2.4964 0.26321,1.1473 0.35812,2.3505 0.28472,3.6096 -0.0734,1.259 -0.31142,2.5095 -0.71441,3.7515 -0.40284,1.2419 -1.11794,2.7282 -2.14539,4.4591 -1.02752,1.7309 -1.89842,3.06 -2.61276,3.9874 -0.71441,0.9274 -1.49123,1.818 -2.33063,2.672 -0.8392,0.854 -1.5724,1.4218 -2.1996,1.7036 -0.6269,0.2817 -1.4395,0.4246 -2.4374,0.4286 -0.998,0 -1.8083,0.2183 -2.431,0.643 -0.6227,0.4247 -0.9052,1.2541 -0.8473,2.4881 0.058,1.234 0.037,2.4541 -0.062,3.6604 -0.099,1.2063 -0.3734,2.5633 -0.8224,4.0711 -0.4489,1.5078 -0.9149,2.5521 -1.398,3.133 -0.4831,0.5809 -0.9575,0.9579 -1.4231,1.1309 -0.4657,0.1731 -0.8033,0.2264 -1.0128,0.16 -0.2095,-0.067 -0.5755,-0.4108 -1.0982,-1.0328 -0.5226,-0.622 -1.1748,-1.253 -1.9567,-1.8929 -0.782,-0.64 -1.3051,-1.2244 -1.5696,-1.7533 -0.2645,-0.5289 -0.4054,-1.3507 -0.423,-2.4655 -0.017,-1.1148 -0.3238,-0.7593 -0.9186,1.0667 -0.5948,1.826 -1.1419,3.128 -1.6417,3.9061 -0.4995,0.778 -0.8609,1.1429 -1.084,1.0947 -0.2232,-0.048 -0.4529,-0.881 -0.6893,-2.4983 -0.2364,-1.6173 -0.4159,-2.6174 -0.5385,-3.0005 -0.1225,-0.383 -0.272,-0.6324 -0.4486,-0.7483 -0.1766,-0.1158 -0.5114,0.01 -1.0045,0.373 -0.493,0.3645 -1.4916,1.4573 -2.9958,3.2782 -1.504,1.821 -2.3749,2.8017 -2.6123,2.9424 -0.2374,0.1405 -0.5517,-0.1846 -0.9431,-0.9753 -0.3913,-0.7908 -0.7087,-1.7905 -0.9525,-2.9992 -0.2437,-1.2086 -0.4805,-1.9726 -0.7103,-2.2918 -0.2298,-0.3193 -0.4436,-1.2292 -0.6412,-2.7297 -0.1976,-1.5006 -0.5796,-2.236 -1.1459,-2.2062"
           style="fill:#000000;fill-opacity:0;stroke:#434252;stroke-width:14.61816788;stroke-linecap:round;stroke-linejoin:round;stroke-miterlimit:10;stroke-dasharray:none;stroke-opacity:1"
           id="path8485"
           inkscape:connector-curvature="0" />
        <path
           d="m -48.981034,1699.3134 c 0.949,0.7592 1.5676,1.4103 1.8559,1.9532 0.2884,0.5429 0.3415,0.9833 0.1591,1.3212 -0.1823,0.3378 -0.5043,0.6207 -0.9658,0.8486 -0.4616,0.2277 -0.8416,0.3387 -1.1399,0.3328 -0.2983,-0.01 -0.55,-0.09 -0.755,-0.2515 -0.2049,-0.1618 -0.4082,-0.6894 -0.6099,-1.5829 -0.2016,-0.8935 -0.2393,-1.5753 -0.113,-2.0453 0.1264,-0.4701 0.4572,-0.8639 0.9925,-1.1815 0.5354,-0.3176 0.7936,-0.3215 0.7746,-0.013 -0.019,0.3096 -0.2517,0.9041 -0.6987,1.7835 -0.4467,0.8793 -0.7598,1.4317 -0.9391,1.6573 -0.1795,0.2255 -0.3392,0.2492 -0.4794,0.071 -0.1401,-0.1781 -0.2189,-0.4503 -0.236,-0.8164 -0.017,-0.3661 0.053,-0.7218 0.2095,-1.0671 0.1569,-0.3453 0.3408,-0.6636 0.5519,-0.955 0.2111,-0.2914 0.5175,-0.5 0.9189,-0.6255"
           style="fill:#000000;fill-opacity:0;stroke:#434252;stroke-width:14.61816788;stroke-linecap:round;stroke-linejoin:round;stroke-miterlimit:10;stroke-dasharray:none;stroke-opacity:1"
           id="path8487"
           inkscape:connector-curvature="0" />
        <path
           d="m -27.344534,1699.8828 c -1.9857,0.7807 -3.2682,1.1909 -3.8475,1.2303 -0.5793,0.039 -0.9925,-0.1343 -1.2397,-0.521 -0.247,-0.3867 -0.2219,-0.7625 0.075,-1.1275 0.2973,-0.3651 0.7819,-0.5925 1.4539,-0.6824 0.6719,-0.09 1.205,-0.051 1.5993,0.118 0.3944,0.1686 0.6892,0.4037 0.8845,0.7051 0.1952,0.3015 0.3129,0.6378 0.3529,1.009 0.04,0.3712 -0.048,0.7954 -0.2642,1.2728 -0.2162,0.4772 -0.3945,0.6997 -0.535,0.6674 -0.1404,-0.032 -0.2677,-0.2762 -0.3821,-0.7311 -0.1142,-0.4549 -0.1539,-1.0237 -0.1187,-1.7065 0.035,-0.6827 0.1309,-1.1611 0.2868,-1.4352 0.156,-0.2742 0.1888,0.082 0.098,1.0667 -0.09,0.9852 -0.3175,1.6135 -0.6812,1.885 -0.3636,0.2714 -0.7639,0.4023 -1.2009,0.3928 -0.437,-0.01 -0.6028,-0.1163 -0.4975,-0.32 0.1053,-0.2038 0.3684,-0.3181 0.7893,-0.343"
           style="fill:#000000;fill-opacity:0;stroke:#434252;stroke-width:14.61816788;stroke-linecap:round;stroke-linejoin:round;stroke-miterlimit:10;stroke-dasharray:none;stroke-opacity:1"
           id="path8489"
           inkscape:connector-curvature="0" />
        <path
           d="m -63.974734,1757.3923 c 2.6748,-0.7334 5.8094,-2.0521 9.4037,-3.9563 3.5944,-1.9042 7.1212,-3.5519 10.5803,-4.9433 3.4594,-1.3914 7.404,-2.7322 11.834,-4.0223 4.4302,-1.2902 8.9346,-2.3107 13.5132,-3.0614 4.57853,-0.7507 7.00262,-1.2149 7.27217,-1.3924 0.26962,-0.1775 0.53444,-0.4366 0.79452,-0.7772 0.26002,-0.3405 0.30137,-0.515 0.12388,-0.5234"
           style="fill:#000000;fill-opacity:0;stroke:#434252;stroke-width:14.61816788;stroke-linecap:round;stroke-linejoin:round;stroke-miterlimit:10;stroke-dasharray:none;stroke-opacity:1"
           id="path8491"
           inkscape:connector-curvature="0" />
        <path
           d="m -9.3141735,1736.8939 c 0.18982,-10e-5 0.37056,0.2419 0.54215,0.7257 0.17166,0.4839 0.215,0.8918 0.13015,1.2238 -0.0849,0.3319 -0.24643,0.6149 -0.48447,0.8489 -0.23803,0.2339 -0.45058,0.156 -0.63766,-0.2338 -0.18707,-0.3897 -0.3447705,-1.0981 -0.4731705,-2.1249 -0.12833,-1.0268 -0.16717,-2.0332 -0.11638,-3.019 0.0509,-0.9858 0.14991,-1.5656 0.29739,-1.7394 0.1474005,-0.1738 0.3108205,-0.083 0.4902705,0.2713 0.17944,0.3546 0.33142,0.9431 0.45593,1.7654 0.12462,0.8223 0.1667,1.9934 0.1262,3.5133 -0.0406,1.5199 -0.22119,2.8639 -0.54185,4.0321 -0.32059,1.1682 -0.5630505,1.7626 -0.7273905,1.7833 -0.16417,0.021 -0.31929,-0.124 -0.46539,-0.4343 -0.14602,-0.3103 -0.26252,-0.8274 -0.34942,-1.5515 -0.0868,-0.7241 -0.0374,-1.3113 0.14816,-1.7614 0.1857,-0.4502 0.55541,-0.549 1.1093105,-0.2964 0.55382,0.2527 1.32019,0.77 2.2992,1.5521"
           style="fill:#000000;fill-opacity:0;stroke:#434252;stroke-width:14.61816788;stroke-linecap:round;stroke-linejoin:round;stroke-miterlimit:10;stroke-dasharray:none;stroke-opacity:1"
           id="path8493"
           inkscape:connector-curvature="0" />
        <path
           d="m -64.639034,1755.9119 c 1.4752,0.7468 2.0059,1.2118 1.5921,1.3952 -0.4137,0.1833 -0.9862,0.2732 -1.7175,0.2694 -0.7313,0 -1.3402,-0.077 -1.8268,-0.2211 -0.4866,-0.1437 -0.9383,-0.3557 -1.3553,-0.636 -0.4169,-0.2803 -0.7603,-0.6299 -1.0299,-1.0487 -0.2697,-0.4188 -0.4311,-0.8628 -0.4843,-1.3321 -0.053,-0.4692 0.015,-0.8843 0.2031,-1.2452 0.1886,-0.3609 0.4919,-0.5906 0.9099,-0.6891 0.4181,-0.099 1.0118,0.046 1.7812,0.4323 0.7694,0.3867 1.3361,0.8056 1.7001,1.2569 0.364,0.4513 0.6057,1.0069 0.7249,1.6668 0.1192,0.6599 0.01,1.1889 -0.3387,1.5868 -0.3449,0.3979 -0.7114,0.6197 -1.0995,0.6652 -0.388,0.045 -1.0666,-0.059 -2.0356,-0.3129 -0.969,-0.2543 -2.0165,-0.6223 -3.1427,-1.1042 -1.1261,-0.4819 -1.9074,-0.8876 -2.3437,-1.2173 -0.4363,-0.3296 -0.2829,-0.4085 0.4604,-0.2366 0.7432,0.1718 1.7938,0.5529 3.1518,1.1433 1.3579,0.5903 2.574,1.2152 3.6481,1.8745 1.0742,0.6593 1.8751,1.2534 2.4028,1.7825 0.5277,0.5289 0.7605,0.9596 0.6985,1.2921 -0.062,0.3325 -0.2749,0.5545 -0.6389,0.666 -0.364,0.1115 -0.9859,0.1266 -1.8658,0.045 -0.8798,-0.082 -1.8089,-0.2679 -2.7874,-0.5594 -0.9785,-0.2916 -0.8687,0.069 0.3293,1.0814 1.1981,1.0125 1.8104,1.6677 1.837,1.9655 0.027,0.2977 -0.1186,0.5521 -0.4357,0.7631 -0.317,0.2109 -0.9786,0.2681 -1.9849,0.1715 -1.0061,-0.097 -1.7891,-0.3143 -2.3487,-0.6533 -0.5596,-0.3389 -0.8601,-0.5683 -0.9017,-0.6879 -0.042,-0.1197 0.17,-0.319 0.6347,-0.5978"
           style="fill:#000000;fill-opacity:0;stroke:#434252;stroke-width:14.61816788;stroke-linecap:round;stroke-linejoin:round;stroke-miterlimit:10;stroke-dasharray:none;stroke-opacity:1"
           id="path8495"
           inkscape:connector-curvature="0" />
        <path
           d="m -62.361434,1737.4632 c 0.8857,0 1.5148,0.08 1.8874,0.2392 0.3727,0.1595 2.2876,1.3066 5.7445,3.4414 3.457,2.1347 6.5085,3.798 9.1545,4.9896 2.6461,1.1917 5.8141,2.7161 9.5038,4.5734 3.6898,1.8572 6.2231,3.0758 7.5999,3.6559 1.3768,0.5801 2.9633,1.1348 4.7597,1.664 1.7963,0.5292 3.1792,1.2881 4.1486,2.2766"
           style="fill:#000000;fill-opacity:0;stroke:#434252;stroke-width:14.61816788;stroke-linecap:round;stroke-linejoin:round;stroke-miterlimit:10;stroke-dasharray:none;stroke-opacity:1"
           id="path8497"
           inkscape:connector-curvature="0" />
        <path
           d="m -15.956944,1761.9475 c -0.18981,-0.8351 -0.1773,-1.458 0.0374,-1.8686 0.21477,-0.4107 0.4541,-0.7368 0.71808,-0.9784 0.26399,-0.2416 0.62966,-0.3762 1.09696,-0.4039 0.46738,-0.028 0.95734,0.038 1.47003,0.1977 0.51285,0.1595 0.98633,0.409 1.4206,0.7485 0.43418,0.3397 0.70785,0.6749 0.82092,1.0057 0.11325,0.3308 0.0634,0.7317 -0.1497,1.2025 -0.21301,0.4709 -0.49002,0.7481 -0.83114,0.832 -0.34103,0.084 -0.71418,0 -1.11938,-0.2626 -0.40513,-0.2589 -0.78285,-0.6518 -1.13312,-1.1787 -0.3502,-0.5269 -0.61096,-1.0821 -0.78232,-1.6658 -0.17135,-0.5836 -0.25055,-0.996 -0.23758,-1.2372 0.013,-0.2412 0.1326,-0.5098 0.35858,-0.8057 0.22606,-0.2959 0.52674,-0.4757 0.9021,-0.5392 0.37529,-0.064 0.74737,-0.031 1.11619,0.098 0.36887,0.1287 0.6829,0.3474 0.94207,0.656 0.25909,0.3085 0.44471,0.6861 0.55679,1.1327 0.11225,0.4465 0.14756,0.9149 0.106,1.405 -0.0414,0.4902 -0.15389,0.943 -0.33753,1.3588 -0.18371,0.4156 -0.43625,0.7568 -0.7576,1.0234 -0.32142,0.2666 -0.70015,0.4536 -1.13616,0.561 -0.43595,0.1074 -1.35414,0.099 -2.75451,-0.026 -1.40046,-0.1245 -2.26609,-0.1554 -2.59687,-0.093 -0.3309,0.063 -0.01,0.2111 0.96601,0.4453 0.97496,0.2341 1.59972,0.4494 1.87423,0.646 0.2745,0.1965 0.46807,0.5769 0.58075,1.141 0.11263,0.5641 0.0159,1.2208 -0.29037,1.9699 -0.3064,0.7491 -0.51255,1.1507 -0.61844,1.2046 -0.10587,0.054 -0.2781,-0.1353 -0.51666,-0.5678 -0.23865,-0.4325 -0.4567,-1.2562 -0.6543,-2.4711"
           style="fill:#000000;fill-opacity:0;stroke:#434252;stroke-width:14.61816788;stroke-linecap:round;stroke-linejoin:round;stroke-miterlimit:10;stroke-dasharray:none;stroke-opacity:1"
           id="path8499"
           inkscape:connector-curvature="0" />
        <path
           d="m -65.587934,1733.7052 c 0.01,-1.1162 0.1659,-1.5825 0.483,-1.3989 0.3172,0.1835 0.6664,0.498 1.0475,0.9434 0.3813,0.4454 0.7921,1.1101 1.2325,1.9943 0.4403,0.884 0.6655,1.6098 0.6753,2.1772 0.01,0.5674 -0.1609,0.7301 -0.5121,0.4882 -0.3512,-0.242 -0.7539,-0.8014 -1.2083,-1.6781 -0.4542,-0.8767 -0.9137,-2.0695 -1.3785,-3.5786 -0.4647,-1.5091 -0.6846,-2.5193 -0.6595,-3.0309 0.025,-0.5115 0.1756,-0.7029 0.4516,-0.5742 0.2761,0.1287 0.5921,0.4004 0.9482,0.8153 0.356,0.4149 0.6777,0.8398 0.9652,1.2746 0.2875,0.4348 0.4868,0.8464 0.598,1.2348 0.1112,0.3883 0.1686,1.3356 0.1721,2.8418 0,1.5062 -0.1481,2.8236 -0.455,3.9523 -0.3069,1.1287 -0.598,1.7198 -0.8735,1.773 -0.2755,0.053 -0.8662,-0.1686 -1.7721,-0.6657 -0.9059,-0.4972 -1.4985,-0.3681 -1.7779,0.3871 -0.2794,0.7552 -1.1893,1.0383 -2.7299,0.8494 -1.5404,-0.1889 -2.3994,-0.372 -2.5769,-0.5493 -0.1775,-0.1774 -0.1209,-0.4623 0.17,-0.855 0.2908,-0.3927 0.6378,-0.7259 1.041,-0.9995 0.4031,-0.2735 0.8292,-0.4813 1.2783,-0.6232 0.4491,-0.1419 0.8424,-0.1403 1.18,0"
           style="fill:#000000;fill-opacity:0;stroke:#434252;stroke-width:14.61816788;stroke-linecap:round;stroke-linejoin:round;stroke-miterlimit:10;stroke-dasharray:none;stroke-opacity:1"
           id="path8501"
           inkscape:connector-curvature="0" />
        <path
           d="m -10.358024,1759.7838 c 0.35515,-0.4704 0.7347105,-0.5463 1.1387605,-0.2278"
           style="fill:#000000;fill-opacity:0;stroke:#434252;stroke-width:14.61816788;stroke-linecap:round;stroke-linejoin:round;stroke-miterlimit:10;stroke-dasharray:none;stroke-opacity:1"
           id="path8503"
           inkscape:connector-curvature="0" />
      </g>
    </g>
    <g
       id="g8505"
       transform="matrix(0.38166809,0,0,0.38300356,-2946.3699,230.2805)">
      <path
         inkscape:connector-curvature="0"
         id="path8507"
         d="m 8221.2188,1601.7189 c -3.906,-0.01 -1.5091,6.8144 -5.9571,5.0254 -2.8193,-1.0083 -7.6144,-5.4871 -9.2812,-0.5996 -0.048,4.469 0.877,11.1854 -5.2989,12.0097 -3.3236,1.1769 -11.1231,-1.8373 -9.7578,3.6387 12.6518,11.6957 18.2557,28.2601 25.2532,43.5687 7.0974,16.8916 6.6695,37.1991 19.4653,51.5188 7.5945,8.7758 14.1437,20.8693 26.3011,23.6625 11.2581,2.8497 21.786,-3.8558 29.4511,-11.4649 8.2176,-7.4506 17.6109,-15.6079 18.5176,-27.498 2.7183,-19.2234 0.3765,-41.8685 -15.2988,-55.2637 -13.9783,-12.6878 -32.3061,-18.1845 -47.5899,-28.955 -8.6167,-4.9846 -16.5352,-12.1725 -25.8046,-15.6426 z"
         style="opacity:1;fill:#923f28;fill-opacity:1;stroke:none;stroke-width:1;stroke-linecap:round;stroke-linejoin:round;stroke-miterlimit:4;stroke-dasharray:3, 3;stroke-dashoffset:0;stroke-opacity:1" />
      <path
         inkscape:connector-curvature="0"
         id="path8509"
         d="m 8187.041,1543.84 c -8.4682,0.293 -20.9512,2.1829 -22.8359,12.1914 -1.1383,5.3988 5.0087,8.9233 4.75,13.8808 -3.5714,2.9136 -6.9378,-0.7045 -9.834,-2.5254 -7.8946,-2.2048 -15.8349,3.8253 -20.3828,9.7559 -3.0194,6.5135 4.3663,15.6099 11.5058,12.5469 9.8326,-1.2878 19.2694,3.2201 26.4574,9.6302 4.6575,3.3414 10.3627,6.1423 12.4801,11.6842 2.273,2.6995 9.4754,3.5293 8.3789,-1.6504 -1.4524,-3.1483 -4.6475,-9.2908 -0.098,-11.2695 3.4662,0.8055 6.7032,-2.8525 3.543,-5.6191 -6.7154,-9.2597 -16.5032,-20.3099 -11.5723,-32.5977 0.9492,-4.7178 6.4423,-11.481 1.5684,-15.4668 -1.2235,-0.6022 -2.6296,-0.5944 -3.961,-0.5605 z"
         style="opacity:1;fill:#ffee8d;fill-opacity:1;stroke:none;stroke-width:1;stroke-linecap:round;stroke-linejoin:round;stroke-miterlimit:4;stroke-dasharray:3, 3;stroke-dashoffset:0;stroke-opacity:1" />
      <g
         style="stroke:#202024;stroke-width:1.68171084;stroke-opacity:1"
         id="g8511"
         transform="translate(180.91788,1934.0983)">
        <path
           inkscape:connector-curvature="0"
           id="path8513"
           d="m 8030.6155,-342.51985 c 13.3206,9.09207 28.0813,16.22698 40.9479,26.12698 7.5688,6.987 17.4157,9.6005 26.3834,14.09325 12.6813,6.06912 23.3539,15.86944 29.7649,28.44922 4.425,9.48387 4.3436,20.37576 5.5913,30.61263 -1.1606,9.55719 -1.8756,20.22384 -8.05,28.06789 -8.3787,8.02705 -16.0832,17.49192 -26.6227,22.73017 -12.087,4.80329 -27.7582,2.18847 -35.2103,-9.20998 -8.5931,-11.98083 -20.9049,-22.58976 -22.9674,-37.97282 -2.3934,-14.26762 -5.8033,-28.64523 -13.885,-40.88207 -2.6834,-9.63355 -6.934,-18.68766 -14.5532,-25.49586 -6.7572,-4.00632 -13.2243,-19.20986 -0.036,-12.37671 6.9858,3.18552 16.5603,-3.02265 6.9042,-8.37368 -2.9029,-3.96271 -4.2182,-10.86598 2.1072,-4.84904 5.7597,4.30333 -2.6001,-8.72213 6.0933,-3.4809 3.0192,1.18818 5.4403,3.44118 7.7792,5.61872"
           style="fill:none;stroke:#202024;stroke-width:13.273283;stroke-linecap:round;stroke-linejoin:round;stroke-miterlimit:10;stroke-dasharray:none;stroke-opacity:1" />
        <path
           inkscape:connector-curvature="0"
           id="path8515"
           d="m 8029.3002,-336.59 c -7.9473,-9.80192 -20.8149,-18.72466 -19.7636,-32.87253 1.365,-8.22778 12.8248,-19.46921 -0.8692,-23.49271 -9.464,-2.38558 -22.2392,2.49982 -27.5511,11.16027 -4.4998,5.00613 3.8596,17.50278 3.3711,16.64478"
           style="fill:none;stroke:#202024;stroke-width:13.273283;stroke-linecap:round;stroke-linejoin:round;stroke-miterlimit:10;stroke-dasharray:none;stroke-opacity:1" />
        <path
           inkscape:connector-curvature="0"
           id="path8517"
           d="m 7983.9462,-365.29967 c 0.5396,-0.3089 1.0791,-0.61781 1.6187,-0.92671"
           style="fill:none;stroke:#202024;stroke-width:13.273283;stroke-linecap:round;stroke-linejoin:round;stroke-miterlimit:10;stroke-dasharray:none;stroke-opacity:1" />
        <path
           inkscape:connector-curvature="0"
           id="path8519"
           d="m 7985.7676,-365.04465 c -7.3365,-7.93611 -18.9939,-5.29321 -25.907,1.67094 -9.9356,6.04939 -5.5309,20.29562 5.0659,22.18916 8.479,-1.49037 18.7679,-1.41205 25.0551,5.40476 4.5318,2.71081 8.4243,9.2727 13.7699,9.27968"
           style="fill:none;stroke:#202024;stroke-width:13.273283;stroke-linecap:round;stroke-linejoin:round;stroke-miterlimit:10;stroke-dasharray:none;stroke-opacity:1" />
      </g>
      <path
         sodipodi:nodetypes="cccccccc"
         style="opacity:1;fill:#cc3a3a;fill-opacity:1;stroke:none;stroke-width:1;stroke-linecap:round;stroke-linejoin:round;stroke-miterlimit:4;stroke-dasharray:3, 3;stroke-dashoffset:0;stroke-opacity:1"
         d="m 8221.2188,1601.7189 c -3.906,-0.01 -1.5091,6.8144 -5.9571,5.0254 -2.8193,-1.0083 -7.6144,-5.4871 -9.2812,-0.5996 42.6495,32.4241 97.0918,27.5723 85.414,122.9335 8.2176,-7.4506 17.6109,-15.6079 18.5176,-27.498 2.7183,-19.2234 0.3765,-41.8685 -15.2988,-55.2637 -13.9783,-12.6878 -32.3061,-18.1845 -47.5899,-28.955 -8.6167,-4.9846 -16.5352,-12.1725 -25.8046,-15.6426 z"
         id="path8521"
         inkscape:connector-curvature="0" />
    </g>
    <g
       id="g8523"
       transform="matrix(0.44237652,0,0,0.44141832,-618.18675,659.49805)">
      <path
         inkscape:connector-curvature="0"
         id="path8525"
         d="m 2062.8398,-197.83775 c -9.2268,-0.21846 -19.0373,4.47797 -21.7207,13.91016 -7.2334,22.02595 1.8646,45.35165 12.6485,64.54297 12.1973,19.19791 29.3578,34.54424 43.5114,52.23466 3.557,2.98712 6.5417,8.93943 11.6976,8.78877 12.2107,-6.53389 21.8252,-17.05117 33.7817,-24.09498 16.7975,-9.88408 32.3652,-23.70858 38.6064,-42.74886 4.7956,-15.5939 12.0092,-31.59557 10.1099,-48.25186 -2.0895,-10.64313 -11.1512,-21.2055 -22.8476,-20.11914 -11.1953,-1.01222 -22.1858,3.0886 -30.4397,10.6215 -8.9693,6.97778 -17.2545,15.69884 -26.8201,21.45077 0.4993,-2.76442 0.3919,-5.52469 -2.1504,-7.53711 -11.8344,-13.77996 -26.8772,-28.8796 -46.377,-28.79688 z"
         style="opacity:1;fill:#f5f2e3;fill-opacity:1;stroke:none;stroke-width:1;stroke-linecap:round;stroke-linejoin:round;stroke-miterlimit:4;stroke-dasharray:3, 3;stroke-dashoffset:0;stroke-opacity:1" />
      <g
         transform="matrix(1.4882909,0,0,1.4919439,-8548.7434,-3085.6154)"
         style="stroke:#202024;stroke-width:0.97645968;stroke-opacity:1"
         id="g8531">
        <path
           sodipodi:nodetypes="ccccccccccccc"
           inkscape:connector-curvature="0"
           id="path8533"
           d="m 7165.2741,1954.6277 c -8.1464,-5.3022 -12.9272,-15.0914 -22.5067,-18.4943 -7.6274,-3.0391 -17.0677,-3.8997 -24.3757,0.3218 -4.944,4.9566 -6.9475,12.4068 -7.4778,19.2287 0.3018,10.8274 4.8487,21.0648 9.3534,30.7281 8.2797,14.9628 22.0577,25.6078 32.3079,39.0473 5.7217,11.7755 15.5431,2.2793 21.5636,-3.6255 11.6942,-9.051 26.8795,-14.9268 34.4004,-28.3731 4.8532,-12.0303 9.4186,-25.2027 10.615,-38.0312 0.1955,-6.2862 -4.3819,-13.4655 -9.1452,-17.9566 -6.17,-2.0796 -12.7889,-0.3956 -19.125,-0.4281 -8.0353,1.9836 -13.1889,9.1731 -19.8566,13.5774 -2.7029,2.2494 -5.2756,4.6935 -7.3666,7.534"
           style="fill:none;stroke:#202024;stroke-width:7.70692778;stroke-linecap:round;stroke-linejoin:round;stroke-miterlimit:10;stroke-dasharray:none;stroke-opacity:1" />
      </g>
    </g>
    <g
       id="g8660"
       transform="matrix(0.64297735,0,0,0.64297735,-1369.2697,460.08754)">
      <path
         inkscape:connector-curvature="0"
         id="path8558"
         d="m 2628.5079,372.37088 c -11.8031,4.44745 -25.3183,7.42567 -37.3445,2.01308 -3.8599,-2.16653 -9.3952,0.0367 -9.3483,4.84854 1.7014,24.45878 2.7204,49.88751 12.4716,72.83796 5.0516,9.80028 15.4548,15.24897 25.0274,19.69421 3.3551,0.59612 6.1901,2.30369 8.2952,4.9279 4.6542,3.04615 9.14,-1.54827 12.748,-4.00918 9.029,-5.44762 18.6487,-11.37014 23.1802,-21.38831 10.7557,-20.3446 12.9764,-43.82274 14.5773,-66.38812 -0.4294,-3.75365 1.5363,-9.83437 -3.0932,-11.50904 -4.8416,-0.59196 -8.5157,3.92584 -13.0443,4.76742 -6.8373,2.61329 -14.3147,1.21914 -20.6107,-2.14367 -4.0614,-1.78666 -8.305,-3.93115 -12.8587,-3.65079 z"
         style="opacity:1;fill:#f5f2e3;fill-opacity:1;stroke:none;stroke-width:10;stroke-linecap:round;stroke-linejoin:round;stroke-miterlimit:4;stroke-dasharray:30, 30;stroke-dashoffset:0;stroke-opacity:1" />
      <g
         transform="matrix(0.7704014,0,0,0.7710213,-3290.0219,-1081.4713)"
         style="stroke:#202024;stroke-width:1.29750288;stroke-opacity:1"
         id="g8564">
        <path
           inkscape:connector-curvature="0"
           id="path8566"
           d="m 7625.1617,1884.3616 c 6.411,5.1106 14.6084,7.3958 22.5243,8.9558 8.853,0.4541 17.8512,-0.2688 26.1883,-3.4774 4.5827,-0.031 7.8664,-7.1389 12.2899,-3.9904 4.5026,2.7108 9.288,4.8258 14.3546,6.2528 6.8221,3.168 14.729,6.3555 22.2447,3.5795 7.0767,-2.6028 14.4959,-5.1756 19.8226,-10.7957 0.4302,-0.5369 1.2464,-0.9468 1.3864,-1.668"
           style="fill:none;stroke:#202024;stroke-width:10.24083233;stroke-linecap:round;stroke-linejoin:round;stroke-miterlimit:10;stroke-dasharray:none;stroke-opacity:1" />
        <path
           inkscape:connector-curvature="0"
           id="path8568"
           d="m 7623.9281,1884.5894 c -0.7199,4.7877 -0.3178,10.1841 -0.5466,15.2065 0.818,16.0074 2.1594,32.0124 4.246,47.9054 2.3315,14.4226 6.5659,28.4945 11.4306,42.2434 2.5983,5.1458 7.4515,8.8752 11.9447,12.3379 6.6137,3.6507 12.0245,9.435 19.5396,11.3571 2.3932,1.9413 8.4147,-0.2906 8.4256,3.734"
           style="fill:none;stroke:#202024;stroke-width:10.24083233;stroke-linecap:round;stroke-linejoin:round;stroke-miterlimit:10;stroke-dasharray:none;stroke-opacity:1" />
        <path
           inkscape:connector-curvature="0"
           id="path8570"
           d="m 7744.9215,1884.2477 c 2.4775,10.9042 0.2018,22.1497 -0.4824,33.1442 -1.4439,12.0696 -2.4173,24.2225 -4.6629,36.1773 -4.2051,11.6742 -6.9364,24.0404 -13.1678,34.8845 -4.7203,5.6332 -7.1385,13.6382 -14.2848,16.8232 -9.5328,4.2447 -17.0202,11.8281 -26.1505,16.6977 -4.583,-0.3728 -10.4272,-4.1989 -13.5629,-7.5618"
           style="fill:none;stroke:#202024;stroke-width:10.24083233;stroke-linecap:round;stroke-linejoin:round;stroke-miterlimit:10;stroke-dasharray:none;stroke-opacity:1" />
      </g>
    </g>
    <g
       id="g8651"
       transform="matrix(0.64297735,0,0,0.64297735,-1537.1269,583.65897)">
      <path
         style="opacity:1;fill:#f5f2e3;fill-opacity:1;stroke:none;stroke-width:1;stroke-linecap:round;stroke-linejoin:round;stroke-miterlimit:4;stroke-dasharray:3, 3;stroke-dashoffset:0;stroke-opacity:1"
         d="m 2889.4013,404.34966 c -2.3186,-0.006 -0.8958,4.05915 -3.5361,2.99349 -1.6735,-0.60061 -4.5199,-3.26851 -5.5093,-0.35716 -0.028,2.66206 0.5206,6.66283 -3.1454,7.15384 -1.9729,0.70104 -6.6026,-1.09443 -5.7922,2.16747 7.5101,6.9668 10.8365,16.83375 14.9902,25.95265 4.213,10.06185 3.959,22.15846 11.5545,30.6883 4.5081,5.2275 8.3956,12.43126 15.6122,14.09509 6.6828,1.69749 12.9321,-2.29679 17.482,-6.82932 4.878,-4.43811 10.4538,-9.29719 10.992,-16.37979 1.6136,-11.45083 0.2235,-24.93989 -9.0813,-32.91903 -8.2974,-7.55777 -19.1767,-10.832 -28.2491,-17.24768 -5.1149,-2.96919 -9.8152,-7.25082 -15.3175,-9.31786 z"
         id="path8596"
         inkscape:connector-curvature="0" />
      <path
         style="opacity:1;fill:#f5f2e3;fill-opacity:1;stroke:none;stroke-width:1;stroke-linecap:round;stroke-linejoin:round;stroke-miterlimit:4;stroke-dasharray:3, 3;stroke-dashoffset:0;stroke-opacity:1"
         d="m 2869.1135,369.87283 c -5.0267,0.17453 -12.4365,1.30029 -13.5552,7.26207 -0.6757,3.21592 2.9731,5.31536 2.8195,8.2684 -2.1199,1.73555 -4.1182,-0.41965 -5.8374,-1.50431 -4.6862,-1.31333 -9.3995,2.27863 -12.0991,5.81132 -1.7923,3.87991 2.5918,9.29838 6.8298,7.47384 5.8366,-0.76711 11.4382,1.91812 15.705,5.73644 2.7646,1.99037 6.1512,3.65879 7.4081,6.95995 1.3492,1.60801 5.6245,2.1023 4.9737,-0.9831 -0.8622,-1.87536 -2.7588,-5.53427 -0.058,-6.71293 2.0575,0.47982 3.979,-1.69915 2.1031,-3.34714 -3.9862,-5.51574 -9.7962,-12.09803 -6.8693,-19.41753 0.5635,-2.81026 3.8241,-6.83891 0.931,-9.21314 -0.7262,-0.35871 -1.5609,-0.35407 -2.3512,-0.33387 z"
         id="path8598"
         inkscape:connector-curvature="0" />
      <g
         transform="matrix(0.59359493,0,0,0.59567192,-1883.2806,602.33874)"
         id="g8600"
         style="stroke:#202024;stroke-width:1.68171084;stroke-opacity:1">
        <path
           style="fill:none;stroke:#202024;stroke-width:13.273283;stroke-linecap:round;stroke-linejoin:round;stroke-miterlimit:10;stroke-dasharray:none;stroke-opacity:1"
           d="m 8030.6155,-342.51985 c 13.3206,9.09207 28.0813,16.22698 40.9479,26.12698 7.5688,6.987 17.4157,9.6005 26.3834,14.09325 12.6813,6.06912 23.3539,15.86944 29.7649,28.44922 4.425,9.48387 4.3436,20.37576 5.5913,30.61263 -1.1606,9.55719 -1.8756,20.22384 -8.05,28.06789 -8.3787,8.02705 -16.0832,17.49192 -26.6227,22.73017 -12.087,4.80329 -27.7582,2.18847 -35.2103,-9.20998 -8.5931,-11.98083 -20.9049,-22.58976 -22.9674,-37.97282 -2.3934,-14.26762 -5.8033,-28.64523 -13.885,-40.88207 -2.6834,-9.63355 -6.934,-18.68766 -14.5532,-25.49586 -6.7572,-4.00632 -13.2243,-19.20986 -0.036,-12.37671 6.9858,3.18552 16.5603,-3.02265 6.9042,-8.37368 -2.9029,-3.96271 -4.2182,-10.86598 2.1072,-4.84904 5.7597,4.30333 -2.6001,-8.72213 6.0933,-3.4809 3.0192,1.18818 5.4403,3.44118 7.7792,5.61872"
           id="path8602"
           inkscape:connector-curvature="0" />
        <path
           style="fill:none;stroke:#202024;stroke-width:13.273283;stroke-linecap:round;stroke-linejoin:round;stroke-miterlimit:10;stroke-dasharray:none;stroke-opacity:1"
           d="m 8029.3002,-336.59 c -7.9473,-9.80192 -20.8149,-18.72466 -19.7636,-32.87253 1.365,-8.22778 12.8248,-19.46921 -0.8692,-23.49271 -9.464,-2.38558 -22.2392,2.49982 -27.5511,11.16027 -4.4998,5.00613 3.8596,17.50278 3.3711,16.64478"
           id="path8604"
           inkscape:connector-curvature="0" />
        <path
           style="fill:none;stroke:#202024;stroke-width:13.273283;stroke-linecap:round;stroke-linejoin:round;stroke-miterlimit:10;stroke-dasharray:none;stroke-opacity:1"
           d="m 7983.9462,-365.29967 c 0.5396,-0.3089 1.0791,-0.61781 1.6187,-0.92671"
           id="path8606"
           inkscape:connector-curvature="0" />
        <path
           style="fill:none;stroke:#202024;stroke-width:13.273283;stroke-linecap:round;stroke-linejoin:round;stroke-miterlimit:10;stroke-dasharray:none;stroke-opacity:1"
           d="m 7985.7676,-365.04465 c -7.3365,-7.93611 -18.9939,-5.29321 -25.907,1.67094 -9.9356,6.04939 -5.5309,20.29562 5.0659,22.18916 8.479,-1.49037 18.7679,-1.41205 25.0551,5.40476 4.5318,2.71081 8.4243,9.2727 13.7699,9.27968"
           id="path8608"
           inkscape:connector-curvature="0" />
      </g>
    </g>
    <g
       id="g8616"
       transform="matrix(0.64297735,0,0,0.64297735,-1210.6983,851.51611)">
      <g
         id="g8535"
         transform="matrix(0.63130622,0,0,0.63654456,875.75295,508.7896)">
        <g
           id="g8546"
           style="stroke:#202024;stroke-width:1.53070807;stroke-opacity:1"
           transform="matrix(1.0620535,0,0,1,-5539.2392,-2086.4491)">
          <path
             d="m 7392.5223,1988.3605 c -0.3103,-3.3207 -0.4508,-9.143 -0.4215,-17.4669 0.029,-8.3239 -0.026,-16.2624 -0.1669,-23.8157 -0.1407,-7.5533 -0.094,-13.2263 0.1397,-17.019 0.2338,-3.7929 0.696,-7.2475 1.3868,-10.3639 0.6908,-3.1166 1.9714,-7.3009 3.842,-12.553 1.8706,-5.2523 3.4328,-9.2953 4.6867,-12.129 1.2538,-2.8339 2.6135,-5.5205 4.0789,-8.0599 1.4656,-2.5394 3.1448,-4.9958 5.0378,-7.3691 1.893,-2.3733 4.0239,-4.6991 6.3926,-6.9774 2.3687,-2.2783 5.2392,-4.6557 8.6114,-7.1322 3.3722,-2.4765 5.554,-3.971 6.5455,-4.4836 0.9916,-0.5126 2.053,-0.9587 3.1843,-1.3383 1.1313,-0.3797 2.299,-0.6951 3.503,-0.9465 1.204,-0.2514 2.7294,-0.4486 4.5761,-0.5919 1.8468,-0.1432 4.7974,-0.1457 8.8519,-0.01 4.0544,0.1381 7.4874,0.457 10.2987,0.9568 2.8114,0.4998 5.3731,1.0907 7.685,1.7727 2.312,0.6821 4.1871,1.3079 5.6253,1.8775 1.4382,0.5696 2.6083,1.1171 3.5105,1.6425 0.9021,0.5254 1.8891,1.3135 2.9607,2.3643 1.0717,1.0507 2.508,3.1688 4.3091,6.3542 1.8011,3.1853 3.5284,5.9378 5.1819,8.2575 1.6536,2.3196 2.7622,3.9684 3.3259,4.9463 0.5636,0.9779 1.1169,2.2707 1.6597,3.8785 0.5429,1.6076 1.3998,4.6191 2.5705,9.0343 1.1708,4.4152 2.7413,9.7027 4.7115,15.8625 1.9702,6.1597 3.2188,10.4393 3.7459,12.8389 0.5271,2.3994 1.2522,7.1065 2.1754,14.1212 0.9233,7.0146 1.5157,13.0503 1.7775,18.1072 0.2617,5.0568 0.3279,8.5609 0.1986,10.5122 -0.1292,1.9512 -0.1006,4.4649 0.086,7.5412 0.1867,3.0763 0.2405,4.8499 0.1617,5.3208 -0.079,0.471 -0.364,1.0822 -0.8554,1.8338 -0.4914,0.7516 -0.9742,1.7168 -1.4482,2.8957 -0.4741,1.1789 -1.2755,3.624 -2.4045,7.3354 -1.129,3.7114 -1.935,6.0809 -2.4183,7.1086 -0.4831,1.0275 -1.0314,1.9891 -1.6449,2.8847 -0.6135,0.8955 -1.5407,1.9863 -2.7818,3.2724 -1.241,1.286 -3.0465,2.8924 -5.4165,4.8192 -2.37,1.9267 -4.0726,3.5347 -5.108,4.824 -1.0353,1.2892 -1.8575,2.2244 -2.4667,2.8057 -0.6092,0.5812 -1.7891,1.4124 -3.5397,2.4938 -1.7506,1.0813 -3.3222,1.9723 -4.7147,2.673 -1.3925,0.7006 -2.6156,1.4118 -3.6694,2.1335 -1.0536,0.7217 -1.7475,1.156 -2.0816,1.3029 -0.3341,0.1468 -0.769,0.2011 -1.3049,0.1628"
             style="fill:none;stroke:#202024;stroke-width:12.08145714;stroke-linecap:round;stroke-linejoin:round;stroke-miterlimit:10;stroke-dasharray:none;stroke-opacity:1"
             id="path8548"
             inkscape:connector-curvature="0" />
          <path
             style="fill:none;stroke:#202024;stroke-width:12.08145714;stroke-linecap:round;stroke-linejoin:round;stroke-miterlimit:10;stroke-dasharray:none;stroke-opacity:1"
             d="m 7391.3835,1991.0936 c 1.2537,6.0334 4.8239,11.0749 9.3599,15.1239 4.6833,5.1305 10.5053,8.9879 17.0436,11.3221 5.4734,2.4814 10.6446,5.5989 15.9091,8.4316 3.869,-0.7436 -0.3973,-8.1502 0.5656,-11.6995 -0.4681,-12.2984 1.4163,-24.4831 3.4583,-36.5643 2.0564,-5.8688 -6.6085,-6.4922 -8.971,-11.233 -5.9262,-5.8413 -12.2167,-11.761 -20.0737,-14.8388 -3.2217,-1.4414 0.2271,-8.975 -0.3826,-12.7223 1.2382,-4.3231 1.2507,-10.6347 4.0098,-13.4776 5.0817,2.7324 10.155,5.8833 15.989,6.746 5.2668,2.3193 9.3298,6.9127 15.2125,8.051 5.3439,1.5593 10.7151,5.1243 15.6624,5.9168 3.2485,-4.8546 7.3681,-9.2169 11.8281,-12.9587 5.032,-1.5261 9.0405,-5.9697 14.3124,-6.3986 4.8695,3.255 7.6499,6.8093 9.9334,12.7803 2.0252,4.6828 6.8583,9.4804 4.1285,14.6418 -7.6984,5.1967 -11.2687,8.6002 -18.4258,14.5429 -3.8109,3.6722 -9.2549,4.3842 -13.2117,7.6195 -5.4506,0.6852 0.7211,8.7806 -0.4576,12.763 0.2499,10.2002 1.1523,20.3546 2.708,30.4385 -0.066,4.7121 0.513,12.8941 7.0423,8.179 1.6285,-1.1144 3.5698,-1.1148 4.9858,0.3469"
             id="path8550"
             inkscape:connector-curvature="0"
             sodipodi:nodetypes="ccccccccccccccccccccccc" />
        </g>
        <path
           style="opacity:1;fill:#2a242c;fill-opacity:1;stroke:none;stroke-width:10;stroke-linecap:round;stroke-linejoin:round;stroke-miterlimit:4;stroke-dasharray:30, 30;stroke-dashoffset:0;stroke-opacity:1"
           d="m 2408.9156,-156.73814 c -10.3307,3.15758 -18.3815,10.57135 -25.0391,18.27148 -8.0592,-0.0148 -14.9376,-4.92748 -22.6973,-6.94726 -8.0474,-4.80181 -16.8442,-8.40417 -25.8668,-11.10742 -4.727,1.4685 -2.7386,8.21217 -4.2727,11.8256 -1.1097,3.97204 -1.4594,8.72873 3.8647,9.95597 10.0238,6.01297 19.0916,14.0457 27.3887,22.03874 -0.047,11.98681 -3.6616,23.86378 -3.8533,35.92687 0.7655,6.29715 11.0547,1.90429 15.8408,3.20985 5.0335,-1.14413 13.2324,2.47128 16.1611,-2.14453 -0.7773,-10.75599 -1.2736,-21.63694 -3.2691,-32.23047 2.4416,-6.31455 11.3215,-6.83255 16.0447,-11.25182 7.1701,-5.07037 14.6852,-10.17869 21.0856,-15.89271 -3.6899,-7.3051 -6.6135,-16.18474 -13.6511,-21.36914 -0.5402,-0.22903 -1.1435,-0.34553 -1.7362,-0.28516 z"
           id="path8554"
           inkscape:connector-curvature="0" />
      </g>
      <path
         transform="translate(0,308.26772)"
         inkscape:connector-curvature="0"
         id="path8612"
         d="m 2358.3707,155.15559 c -0.2961,-0.20382 -1.5682,-0.8239 -2.8268,-1.37795 -7.2445,-3.18908 -8.4613,-3.94052 -12.0167,-7.42151 -3.0942,-3.02944 -4.9501,-5.84588 -4.4187,-6.70568 0.1092,-0.17668 0.1402,-8.64329 0.069,-18.81469 -0.1645,-23.470755 -0.1153,-23.947293 3.4658,-33.520577 4.5585,-12.186108 8.5624,-17.701859 17.4775,-24.076976 5.3312,-3.812297 6.9803,-4.257475 14.9415,-4.033556 5.478,0.154074 9.0322,0.692719 13.1683,1.995676 4.0999,1.29155 4.5285,1.651492 7.3929,6.208369 1.0464,1.664756 2.6843,4.091958 3.6398,5.393783 2.0305,2.766412 2.098,2.925763 4.0711,9.617333 0.8296,2.813381 2.404,7.850673 3.4988,11.193984 1.8666,5.700273 2.7213,9.361174 3.2324,13.843754 l 0.1842,1.61534 -0.862,-1.33164 c -0.4741,-0.7324 -1.3312,-2.3192 -1.9047,-3.52622 -1.3009,-2.7382 -2.9851,-4.95582 -5.1596,-6.793819 -3.9994,-3.380403 -5.5474,-3.3178 -13.1474,0.531675 -4.3565,2.206624 -4.4558,2.276814 -7.6483,5.406864 l -3.2345,3.17122 -3.3653,-1.32795 c -1.8509,-0.73038 -4.0316,-1.51767 -4.846,-1.74953 -0.8144,-0.23186 -3.064,-1.36938 -4.9991,-2.52781 -2.8662,-1.715811 -3.9641,-2.215903 -5.9229,-2.697858 -1.519,-0.373736 -3.708,-1.237078 -5.9439,-2.344214 -2.7238,-1.348767 -3.8094,-1.752362 -4.7114,-1.751587 -1.9713,0.0016 -3.6063,1.388149 -4.7785,4.05216 -1.0765,2.446679 -2.9271,13.789689 -2.5705,15.756059 0.429,2.36583 1.284,3.26497 4.8215,5.07065 3.8487,1.96451 8.151,5.26228 11.0465,8.4672 0.5603,0.62015 1.7892,1.62585 2.7309,2.23489 0.9418,0.60904 1.7123,1.1483 1.7123,1.19836 0,0.0501 -0.3532,2.24418 -0.7848,4.87583 -0.964,5.87685 -1.3567,9.66587 -1.5919,15.35798 -0.1779,4.30833 -0.1899,4.37487 -0.7194,4.01044 z"
         style="opacity:1;fill:#f5f2e3;fill-opacity:1;stroke:none;stroke-width:10;stroke-linecap:round;stroke-linejoin:round;stroke-miterlimit:4;stroke-dasharray:30, 30;stroke-dashoffset:0;stroke-opacity:1" />
      <path
         transform="translate(0,308.26772)"
         inkscape:connector-curvature="0"
         id="path8614"
         d="m 2391.3505,157.9843 c 0,-0.56621 -0.1771,-2.23203 -0.3936,-3.70182 -0.6186,-4.19921 -0.9696,-8.17827 -1.2095,-13.71049 -0.1468,-3.38517 -0.3587,-5.48603 -0.6266,-6.21154 l -0.4048,-1.0963 3.673,-1.77948 c 3.1777,-1.53952 4.267,-2.25573 8.0781,-5.31119 2.4229,-1.94244 5.4632,-4.24308 6.7563,-5.11253 2.2615,-1.52066 3.7804,-2.95625 3.7804,-3.57306 0,-0.16139 0.084,-0.2093 0.187,-0.10648 0.1028,0.10283 0.2691,3.90897 0.3694,8.45809 l 0.1825,8.27114 -0.7354,1.48072 c -0.4045,0.8144 -1.3142,3.23741 -2.0216,5.38446 -0.7075,2.14706 -1.4617,4.25076 -1.6761,4.67489 -0.5727,1.13308 -2.3606,2.9882 -4.6517,4.82656 -1.1105,0.89111 -3.0489,2.62695 -4.3076,3.85742 -1.4381,1.40595 -3.0862,2.69087 -4.4356,3.45815 -1.181,0.67151 -2.2411,1.22093 -2.3557,1.22093 -0.1147,0 -0.2085,-0.46327 -0.2085,-1.02947 z"
         style="opacity:1;fill:#f5f2e3;fill-opacity:1;stroke:none;stroke-width:10;stroke-linecap:round;stroke-linejoin:round;stroke-miterlimit:4;stroke-dasharray:30, 30;stroke-dashoffset:0;stroke-opacity:1" />
    </g>
  </g>
</svg>
